<svg width="58" height="52" viewBox="0 0 58 52" fill="none" xmlns="http://www.w3.org/2000/svg">
<path d="M21.8085 34.8938C22.3919 35.4111 22.8986 35.8002 23.2812 36.0727V40.0938H20.5625C18.7 40.0938 16.9316 40.637 15.6007 41.7508C14.2433 42.887 13.4375 44.5417 13.4375 46.5156V47.5703C13.4375 49.014 14.5485 50.125 15.9922 50.125H42.0078C43.2817 50.125 44.5625 49.0936 44.5625 47.5703V46.5156C44.5625 44.5242 43.721 42.8725 42.3602 41.7457C41.0258 40.6409 39.2637 40.0938 37.4375 40.0938H34.7188V36.0615C35.0924 35.7889 35.5872 35.4004 36.1582 34.8843C37.2861 33.8648 38.7137 32.3455 40.0902 30.239C43.5724 29.7008 46.8953 28.4199 49.7387 26.3762C53.4055 23.7435 55.8125 20.0901 55.8125 16.2812V11.3594C55.8125 9.38837 54.1741 7.75 52.2031 7.75H44.5625V5.73438C44.5625 3.76337 42.9241 2.125 40.9531 2.125H17.0469C14.9473 2.125 13.4375 3.80465 13.4375 5.73438V7.75H5.79688C3.69729 7.75 2.1875 9.42965 2.1875 11.3594V16.2812C2.1875 20.0697 4.48465 23.7277 8.17337 26.3762C11.0169 28.42 14.3401 29.7009 17.8224 30.2391C19.2059 32.3512 20.6578 33.8734 21.8085 34.8938ZM13.2887 19.3879L13.2609 19.367L13.2321 19.3475C11.4012 18.1025 10.8841 16.8443 10.8197 16.375H13.5118C13.5981 17.5896 13.7434 18.742 13.9345 19.8318C13.7093 19.6898 13.4942 19.5421 13.2887 19.3879ZM44.6914 19.3398L44.6567 19.3629L44.6234 19.3879C44.4179 19.5421 44.2028 19.6898 43.9776 19.8318C44.1687 18.742 44.314 17.5896 44.4004 16.375H47.1813C47.1476 16.6472 46.9706 17.0958 46.5175 17.6749C46.0353 18.291 45.3678 18.8889 44.6914 19.3398Z" stroke="white" stroke-width="3"/>
</svg>
