<svg width="54" height="52" viewBox="0 0 54 52" fill="none" xmlns="http://www.w3.org/2000/svg">
<path d="M23.1102 4.53663L23.1102 4.5366L23.1042 4.54882L17.7402 15.5244L5.60694 17.2577L5.59895 17.2588L5.59098 17.26C2.02415 17.8088 0.774096 22.1471 3.26427 24.6373L3.26937 24.6424L3.27451 24.6474L11.9416 33.1494L9.87799 45.1186L9.87568 45.132L9.87362 45.1454C9.337 48.6334 13.0589 51.3205 16.1809 49.6916L16.1861 49.6889L26.998 43.9941L37.7233 49.6867L37.7232 49.6867L37.7326 49.6916C40.8547 51.3205 44.5765 48.6334 44.0399 45.1454L44.0378 45.132L44.0355 45.1186L41.9719 33.1494L50.639 24.6474L50.6442 24.6424L50.6493 24.6373C53.1394 22.1471 51.8894 17.8088 48.3225 17.26L48.3153 17.2589L48.308 17.2579L36.2559 15.5244L30.8097 4.54945C29.3033 1.42156 24.7258 1.30551 23.1102 4.53663Z" stroke="white" stroke-width="3"/>
</svg>
