<svg width="64" height="46" viewBox="0 0 64 46" fill="none" xmlns="http://www.w3.org/2000/svg">
<path d="M58.2615 18.7927L58.2305 18.7576L58.1974 18.7245C57.6282 18.1553 56.5246 17.8142 55.5656 18.4156L54.1796 19.2152C53.6141 18.8096 52.993 18.429 52.3086 18.1245V16.5332C52.3086 16.1258 52.2091 15.6514 51.9166 15.2336C51.6368 14.8339 51.1752 14.4967 50.5839 14.43C48.4314 13.9761 46.3439 13.9726 44.2566 14.431C43.7951 14.4854 43.4131 14.7046 43.1357 14.9891C43.2145 14.461 43.2559 13.9209 43.2559 13.3691C43.2559 7.09149 38.1898 2.02539 31.9121 2.02539C25.7224 2.02539 20.6562 7.09149 20.6562 13.2812C20.6562 19.5589 25.7224 24.625 32 24.625H32.0005H32.001H32.0016H32.0021H32.0026H32.0031H32.0037H32.0042H32.0047H32.0052H32.0058H32.0063H32.0069H32.0074H32.0079H32.0085H32.009H32.0096H32.0101H32.0107H32.0113H32.0118H32.0124H32.0129H32.0135H32.0141H32.0146H32.0152H32.0158H32.0163H32.0169H32.0175H32.0181H32.0186H32.0192H32.0198H32.0204H32.021H32.0216H32.0222H32.0228H32.0234H32.024H32.0246H32.0252H32.0258H32.0264H32.027H32.0276H32.0282H32.0288H32.0294H32.03H32.0306H32.0313H32.0319H32.0325H32.0331H32.0338H32.0344H32.035H32.0356H32.0363H32.0369H32.0375H32.0382H32.0388H32.0395H32.0401H32.0408H32.0414H32.042H32.0427H32.0434H32.044H32.0447H32.0453H32.046H32.0466H32.0473H32.048H32.0486H32.0493H32.05H32.0506H32.0513H32.052H32.0527H32.0533H32.054H32.0547H32.0554H32.0561H32.0568H32.0574H32.0581H32.0588H32.0595H32.0602H32.0609H32.0616H32.0623H32.063H32.0637H32.0644H32.0651H32.0658H32.0665H32.0672H32.0679H32.0687H32.0694H32.0701H32.0708H32.0715H32.0723H32.073H32.0737H32.0744H32.0751H32.0759H32.0766H32.0773H32.0781H32.0788H32.0795H32.0803H32.081H32.0818H32.0825H32.0833H32.084H32.0847H32.0855H32.0862H32.087H32.0877H32.0885H32.0893H32.09H32.0908H32.0915H32.0923H32.0931H32.0938H32.0946H32.0954H32.0961H32.0969H32.0977H32.0984H32.0992H32.1H32.1008H32.1015H32.1023H32.1031H32.1039H32.1047H32.1055H32.1063H32.107H32.1078H32.1086H32.1094H32.1102H32.111H32.1118H32.1126H32.1134H32.1142H32.115H32.1158H32.1166H32.1174H32.1182H32.119H32.1198H32.1207H32.1215H32.1223H32.1231H32.1239H32.1247H32.1256H32.1264H32.1272H32.128H32.1288H32.1297H32.1305H32.1313H32.1322H32.133H32.1338H32.1346H32.1355H32.1363H32.1372H32.138H32.1388H32.1397H32.1405H32.1414H32.1422H32.143H32.1439H32.1447H32.1456H32.1464H32.1473H32.1481H32.149H32.1499H32.1507H32.1516H32.1524H32.1533H32.1541H32.155H32.1559H32.1567H32.1576H32.1585H32.1593H32.1602H32.1611H32.1619H32.1628H32.1637H32.1646H32.1654H32.1663H32.1672H32.1681H32.1689H32.1698H32.1707H32.1716H32.1725H32.1734H32.1743H32.1751H32.176H32.1769H32.1778H32.1787H32.1796H32.1805H32.1814H32.1823H32.1832H32.1841H32.185H32.1859H32.1868H32.1877H32.1886H32.1895H32.1904H32.1913H32.1922H32.1931H32.194H32.1949H32.1958H32.1967H32.1977H32.1986H32.1995H32.2004H32.2013H32.2022H32.2031H32.2041H32.205H32.2059H32.2068H32.2078H32.2087H32.2096H32.2105H32.2115H32.2124H32.2133H32.2142H32.2152H32.2161H32.217H32.218H32.2189H32.2198H32.2208H32.2217H32.2226H32.2236H32.2245H32.2255H32.2264H32.2273H32.2283H32.2292H32.2302H32.2311H32.2321H32.233H32.234H32.2349H32.2358H32.2368H32.2377H32.2387H32.2397H32.2406H32.2416H32.2425H32.2435H32.2444H32.2454H32.2463H32.2473H32.2483H32.2492H32.2502H32.2511H32.2521H32.2531H32.254H32.255H32.2559H32.2569H32.2579H32.2588H32.2598H32.2608H32.2617H32.2627H32.2637H32.2647H32.2656H32.2666H32.2676H32.2685H32.2695H32.2705H32.2715H32.2724H32.2734H32.2744H32.2754H32.2764H32.2773H32.2783H32.2793H32.2803H32.2813H32.2822H32.2832H32.2842H32.2852H32.2862H32.2872H32.2882H32.2891H32.2901H32.2911H32.2921H32.2931H32.2941H32.2951H32.2961H32.2971H32.298H32.299H32.3H32.301H32.302H32.303H32.304H32.305H32.306H32.307H32.308H32.309H32.31H32.311H32.312H32.313H32.314H32.315H32.316H32.317H32.318H32.319H32.32H32.321H32.322H32.323H32.324H32.325H32.326H32.327H32.328H32.329H32.33H32.3311H32.3321H32.3331H32.3341H32.3351H32.3361H32.3371H32.3381H32.3391H32.3401H32.3412H32.3422H32.3432H32.3442H32.3452H32.3462H32.3472H32.3482H32.3493H32.3503H32.3513H32.3523H32.3533H32.3543H32.3554H32.3564H32.3574H32.3584H32.3594H32.3604H32.3615H32.3625H32.3635H32.3645H32.3655H32.3666H32.3676H32.3686H32.3696H32.3706H32.3717H32.3727H32.3737H32.3747H32.3758H32.3768H32.3778H32.3788H32.3798H32.3809H32.3819H32.3829H32.3839H32.385H32.386H32.387H32.388H32.3891H32.3901H32.3911H32.3921H32.3932H32.3942H32.3952H32.3962H32.3973H32.3983H32.3993H32.4004H32.4014H32.4024H32.4034H32.4045H32.4055H32.4065H32.4075H32.4086H32.4096H32.4106H32.4117H32.4127H32.4137H32.4147H32.4158H32.4168H32.4178H32.4189H32.4199H32.4209H32.4219H32.423H32.424H32.425H32.4261H32.4271H32.4281H32.4292H32.4302H32.4312H32.4322H32.4333H32.4343H32.4353H32.4364H32.4374H32.4384H32.4395H33.3299C33.2467 25.0043 33.2666 25.406 33.3895 25.7746C33.3974 25.7983 33.4058 25.8222 33.4149 25.8463L33.4123 25.8438H32.791H32.7895H32.7879H32.7864H32.7848H32.7833H32.7817H32.7802H32.7787H32.7771H32.7756H32.774H32.7725H32.7709H32.7694H32.7678H32.7663H32.7648H32.7632H32.7617H32.7601H32.7586H32.757H32.7555H32.7539H32.7524H32.7508H32.7493H32.7478H32.7462H32.7447H32.7431H32.7416H32.74H32.7385H32.7369H32.7354H32.7339H32.7323H32.7308H32.7292H32.7277H32.7261H32.7246H32.723H32.7215H32.7199H32.7184H32.7169H32.7153H32.7138H32.7122H32.7107H32.7091H32.7076H32.706H32.7045H32.703H32.7014H32.6999H32.6983H32.6968H32.6952H32.6937H32.6921H32.6906H32.689H32.6875H32.686H32.6844H32.6829H32.6813H32.6798H32.6782H32.6767H32.6751H32.6736H32.6721H32.6705H32.669H32.6674H32.6659H32.6643H32.6628H32.6612H32.6597H32.6581H32.6566H32.6551H32.6535H32.652H32.6504H32.6489H32.6473H32.6458H32.6442H32.6427H32.6412H32.6396H32.6381H32.6365H32.635H32.6334H32.6319H32.6303H32.6288H32.6273H32.6257H32.6242H32.6226H32.6211H32.6195H32.618H32.6164H32.6149H32.6133H32.6118H32.6103H32.6087H32.6072H32.6056H32.6041H32.6025H32.601H32.5994H32.5979H32.5964H32.5948H32.5933H32.5917H32.5902H32.5886H32.5871H32.5855H32.584H32.5824H32.5809H32.5794H32.5778H32.5763H32.5747H32.5732H32.5716H32.5701H32.5685H32.567H32.5655H32.5639H32.5624H32.5608H32.5593H32.5577H32.5562H32.5546H32.5531H32.5515H32.55H32.5485H32.5469H32.5454H32.5438H32.5423H32.5407H32.5392H32.5376H32.5361H32.5346H32.533H32.5315H32.5299H32.5284H32.5268H32.5253H32.5237H32.5222H32.5206H32.5191H32.5176H32.516H32.5145H32.5129H32.5114H32.5098H32.5083H32.5067H32.5052H32.5037H32.5021H32.5006H32.499H32.4975H32.4959H32.4944H32.4928H32.4913H32.4897H32.4882H32.4867H32.4851H32.4836H32.482H32.4805H32.4789H32.4774H32.4758H32.4743H32.4728H32.4712H32.4697H32.4681H32.4666H32.465H32.4635H32.4619H32.4604H32.4589H32.4573H32.4558H32.4542H32.4527H32.4511H32.4496H32.448H32.4465H32.4449H32.4434H32.4419H32.4403H32.4388H32.4372H32.4357H32.4341H32.4326H32.431H32.4295H32.428H32.4264H32.4249H32.4233H32.4218H32.4202H32.4187H32.4171H32.4156H32.414H32.4125H32.411H32.4094H32.4079H32.4063H32.4048H32.4032H32.4017H32.4001H32.3986H32.3971H32.3955H32.394H32.3924H32.3909H32.3893H32.3878H32.3862H32.3847H32.3831H32.3816H32.3801H32.3785H32.377H32.3754H32.3739H32.3723H32.3708H32.3692H32.3677H32.3662H32.3646H32.3631H32.3615H32.36H32.3584H32.3569H32.3553H32.3538H32.3522H32.3507H32.3492H32.3476H32.3461H32.3445H32.343H32.3414H32.3399H32.3383H32.3368H32.3353H32.3337H32.3322H32.3306H32.3291H32.3275H32.326H32.3244H32.3229H32.3214H32.3198H32.3183H32.3167H32.3152H32.3136H32.3121H32.3105H32.309H32.3074H32.3059H32.3044H32.3028H32.3013H32.2997H32.2982H32.2966H32.2951H32.2935H32.292H32.2905H32.2889H32.2874H32.2858H32.2843H32.2827H32.2812H32.2796H32.2781H32.2765H32.275H32.2735H32.2719H32.2704H32.2688H32.2673H32.2657H32.2642H32.2626H32.2611H32.2596H32.258H32.2565H32.2549H32.2534H32.2518H32.2503H32.2487H32.2472H32.2456H32.2441H32.2426H32.241H32.2395H32.2379H32.2364H32.2348H32.2333H32.2317H32.2302H32.2287H32.2271H32.2256H32.224H32.2225H32.2209H32.2194H32.2178H32.2163H32.2147H32.2132H32.2117H32.2101H32.2086H32.207H32.2055H32.2039H32.2024H32.2008H32.1993H32.1978H32.1962H32.1947H32.1931H32.1916H32.19H32.1885H32.1869H32.1854H32.1838H32.1823H32.1808H32.1792H32.1777H32.1761H32.1746H32.173H32.1715H32.1699H32.1684H32.1669H32.1653H32.1638H32.1622H32.1607H32.1591H32.1576H32.156H32.1545H32.153H32.1514H32.1499H32.1483H32.1468H32.1452H32.1437H32.1421H32.1406H32.139H32.1375H32.136H32.1344H32.1329H32.1313H32.1298H32.1282H32.1267H32.1251H32.1236H32.1221H32.1205H32.119H32.1174H32.1159H32.1143H32.1128H32.1112H32.1097H32.1081H32.1066H32.1051H32.1035H32.102H32.1004H32.0989H32.0973H32.0958H32.0942H32.0927H32.0912H32.0896H32.0881H32.0865H32.085H32.0834H32.0819H32.0803H32.0788H32.0772H32.0757H32.0742H32.0726H32.0711H32.0695H32.068H32.0664H32.0649H32.0633H32.0618H32.0603H32.0587H32.0572H32.0556H32.0541H32.0525H32.051H32.0494H32.0479H32.0463H32.0448H32.0433H32.0417H32.0402H32.0386H32.0371H32.0355H32.034H32.0324H32.0309H32.0294H32.0278H32.0263H32.0247H32.0232H32.0216H32.0201H32.0185H32.017H32.0154H32.0139H32.0124H32.0108H32.0093H32.0077H32.0062H32.0046H32.0031H32.0015H32C30.0508 25.8438 28.2485 25.3775 26.5804 24.5832L26.2745 24.4375H25.9355H25.2324C23.9444 24.4375 22.7092 24.6459 21.5569 25.0305L20.0937 23.6892C18.8389 22.539 17.0868 21.625 15.125 21.625H13.9453C17.0671 20.8957 19.4375 18.1178 19.4375 14.6875C19.4375 10.7829 16.2171 7.5625 12.3125 7.5625C8.30476 7.5625 5.1875 10.7982 5.1875 14.6875C5.1875 18.106 7.48402 20.894 10.6505 21.625H9.5C5.49226 21.625 2.375 24.8607 2.375 28.75V31.5625C2.375 33.973 4.27704 35.875 6.6875 35.875H12.4004H13.6278C13.6259 35.9607 13.625 36.0467 13.625 36.1328V38.5938C13.625 41.7952 16.1423 44.3125 19.3438 44.3125H41.7559H44.5586L43.676 42.9885C43.8538 43.0739 44.0512 43.1337 44.2657 43.1579C46.4182 43.6118 48.5057 43.6153 50.593 43.1569C51.18 43.0877 51.6383 42.7519 51.9166 42.3543C52.2091 41.9365 52.3086 41.4621 52.3086 41.0547V39.4634C52.993 39.1589 53.6141 38.7783 54.1796 38.3727L55.5656 39.1723C56.5246 39.7736 57.6282 39.4326 58.1974 38.8634L58.2305 38.8303L58.2615 38.7952C59.7111 37.1522 60.7837 35.3027 61.4644 33.1665C61.6067 32.7302 61.6053 32.2487 61.4601 31.8133C61.3251 31.4082 61.0127 30.9161 60.4385 30.6539L59.1289 29.8984C59.2051 29.166 59.2051 28.4219 59.1289 27.6895L60.4385 26.934C61.0127 26.6717 61.3251 26.1797 61.4601 25.7746C61.6053 25.3392 61.6067 24.8577 61.4644 24.4213C60.7837 22.2852 59.7111 20.4357 58.2615 18.7927ZM42.541 17.2844V18.1245C42.389 18.1922 42.2401 18.2635 42.0942 18.3381L42.1483 18.2222C42.2917 17.915 42.423 17.6023 42.541 17.2844ZM35.666 29.9299L35.7185 29.8774C35.7192 29.8844 35.7199 29.8914 35.7207 29.8984L35.666 29.9299ZM47.4688 31.5566C45.9241 31.5566 44.6621 30.2946 44.6621 28.75C44.6621 27.3133 45.904 26.0312 47.4688 26.0312C48.9255 26.0312 50.1875 27.2933 50.1875 28.75C50.1875 30.3148 48.9055 31.5566 47.4688 31.5566Z" stroke="white" stroke-width="3"/>
</svg>
