<svg width="63" height="46" viewBox="0 0 63 46" fill="none" xmlns="http://www.w3.org/2000/svg">
<path fill-rule="evenodd" clip-rule="evenodd" d="M56.2617 19.2598C57.5801 20.7539 58.5469 22.4238 59.1621 24.3574C59.25 24.6211 59.1621 24.9727 58.8984 25.0605L56.6133 26.3789C56.877 27.6094 56.877 28.9277 56.6133 30.1582L58.8984 31.4766C59.1621 31.5645 59.25 31.916 59.1621 32.1797C58.5469 34.1133 57.5801 35.7832 56.2617 37.2773C56.0859 37.4531 55.7344 37.541 55.4707 37.3652L53.1855 36.0469C52.2188 36.8379 51.1641 37.541 49.9336 37.8926V40.5293C49.9336 40.8809 49.7578 41.1445 49.4941 41.1445C47.6049 41.5739 45.7156 41.5838 43.7444 41.1741C43.6981 41.1645 43.6518 41.1546 43.6055 41.1445C43.4 41.1445 43.2478 40.9843 43.1907 40.7472C43.1746 40.6801 43.166 40.6068 43.166 40.5293V37.8926C42.4807 37.6968 41.8499 37.3919 41.2584 37.0235C41.1722 36.9699 41.0869 36.9148 41.0023 36.8586C40.7117 36.6653 40.4304 36.4578 40.1564 36.2417C40.075 36.1775 39.9942 36.1125 39.9141 36.0469L37.6289 37.3652C37.5205 37.4375 37.3972 37.4652 37.2773 37.4605C37.1282 37.4547 36.9844 37.3988 36.8814 37.3162C36.8659 37.3038 36.8514 37.2908 36.8379 37.2773C36.8259 37.2638 36.814 37.2502 36.8021 37.2366C35.5216 35.777 34.4939 34.1495 33.9633 32.2728C33.9552 32.2439 33.9472 32.2151 33.9393 32.1862C33.9387 32.184 33.9381 32.1818 33.9375 32.1797C33.8496 31.916 33.9375 31.5645 34.2012 31.4766L36.4863 30.1582C36.4669 30.0674 36.4489 29.9762 36.4323 29.8846C36.3546 29.455 36.3084 29.0164 36.2937 28.5762C36.2869 28.3712 36.2869 28.1659 36.2937 27.9609C36.3115 27.4268 36.3757 26.8951 36.4863 26.3789L34.2012 25.0605C34.1491 25.0432 34.1039 25.0155 34.0655 24.9803C34.0163 24.9351 33.9784 24.8775 33.9517 24.8131C33.9487 24.8059 33.9459 24.7986 33.9432 24.7912C33.9172 24.7202 33.9043 24.6422 33.9045 24.5642C33.9047 24.4935 33.9157 24.4228 33.9375 24.3574C34.0119 24.0847 34.0967 23.8173 34.1913 23.5548C34.7466 22.0145 35.6376 20.6464 36.715 19.4005C36.7531 19.3563 36.7916 19.3123 36.8302 19.2685C36.8328 19.2656 36.8353 19.2627 36.8379 19.2598C36.9414 19.1563 37.1058 19.0833 37.2773 19.0766C37.3619 19.0733 37.4483 19.0861 37.5299 19.1194C37.5639 19.1332 37.597 19.1506 37.6289 19.1719L39.9141 20.4902C40.0927 20.3441 40.2743 20.201 40.4594 20.0625C40.4982 20.0335 40.5371 20.0047 40.5762 19.9761C40.9643 19.6925 41.3682 19.4305 41.793 19.2051C41.9747 19.1087 42.1601 19.0189 42.3498 18.9371C42.6134 18.8233 42.8851 18.7248 43.166 18.6445V16.0078C43.166 15.6562 43.3418 15.3926 43.6055 15.3926C43.6098 15.3916 43.6141 15.3906 43.6185 15.3896C45.5477 14.9531 47.4772 14.9541 49.4941 15.3926C49.7578 15.3926 49.9336 15.6562 49.9336 16.0078V18.6445C51.1641 18.9961 52.2188 19.6992 53.1855 20.4902L55.4707 19.1719C55.7344 18.9961 56.0859 19.084 56.2617 19.2598ZM53.9173 16.6046C55.5681 15.5835 57.4213 16.1767 58.383 17.1384L58.4493 17.2047L58.5112 17.2749C60.0924 19.0669 61.2708 21.0962 62.017 23.4355C62.2573 24.1759 62.2544 24.9848 62.0082 25.7236C61.7825 26.4004 61.251 27.2615 60.2547 27.7415L59.8081 27.9992C59.812 28.1787 59.812 28.3584 59.8081 28.5379L60.2547 28.7956C61.251 29.2756 61.7825 30.1367 62.0082 30.8135C62.2544 31.5523 62.2573 32.3612 62.017 33.1016C61.2708 35.4409 60.0924 37.4702 58.5112 39.2622L58.4493 39.3324L58.383 39.3987C57.4213 40.3604 55.5681 40.9536 53.9173 39.9325L53.3605 39.6113C53.2216 39.6966 53.0793 39.7802 52.9336 39.8617V40.5293C52.9336 41.1684 52.7786 41.9633 52.2704 42.6891C51.7933 43.3708 50.9973 43.9675 49.971 44.1115C48.6291 44.4003 47.2873 44.5153 45.9357 44.4611L46.4864 45.2871H18.4688C14.4388 45.2871 11.25 42.0983 11.25 38.0684V36.8496H5.8125C2.57361 36.8496 0 34.276 0 31.0371V28.2246C0 24.6739 2.15156 21.5678 5.29408 20.2593C3.75411 18.7074 2.8125 16.5606 2.8125 14.1621C2.8125 9.45974 6.58609 5.53711 11.4375 5.53711C14.4703 5.53711 17.1577 7.13507 18.6972 9.52834C20.1351 4.06069 25.133 0 31.0371 0C37.9556 0 43.577 5.43872 43.8689 12.2839C45.8819 11.9464 47.8985 11.9978 49.9521 12.423C50.9875 12.5623 51.7904 13.1622 52.2704 13.848C52.7786 14.5739 52.9336 15.3687 52.9336 16.0078V16.6754C53.0793 16.7569 53.2216 16.8405 53.3605 16.9258L53.9173 16.6046ZM19.2875 17.7574C18.8521 18.7107 18.2488 19.5662 17.5175 20.2898C18.5644 20.7407 19.4835 21.3717 20.2323 22.0581L21.0703 22.8263C21.6188 22.6849 22.1817 22.578 22.7568 22.5083C21.2611 21.2245 20.0654 19.6015 19.2875 17.7574ZM30.7155 26.8122C28.676 26.7511 26.791 26.2361 25.0605 25.4121H24.3574C23.4818 25.4121 22.6338 25.5229 21.8262 25.7311C21.0004 25.944 20.2167 26.2589 19.4885 26.6615C16.7234 28.1904 14.7599 30.9848 14.3358 34.2682C14.2792 34.7065 14.25 35.1535 14.25 35.6074V38.0684C14.25 40.4414 16.0957 42.2871 18.4688 42.2871H40.8809C40.8691 42.2694 40.8575 42.2517 40.8461 42.234C40.5177 41.7242 40.3535 41.2088 40.3535 40.5293V39.7383C40.2857 39.7157 40.2237 39.6873 40.166 39.656C40.0829 39.611 40.0088 39.5601 39.9391 39.5124C39.9348 39.5094 39.9304 39.5064 39.9261 39.5034C39.861 39.4588 39.7996 39.4174 39.7383 39.3867C39.6912 39.4161 39.6445 39.4456 39.598 39.4749C39.5852 39.4829 39.5724 39.491 39.5596 39.4991C39.4394 39.5748 39.3203 39.6493 39.1991 39.7205C39.1889 39.7264 39.1787 39.7324 39.1685 39.7383C39.126 39.763 39.0831 39.7872 39.0399 39.8109C38.5811 40.062 38.0736 40.2524 37.3535 40.265C37.3284 40.2654 37.303 40.2656 37.2773 40.2656C36.469 40.2656 35.5862 39.8939 34.9711 39.2871C34.947 39.2634 34.9234 39.2394 34.9003 39.215C34.8716 39.1849 34.8437 39.1542 34.8164 39.123C34.8057 39.1118 34.795 39.1005 34.7844 39.0892C33.1374 37.3453 31.9214 35.2587 31.2214 33.0851C31.2185 33.0762 31.2157 33.0674 31.2129 33.0586C31.2007 33.0161 31.1894 32.9739 31.1787 32.9321C30.8957 31.8204 31.1328 30.9448 31.5466 30.279C31.6501 30.1125 31.7646 29.959 31.8848 29.8184C31.8952 29.8062 31.9056 29.7942 31.916 29.7823C32.1987 29.4591 32.5098 29.205 32.7809 29.0148C32.8157 28.9904 32.8499 28.967 32.8832 28.9447C33.0358 28.8425 33.1715 28.7622 33.2765 28.7026C33.2831 28.6989 33.2896 28.6953 33.2959 28.6917C33.3347 28.6699 33.3688 28.6511 33.3975 28.6353C33.4542 28.6041 33.4897 28.5845 33.498 28.5762V27.9609L32.7949 27.5215C32.7914 27.5197 32.7879 27.518 32.7844 27.5162C32.4381 27.3405 32.1771 27.0794 31.916 26.8184H31.125C30.9878 26.8184 30.8513 26.8163 30.7155 26.8122ZM31.5645 22.5996C32.2676 20.666 33.4102 18.9082 34.7285 17.4141C34.7313 17.4113 34.734 17.4086 34.7368 17.4058C34.7782 17.3646 34.8203 17.3242 34.863 17.2848C35.5423 16.6575 36.3712 16.2715 37.2773 16.2715C37.8926 16.2715 38.5078 16.4473 39.0352 16.7109L39.7383 17.1504C39.7888 17.0998 39.8103 17.0784 39.8361 17.0692C39.8552 17.0625 39.8767 17.0625 39.9141 17.0625C39.9184 17.0531 39.9228 17.0437 39.9272 17.0343C39.9732 16.9351 40.0177 16.8353 40.0606 16.7351C40.0969 16.6505 40.132 16.5656 40.166 16.4804C40.1713 16.4673 40.1765 16.4541 40.1817 16.441C40.2383 16.2976 40.2917 16.1532 40.3419 16.0078C40.5377 15.4405 40.684 14.8579 40.7744 14.2602C40.7949 14.1245 40.8125 13.988 40.8272 13.8508C40.8626 13.5197 40.8809 13.184 40.8809 12.8438C40.8809 7.39453 36.4863 3 31.0371 3C25.6758 3 21.2812 7.39453 21.2812 12.7559C21.2812 18.2051 25.6758 22.5996 31.125 22.5996H31.5645ZM15.0965 22.6738C14.8188 22.6254 14.536 22.5996 14.25 22.5996H8.625C5.46094 22.5996 3 25.1484 3 28.2246V31.0371C3 32.6191 4.23047 33.8496 5.8125 33.8496H11.5254C11.9815 30.7874 13.4518 28.0633 15.65 26.0711C16.4171 25.3759 17.2728 24.7698 18.2051 24.2695C18.1304 24.201 18.0539 24.1339 17.9757 24.0682C17.1618 23.3841 16.1668 22.8605 15.0965 22.6738ZM12.887 19.5996C15.2749 18.9685 17.0625 16.8119 17.0625 14.1621C17.0625 11.0859 14.5137 8.53711 11.4375 8.53711C8.27344 8.53711 5.8125 11.0859 5.8125 14.1621C5.8125 16.8119 7.53845 18.9685 9.95792 19.5996C10.4275 19.7221 10.9232 19.7871 11.4375 19.7871C11.9375 19.7871 12.4236 19.7221 12.887 19.5996ZM45.2871 28.2246C45.2871 28.9408 45.8776 29.5312 46.5938 29.5312C47.1821 29.5312 47.8125 28.9811 47.8125 28.2246C47.8125 27.5963 47.2221 27.0059 46.5938 27.0059C45.8373 27.0059 45.2871 27.6363 45.2871 28.2246ZM42.2871 28.2246C42.2871 30.5977 44.2207 32.5312 46.5938 32.5312C48.8789 32.5312 50.8125 30.5977 50.8125 28.2246C50.8125 25.9395 48.8789 24.0059 46.5938 24.0059C44.2207 24.0059 42.2871 25.9395 42.2871 28.2246Z" fill="white"/>
</svg>
