<svg width="64" height="52" viewBox="0 0 64 52" fill="none" xmlns="http://www.w3.org/2000/svg">
<path d="M44.8326 9.36019L44.8516 9.2522L44.8564 9.22531L44.8601 9.19827C44.9482 8.56513 44.9105 7.92082 44.7492 7.30227C44.5878 6.68373 44.306 6.10311 43.9198 5.5937L43.8707 5.52889L43.8148 5.46977C42.9232 4.526 41.6975 3.96886 40.4002 3.91768L40.3707 3.91652H40.3411H14.5698C13.6869 3.90399 12.8275 4.20131 12.141 4.75704C11.4505 5.316 10.9793 6.10058 10.8102 6.97272L10.8044 7.0028L10.7998 7.03309C10.72 7.5586 10.7554 8.09517 10.9036 8.60563C11.0518 9.11608 11.3092 9.58821 11.658 9.98931C12.0068 10.3904 12.4386 10.7109 12.9235 10.9285C13.4055 11.1449 13.9286 11.2544 14.4568 11.2499H22.3411C22.5885 11.2564 22.8317 11.3153 23.0548 11.4228L23.706 10.0715L23.0548 11.4228C23.2815 11.532 23.482 11.6889 23.6425 11.8827L24.7976 10.9257L23.6425 11.8827C23.8031 12.0765 23.92 12.3027 23.9852 12.5457C24.0502 12.7879 24.0624 13.0411 24.021 13.2883C24.0208 13.2893 24.0206 13.2903 24.0205 13.2912L21.4216 28.2345L21.4216 28.2345L21.4204 28.2418C21.3525 28.6439 21.1463 29.0097 20.8374 29.2759C20.5317 29.5395 20.1443 29.6892 19.741 29.6998H11.2126C10.3608 29.6866 9.53071 29.9705 8.8652 30.5029C8.19524 31.0389 7.73444 31.7928 7.56301 32.6335L7.56044 32.6461L7.55808 32.6588L6.69141 37.3172L6.68652 37.3434L6.68257 37.3699C6.58309 38.0358 6.63319 38.7155 6.82923 39.3596C7.02227 39.9939 7.35205 40.578 7.79519 41.0708C8.20936 41.5577 8.72189 41.9516 9.29922 42.2265C9.88584 42.5059 10.5256 42.6559 11.1753 42.6663L11.1874 42.6665H11.1994H12.8688C13.5021 44.088 14.4928 45.3292 15.7526 46.2642C17.3183 47.4262 19.2163 48.0536 21.1661 48.0536C23.1159 48.0536 25.0139 47.4262 26.5796 46.2642C27.8394 45.3292 28.8302 44.088 29.4634 42.6665H32.3688C33.0021 44.088 33.9928 45.3292 35.2526 46.2642C36.8183 47.4262 38.7163 48.0536 40.6661 48.0536C42.6159 48.0536 44.5139 47.4262 46.0796 46.2642C47.3394 45.3292 48.3302 44.088 48.9634 42.6665H50.0911H50.1054L50.1196 42.6662C51.2861 42.6441 52.4075 42.212 53.2873 41.4457C54.1643 40.6819 54.7453 39.6346 54.9293 38.4865L57.3111 24.6289L57.4184 24.0043L57.0454 23.492L48.0537 11.142L48.0288 11.1077L48.002 11.0749C47.5601 10.535 47.0047 10.099 46.3753 9.79796C45.8886 9.56516 45.3668 9.4175 44.8326 9.36019ZM21.1661 40.7498C20.702 40.7498 20.2569 40.5655 19.9287 40.2373C19.6005 39.9091 19.4161 39.464 19.4161 38.9998C19.4161 38.5357 19.6005 38.0906 19.9287 37.7624C20.2569 37.4342 20.702 37.2498 21.1661 37.2498C21.6302 37.2498 22.0754 37.4342 22.4035 37.7624C22.7317 38.0906 22.9161 38.5357 22.9161 38.9998C22.9161 39.464 22.7317 39.9091 22.4035 40.2373C22.0754 40.5655 21.6302 40.7498 21.1661 40.7498ZM40.6661 40.7498C40.202 40.7498 39.7569 40.5655 39.4287 40.2373C39.1005 39.9091 38.9161 39.464 38.9161 38.9998C38.9161 38.5357 39.1005 38.0906 39.4287 37.7624C39.7569 37.4342 40.202 37.2498 40.6661 37.2498C41.1302 37.2498 41.5753 37.4342 41.9035 37.7624C42.2317 38.0906 42.4161 38.5357 42.4161 38.9998C42.4161 39.464 42.2317 39.9091 41.9035 40.2373C41.5753 40.5655 41.1302 40.7498 40.6661 40.7498ZM43.4345 17.3345L47.121 22.3332H42.5597L43.4345 17.3345Z" stroke="white" stroke-width="3"/>
<path d="M10 17.5001H20C20.7033 17.5001 21.4539 17.3644 22.085 17.0489C22.646 16.7684 23.5 16.1212 23.5 15.0001C23.5 13.879 22.646 13.2318 22.085 12.9514C21.4539 12.6358 20.7033 12.5001 20 12.5001H10C9.29673 12.5001 8.54609 12.6358 7.91497 12.9514C7.35402 13.2318 6.5 13.879 6.5 15.0001C6.5 16.1212 7.35402 16.7684 7.91497 17.0489C8.54609 17.3644 9.29673 17.5001 10 17.5001Z" stroke="white" stroke-width="3"/>
<path d="M22.5 21.0001C22.5 19.879 21.646 19.2318 21.085 18.9514C20.4539 18.6358 19.7033 18.5001 19 18.5001H11C10.2967 18.5001 9.54609 18.6358 8.91497 18.9514C8.35402 19.2318 7.5 19.879 7.5 21.0001C7.5 22.1212 8.35402 22.7684 8.91497 23.0489C9.54609 23.3644 10.2967 23.5001 11 23.5001H19C19.7033 23.5001 20.4539 23.3644 21.085 23.0489C21.646 22.7684 22.5 22.1212 22.5 21.0001Z" stroke="white" stroke-width="3"/>
<path d="M12 24.5001C11.2967 24.5001 10.5461 24.6358 9.91497 24.9514C9.35402 25.2318 8.5 25.879 8.5 27.0001C8.5 28.1212 9.35402 28.7684 9.91497 29.0489C10.5461 29.3644 11.2967 29.5001 12 29.5001H18C18.7033 29.5001 19.4539 29.3644 20.085 29.0489C20.646 28.7684 21.5 28.1212 21.5 27.0001C21.5 25.879 20.646 25.2318 20.085 24.9514C19.4539 24.6358 18.7033 24.5001 18 24.5001H12Z" stroke="white" stroke-width="3"/>
</svg>
