<svg width="41" height="51" viewBox="0 0 41 51" fill="none" xmlns="http://www.w3.org/2000/svg">
<path fill-rule="evenodd" clip-rule="evenodd" d="M17.4441 33.9014C17.3105 33.9149 17.1768 33.9204 17.0436 33.9179C16.1861 33.9018 15.3488 33.5543 14.7021 32.8753C14.6915 32.8643 14.681 32.8531 14.6706 32.8418C14.6558 32.827 14.6411 32.8124 14.6266 32.7979C13.5049 31.6815 13.2185 31.6062 11.8742 31.2524C11.6862 31.2029 11.4775 31.148 11.2428 31.084C11.2236 31.0799 11.2043 31.0756 11.1852 31.0711C11.0973 31.0506 11.0109 31.0264 10.9259 30.9988C10.5116 30.8641 10.1335 30.6468 9.80682 30.362C9.63515 30.2124 9.47766 30.0441 9.33654 29.8594C9.04725 29.4807 8.82677 29.033 8.69402 28.5352C8.3864 27.3047 8.27654 26.7554 8.01286 26.294C7.74919 25.8326 7.33171 25.459 6.40886 24.5801C5.52995 23.6133 5.17839 22.295 5.52995 21.0645C5.83336 19.8509 5.98714 19.3213 5.99129 18.7905C5.99556 18.2449 5.84178 17.6982 5.52995 16.4063C5.17839 15.1758 5.52995 13.8575 6.40886 12.9785C7.34063 12.0468 7.75721 11.6526 8.02046 11.1741C8.27868 10.7047 8.38937 10.1542 8.69402 8.93558C9.04558 7.70511 10.0124 6.73831 11.2428 6.38675C12.4603 6.0389 12.9894 5.90616 13.4368 5.63735C13.8937 5.3628 14.2653 4.9463 15.1979 4.0137C16.0768 3.1348 17.3952 2.78324 18.6257 3.1348C19.8122 3.44242 20.3395 3.59622 20.8669 3.59622C21.3942 3.59622 21.9216 3.44242 23.1081 3.1348C24.3385 2.78324 25.6569 3.1348 26.5358 4.0137C27.4684 4.9463 27.84 5.3628 28.2969 5.63735C28.7443 5.90616 29.2734 6.0389 30.4909 6.38675C31.7214 6.73831 32.6882 7.70511 33.0397 8.93558C33.3444 10.1542 33.4551 10.7047 33.7133 11.1741C33.9765 11.6526 34.3931 12.0468 35.3249 12.9785C36.2038 13.8575 36.5553 15.1758 36.2038 16.4063C35.892 17.6982 35.7382 18.2449 35.7424 18.7905C35.7466 19.3213 35.9004 19.8509 36.2038 21.0645C36.5553 22.295 36.2038 23.6133 35.3249 24.5801C34.402 25.459 33.9845 25.8326 33.7209 26.294C33.4572 26.7554 33.3473 27.3047 33.0397 28.5352C32.907 29.033 32.6865 29.4807 32.3972 29.8594C32.2561 30.0441 32.0986 30.2124 31.9269 30.362C31.6064 30.6414 31.2365 30.8558 30.8315 30.991C30.7882 31.0055 30.7445 31.019 30.7003 31.0317C30.6314 31.0514 30.5616 31.0689 30.4909 31.084C30.2605 31.1498 30.0562 31.2061 29.8724 31.2566C28.5835 31.6113 28.3049 31.688 27.151 32.8418C27.126 32.8669 27.1007 32.8916 27.0752 32.9158C26.3857 33.5698 25.5418 33.9039 24.6901 33.918C24.5567 33.9202 24.4231 33.9146 24.2898 33.9011C23.8048 33.8519 23.3247 33.6987 22.8769 33.4414C22.8365 33.4182 22.7964 33.3941 22.7565 33.3692C22.2292 33.0176 21.526 32.8418 20.8229 32.8418C20.2077 32.8418 19.5046 33.0176 18.9772 33.3692C18.9374 33.3941 18.8972 33.4182 18.8568 33.4414C18.408 33.6993 17.927 33.8527 17.4441 33.9014ZM16.6382 36.6969C15.1273 36.6066 13.6514 36.0105 12.6038 34.9086C12.5895 34.8936 12.5753 34.8785 12.5612 34.8633C12.5501 34.8523 12.5393 34.8414 12.5287 34.8307C12.2301 34.5313 12.101 34.3908 11.9439 34.2972C11.744 34.178 11.4988 34.1348 10.801 33.9363C10.7502 33.9219 10.6971 33.9067 10.6414 33.8905C10.5928 33.8764 10.5422 33.8616 10.4896 33.846C10.4489 33.834 10.4071 33.8216 10.3639 33.8086C9.48503 33.6328 8.78191 33.1934 8.07878 32.666L4.1237 42.4219C3.68425 43.3887 4.47527 44.4434 5.44206 44.3555L10.1003 44.1797L13.2643 47.5196C13.9675 48.3106 15.1979 48.0469 15.5495 47.168L20.2077 35.918C19.678 36.2069 19.122 36.4167 18.5396 36.5473C18.0589 36.6551 17.5603 36.709 17.0436 36.709C16.9084 36.709 16.7731 36.705 16.6382 36.6969ZM20.8669 42.1678L18.3263 48.3035C17.1437 51.2163 13.2499 51.9567 11.0618 49.5568L8.85636 47.2288L5.613 47.3512C2.40976 47.5695 0.0616161 44.2441 1.36084 41.252L5.97295 29.8755C5.90584 29.6896 5.84654 29.5003 5.79531 29.3082L5.78927 29.2855L5.78359 29.2628C5.72819 29.0412 5.68235 28.8552 5.64289 28.695C5.56054 28.3608 5.50603 28.1396 5.45068 27.9444C5.42998 27.8713 5.41413 27.8209 5.40316 27.788C5.38183 27.7639 5.3496 27.7288 5.30298 27.6806C5.14738 27.5199 4.95048 27.3329 4.62715 27.0257C4.54093 26.9438 4.44571 26.8533 4.33989 26.7525L4.26169 26.678L4.18904 26.5981C2.68465 24.9433 1.9954 22.5914 2.62989 20.2954C2.67425 20.1182 2.71325 19.9637 2.7478 19.8269C2.83919 19.465 2.89936 19.2267 2.9448 19.0182C2.97838 18.8641 2.98834 18.7921 2.991 18.7672C2.9886 18.7418 2.97858 18.6622 2.94084 18.4836C2.89443 18.264 2.83272 18.0108 2.74059 17.6327C2.70679 17.494 2.66889 17.3385 2.62614 17.1617C2.0074 14.9028 2.65522 12.4895 4.28754 10.8572C4.38311 10.7617 4.47027 10.6747 4.55013 10.595C4.88645 10.2593 5.09343 10.0527 5.25534 9.87757C5.32691 9.80017 5.36834 9.75116 5.39015 9.72412C5.40163 9.69162 5.42145 9.63129 5.44984 9.53076C5.5053 9.33432 5.5598 9.11311 5.64147 8.78157C5.68129 8.61991 5.72758 8.43202 5.78359 8.20797L5.79571 8.15948L5.80944 8.11142C6.44576 5.88432 8.19159 4.13849 10.4187 3.50218C10.5767 3.45703 10.7169 3.41719 10.8425 3.38151C11.249 3.26603 11.5025 3.19401 11.7114 3.12603C11.8056 3.0954 11.8618 3.07444 11.8917 3.06252C11.9198 3.03902 11.9761 2.98992 12.0714 2.89854C12.2138 2.76205 12.3619 2.61234 12.5698 2.40234C12.7074 2.26333 12.8711 2.0979 13.0766 1.89238C14.7156 0.253341 17.142 -0.393073 19.409 0.238701C19.5436 0.273637 19.6649 0.305255 19.7751 0.333972C20.1759 0.438484 20.4294 0.504566 20.6442 0.552307C20.7704 0.580351 20.8377 0.591096 20.8669 0.594954C20.896 0.591096 20.9633 0.58035 21.0895 0.552307C21.3043 0.504567 21.5578 0.438485 21.9587 0.333975C22.0688 0.305258 22.1901 0.27364 22.3247 0.238704C24.5917 -0.393075 27.0181 0.253338 28.6571 1.89238C28.8626 2.09788 29.0263 2.26331 29.1639 2.40231C29.3718 2.61233 29.5199 2.76204 29.6623 2.89854C29.7577 2.98992 29.8139 3.03902 29.8421 3.06252C29.872 3.07444 29.9281 3.0954 30.0223 3.12603C30.2312 3.19401 30.4847 3.26603 30.8912 3.38151C31.0168 3.41719 31.157 3.45703 31.3151 3.50218C33.5421 4.13849 35.288 5.88432 35.9243 8.11142L35.938 8.15948L35.9501 8.20797C36.0062 8.43203 36.0524 8.61993 36.0923 8.7816C36.1739 9.11312 36.2284 9.33433 36.2839 9.53076C36.3123 9.63129 36.3321 9.69162 36.3436 9.72412C36.3654 9.75117 36.4068 9.80017 36.4784 9.87757C36.6403 10.0527 36.8473 10.2593 37.1836 10.595C37.2635 10.6747 37.3506 10.7617 37.4462 10.8572C39.0785 12.4895 39.7263 14.9027 39.1076 17.1616C39.0649 17.3384 39.027 17.4939 38.9932 17.6326C38.901 18.0107 38.8393 18.2639 38.7929 18.4836C38.7551 18.6622 38.7451 18.7418 38.7427 18.7672C38.7454 18.7921 38.7554 18.8641 38.7889 19.0182C38.8344 19.2267 38.8945 19.465 38.9859 19.8269C39.0205 19.9637 39.0595 20.1182 39.1038 20.2955C39.7383 22.5914 39.0491 24.9433 37.5447 26.5981L37.472 26.678L37.3938 26.7525C37.288 26.8533 37.1928 26.9438 37.1066 27.0257C36.7832 27.3329 36.5864 27.5199 36.4308 27.6806C36.3841 27.7288 36.3519 27.7639 36.3306 27.788C36.3196 27.8209 36.3038 27.8713 36.2831 27.9444C36.2277 28.1396 36.1732 28.3608 36.0909 28.695C36.0514 28.8551 36.0056 29.0412 35.9501 29.2628L35.9445 29.2855L35.9384 29.3082C35.8872 29.5003 35.8279 29.6896 35.7608 29.8755L40.3729 41.252C41.6721 44.2441 39.324 47.5695 36.1207 47.3512L32.8774 47.2288L30.6719 49.5568C28.4837 51.9567 24.5898 51.2163 23.4073 48.3033L20.8669 42.1678ZM26.1842 47.168C26.5358 48.0469 27.7663 48.3106 28.4694 47.5196L31.6335 44.1797L36.2917 44.3555C37.2585 44.4434 38.0495 43.3887 37.61 42.4219L33.655 32.666C32.9518 33.1934 32.2487 33.6328 31.4577 33.8086C31.3971 33.8251 31.3389 33.8409 31.2829 33.8559C31.2175 33.8735 31.1551 33.89 31.0955 33.9057C31.0403 33.9202 30.9876 33.934 30.9371 33.947C30.1931 34.1398 29.9508 34.1817 29.7595 34.3036C29.6073 34.4007 29.4874 34.5484 29.1725 34.8633C28.1225 35.9941 26.6271 36.6053 25.0956 36.6969C24.9606 36.705 24.8254 36.709 24.6901 36.709C24.1735 36.709 23.6748 36.6551 23.1941 36.5473C22.6117 36.4167 22.0557 36.2069 21.526 35.918L26.1842 47.168ZM38.7423 18.7721C38.7422 18.7749 38.7421 18.7766 38.7421 18.7768L38.7423 18.7721ZM2.99167 18.7768C2.99162 18.7767 2.99149 18.775 2.99142 18.7721L2.99167 18.7768ZM20.9108 12.9903C17.9503 12.9903 15.5612 15.3853 15.5612 18.4278C15.5612 21.4703 17.9503 23.8653 20.9108 23.8653C23.7629 23.8653 26.1725 21.4912 26.1725 18.4278C26.1725 15.3644 23.7629 12.9903 20.9108 12.9903ZM20.9108 9.99027C16.2526 9.99027 12.5612 13.7696 12.5612 18.4278C12.5612 23.086 16.2526 26.8653 20.9108 26.8653C25.4811 26.8653 29.1725 23.086 29.1725 18.4278C29.1725 13.7696 25.4811 9.99027 20.9108 9.99027Z" fill="white"/>
</svg>
