<svg width="40" height="52" viewBox="0 0 40 52" fill="none" xmlns="http://www.w3.org/2000/svg">
<path d="M7.37556 31.613L6.50922 30.9633L5.77739 32.7684L1.83204 42.5003C0.960113 44.4812 2.53127 46.6745 4.61979 46.5191L8.56704 46.3702L11.2504 49.2027C12.6959 50.8 15.26 50.2982 16.027 48.4008L19.9556 38.9129L23.8842 48.4008C24.6512 50.2982 27.2154 50.8 28.6608 49.2026L31.3441 46.3702L35.2914 46.5191C37.3799 46.6745 38.9511 44.4812 38.0791 42.5003L34.1338 32.7684L33.402 30.9633L32.5356 31.613C33.0183 31.0366 33.3758 30.3452 33.5778 29.5876L33.5808 29.5763L33.5837 29.5649C33.6334 29.3658 33.6766 29.1906 33.7152 29.0341C33.8024 28.6801 33.866 28.4223 33.9286 28.2012C34.0131 27.9033 34.067 27.7828 34.112 27.7041C34.2361 27.4869 34.4224 27.3091 35.4481 26.3323L35.4872 26.295L35.5235 26.2551C36.7153 24.9441 37.2359 23.1084 36.7422 21.3445C36.7105 21.2178 36.6811 21.1006 36.6539 20.9921C36.3935 19.9534 36.3311 19.7042 36.3311 19.4343C36.3311 19.1579 36.3969 18.8862 36.656 17.8153C36.6832 17.7032 36.7124 17.5824 36.744 17.4518C37.2299 15.7066 36.7304 13.8399 35.4743 12.5838C34.4578 11.5674 34.253 11.362 34.1194 11.1227C33.9994 10.9076 33.9431 10.6816 33.7022 9.71323C33.6669 9.57141 33.6276 9.41367 33.5837 9.23771L33.5776 9.21347L33.5707 9.18944C33.0768 7.46065 31.7205 6.10434 29.9917 5.6104L29.8466 5.56896C28.6125 5.21645 28.3715 5.14761 28.1523 5.01394C28.0632 4.95964 27.9482 4.8727 27.7131 4.64734C27.5579 4.49864 27.3885 4.32747 27.1661 4.1029C27.029 3.96434 26.8717 3.80546 26.6852 3.61898C25.4259 2.35973 23.5531 1.86082 21.8041 2.35296C21.7573 2.36509 21.7118 2.37688 21.6677 2.38833C20.4911 2.69348 20.2263 2.76216 19.9556 2.76216C19.6849 2.76216 19.42 2.69348 18.2435 2.38833C18.1993 2.37688 18.1539 2.36509 18.1071 2.35297C16.3581 1.86082 14.4852 2.35972 13.226 3.61898C13.0395 3.80543 12.8823 3.9643 12.7451 4.10284C12.5227 4.32744 12.3532 4.49863 12.1981 4.64734C11.963 4.8727 11.848 4.95964 11.7589 5.01394C11.5397 5.14761 11.2987 5.21645 10.0646 5.56896C10.0176 5.58236 9.96931 5.59617 9.91948 5.6104C8.1907 6.10434 6.83439 7.46065 6.34045 9.18944L6.33359 9.21347L6.32752 9.23771C6.28353 9.41367 6.24429 9.57141 6.209 9.71323C5.96805 10.6816 5.91183 10.9076 5.79179 11.1227C5.65818 11.362 5.45337 11.5674 4.43692 12.5838C3.18084 13.8399 2.68128 15.7065 3.16721 17.4518C3.19874 17.5823 3.228 17.7032 3.25515 17.8154C3.51433 18.8862 3.5801 19.1579 3.5801 19.4343C3.5801 19.7042 3.51764 19.9533 3.25727 20.992C3.23006 21.1006 3.20068 21.2178 3.169 21.3445C2.67526 23.1084 3.19589 24.9441 4.38767 26.2551L4.424 26.295L4.4631 26.3323C5.48875 27.3091 5.67511 27.4869 5.79922 27.7041C5.84416 27.7828 5.89809 27.9033 5.98254 28.2012C6.04522 28.4223 6.10877 28.6802 6.19601 29.0342C6.23456 29.1906 6.27775 29.3658 6.32752 29.5649L6.33037 29.5763L6.33339 29.5876C6.53542 30.3452 6.89293 31.0366 7.37556 31.613ZM13.1499 19.0937C13.1499 15.2434 16.1902 12.1562 19.9995 12.1562C23.7107 12.1562 26.7613 15.2329 26.7613 19.0937C26.7613 22.9545 23.7107 26.0312 19.9995 26.0312C16.1902 26.0312 13.1499 22.944 13.1499 19.0937Z" stroke="white" stroke-width="3"/>
</svg>
