<svg width="54" height="54" viewBox="0 0 54 54" fill="none" xmlns="http://www.w3.org/2000/svg">
<path d="M33.75 3H33.6697L33.5898 3.00858C31.8413 3.19644 30.1763 3.85417 28.7716 4.91197C28.107 5.41239 27.5124 5.99352 27 6.63941C26.4876 5.99352 25.893 5.41239 25.2284 4.91197C23.8237 3.85417 22.1587 3.19644 20.4102 3.00858L20.3303 3H20.25C16.4059 3 13.6855 3.68066 11.9478 5.23978C10.1534 6.84986 9.75 9.07797 9.75 11.25C9.75 15.669 13.7705 19.5 20.25 19.5H33.75C40.2295 19.5 44.25 15.669 44.25 11.25C44.25 9.07797 43.8466 6.84986 42.0522 5.23978C40.3145 3.68066 37.5941 3 33.75 3ZM9 33H9.75V47.25C9.75 48.2446 10.1451 49.1984 10.8484 49.9016C11.5516 50.6049 12.5054 51 13.5 51H40.5C41.4946 51 42.4484 50.6049 43.1517 49.9016C43.8549 49.1984 44.25 48.2446 44.25 47.25V33H45C45.9946 33 46.9484 32.6049 47.6517 31.9016C48.3549 31.1984 48.75 30.2446 48.75 29.25V24.75C48.75 23.7554 48.3549 22.8016 47.6517 22.0984C46.9484 21.3951 45.9946 21 45 21H9C8.00544 21 7.05161 21.3951 6.34835 22.0983C5.64509 22.8016 5.25 23.7554 5.25 24.75V29.25C5.25 30.2446 5.64509 31.1984 6.34835 31.9016C7.05161 32.6049 8.00544 33 9 33ZM19.7583 43.5L25.7583 37.5H34.2417L28.2417 43.5H19.7583ZM33.6929 10.5778C33.7506 10.5347 33.7904 10.5117 33.8132 10.5C34.8797 10.5016 35.6254 10.5424 36.148 10.614C36.4113 10.65 36.5933 10.6907 36.7163 10.728C36.725 10.7306 36.7334 10.7332 36.7413 10.7358C36.7464 10.825 36.7494 10.9597 36.7499 11.1733C36.7168 11.2218 36.6192 11.3322 36.3629 11.4761C35.8858 11.7438 35.0314 12 33.75 12H32.5537C32.7143 11.735 32.8764 11.4924 33.0374 11.2783C33.3012 10.9276 33.5254 10.7028 33.6929 10.5778ZM36.765 11.1462C36.7652 11.1463 36.7643 11.1488 36.7618 11.1537C36.7635 11.1486 36.7648 11.1462 36.765 11.1462ZM20.1868 10.5C20.2096 10.5117 20.2494 10.5347 20.3071 10.5778C20.4746 10.7028 20.6988 10.9276 20.9626 11.2783C21.1236 11.4924 21.2857 11.735 21.4463 12H20.25C18.9686 12 18.1142 11.7438 17.6371 11.4761C17.3808 11.3322 17.2832 11.2218 17.2501 11.1733C17.2506 10.9597 17.2536 10.825 17.2587 10.7358C17.2666 10.7332 17.275 10.7306 17.2837 10.728C17.4067 10.6907 17.5887 10.65 17.852 10.614C18.3746 10.5424 19.1203 10.5016 20.1868 10.5ZM17.235 11.1462C17.2352 11.1462 17.2365 11.1486 17.2382 11.1537C17.2357 11.1488 17.2348 11.1463 17.235 11.1462Z" stroke="white" stroke-width="3"/>
</svg>
