<svg width="101" height="29" viewBox="0 0 101 29" fill="none" xmlns="http://www.w3.org/2000/svg">
<path fill-rule="evenodd" clip-rule="evenodd" d="M15.0354 0C14.9572 5.87815 14.5284 9.18186 12.1717 11.3865C9.81522 13.5911 6.28353 13.9925 0 14.0655V14.9345C6.28353 15.0076 9.81522 15.4089 12.1717 17.6135C14.5284 19.8181 14.9572 23.1219 15.0354 29H15.9646C16.0423 23.1219 16.4716 19.8181 18.8283 17.6135C21.1848 15.4087 24.7165 15.0076 31 14.9345V14.0655C24.7165 13.9924 21.1848 13.5911 18.8283 11.3865C16.4711 9.18186 16.0423 5.87815 15.9646 0H15.0354Z" fill="white"/>
<path d="M40.7793 28V23.512H53.2207V28H57V20.6024H54.8264V2H40.6122L40.2112 12.6787C40.0772 16.1453 39.6757 18.962 38.6055 20.6024H37V28H40.7793ZM43.7561 13.1739L44.0572 4.90958H50.7795V20.6024H42.4185C43.1207 19.1477 43.6225 16.6405 43.7561 13.1739Z" fill="white"/>
<path d="M64.0862 20.9447C62.0584 20.9447 60.0639 20.2295 59 19.4493V22.6024C59.7646 23.22 61.6927 24 64.5515 24C68.7732 24 71 22.1474 71 18.8642C71 16.9466 69.7703 15.6463 67.5765 15.1913C69.6373 14.5412 70.5017 13.1109 70.5017 11.2906C70.5017 8.52767 68.2744 7 64.6843 7C62.0917 7 60.3962 7.78018 59.4325 8.36527V11.5182C60.496 10.8355 61.9587 10.0555 64.1195 10.0555C65.5822 10.0555 66.5126 10.7382 66.5126 11.9407C66.5126 13.2084 65.7148 13.891 64.0862 13.891H61.5929V16.8165H64.0862C66.1138 16.8165 66.9116 17.4016 66.9116 18.8317C66.9116 20.132 65.9478 20.9447 64.0862 20.9447Z" fill="white"/>
<path d="M85.8294 22.5699V19.417C84.5657 20.2295 82.449 20.9447 80.4685 20.9447C77.4973 20.9447 76.3705 19.6119 76.1999 16.8815H86V14.8336C86 9.14528 83.3708 7 79.3073 7C74.3563 7 72 10.6081 72 15.5488C72 21.2371 74.9368 24 80.1266 24C82.7221 24 84.6345 23.3501 85.8294 22.5699ZM79.2392 10.0555C81.2539 10.0555 81.8683 11.6482 81.8683 13.696V14.0211H76.1999C76.3024 11.4206 77.2929 10.0555 79.2392 10.0555Z" fill="white"/>
<path d="M97.1033 8V13.9345H91.8968V8H88V23H91.8968V16.7376H97.1033V23H101V8H97.1033Z" fill="white"/>
</svg>
