<svg width="56" height="56" viewBox="0 0 56 56" fill="none" xmlns="http://www.w3.org/2000/svg">
<path d="M27.6878 13.8235C19.8437 13.8235 13.5165 20.1507 13.5165 27.9948C13.5165 35.8389 19.8437 42.166 27.6878 42.166C35.5319 42.166 41.859 35.8389 41.859 27.9948C41.859 20.1507 35.5319 13.8235 27.6878 13.8235ZM27.6878 37.2079C22.6187 37.2079 18.4746 33.0762 18.4746 27.9948C18.4746 22.9134 22.6064 18.7816 27.6878 18.7816C32.7692 18.7816 36.9009 22.9134 36.9009 27.9948C36.9009 33.0762 32.7569 37.2079 27.6878 37.2079V37.2079ZM45.7441 13.2439C45.7441 15.0816 44.2641 16.5493 42.4387 16.5493C40.601 16.5493 39.1333 15.0692 39.1333 13.2439C39.1333 11.4185 40.6133 9.93848 42.4387 9.93848C44.2641 9.93848 45.7441 11.4185 45.7441 13.2439ZM55.1299 16.5986C54.9203 12.1709 53.9089 8.24878 50.6652 5.01739C47.4338 1.78601 43.5117 0.774656 39.084 0.552652C34.5206 0.293647 20.8427 0.293647 16.2793 0.552652C11.8638 0.762322 7.94178 1.77367 4.69806 5.00506C1.45434 8.23645 0.45532 12.1585 0.233316 16.5863C-0.0256886 21.1497 -0.0256886 34.8276 0.233316 39.391C0.442986 43.8187 1.45434 47.7408 4.69806 50.9722C7.94178 54.2036 11.8515 55.2149 16.2793 55.4369C20.8427 55.6959 34.5206 55.6959 39.084 55.4369C43.5117 55.2272 47.4338 54.2159 50.6652 50.9722C53.8966 47.7408 54.9079 43.8187 55.1299 39.391C55.3889 34.8276 55.3889 21.162 55.1299 16.5986V16.5986ZM49.2345 44.2874C48.2725 46.7048 46.4101 48.5671 43.9804 49.5415C40.342 50.9845 31.7085 50.6515 27.6878 50.6515C23.6671 50.6515 15.0212 50.9722 11.3952 49.5415C8.9778 48.5795 7.11543 46.7171 6.14108 44.2874C4.69806 40.649 5.03107 32.0155 5.03107 27.9948C5.03107 23.9741 4.71039 15.3282 6.14108 11.7022C7.1031 9.2848 8.96547 7.42244 11.3952 6.44809C15.0336 5.00506 23.6671 5.33807 27.6878 5.33807C31.7085 5.33807 40.3543 5.01739 43.9804 6.44809C46.3978 7.4101 48.2601 9.27247 49.2345 11.7022C50.6775 15.3406 50.3445 23.9741 50.3445 27.9948C50.3445 32.0155 50.6775 40.6613 49.2345 44.2874Z" fill="white"/>
</svg>
