<svg width="57" height="40" viewBox="0 0 57 40" fill="none" xmlns="http://www.w3.org/2000/svg">
<path d="M54.915 6.35271C54.2792 3.95862 52.4058 2.07311 50.0272 1.43323C45.7159 0.270508 28.4277 0.270508 28.4277 0.270508C28.4277 0.270508 11.1397 0.270508 6.82818 1.43323C4.44958 2.07321 2.57622 3.95862 1.94039 6.35271C0.785156 10.6921 0.785156 19.7459 0.785156 19.7459C0.785156 19.7459 0.785156 28.7997 1.94039 33.1392C2.57622 35.5332 4.44958 37.3402 6.82818 37.9801C11.1397 39.1428 28.4277 39.1428 28.4277 39.1428C28.4277 39.1428 45.7158 39.1428 50.0272 37.9801C52.4058 37.3402 54.2792 35.5332 54.915 33.1392C56.0703 28.7997 56.0703 19.7459 56.0703 19.7459C56.0703 19.7459 56.0703 10.6921 54.915 6.35271ZM22.7735 27.9661V11.5258L37.223 19.7461L22.7735 27.9661Z" fill="white"/>
</svg>
