<svg width="17" height="17" viewBox="0 0 17 17" fill="none" xmlns="http://www.w3.org/2000/svg">
<g id="Union" filter="url(#filter0_dd_235_10575)">
<path d="M8.9432 9.42949C9.59282 9.79371 10.2681 9.63134 10.9234 8.93588L10.9186 8.92803L10.9174 8.9263L10.9158 8.92426C10.9009 8.92245 10.8859 8.92245 10.8711 8.92426C10.1073 9.02836 9.45448 8.80405 8.90701 8.26459C8.88502 8.23774 8.8555 8.21827 8.82221 8.20869C8.64046 8.1926 8.45799 8.18333 8.27592 8.17211C8.25425 8.42366 8.30568 8.67616 8.42408 8.89921C8.5424 9.12227 8.72266 9.30646 8.9432 9.42949Z" fill="url(#paint0_linear_235_10575)"/>
<path d="M6.50193 4.45697C6.94411 3.89662 7.64154 3.64538 8.21884 3.82832C8.82182 4.01926 9.22177 4.60693 9.15943 5.20833C8.97696 5.19703 8.79403 5.18823 8.61196 5.17175C8.58259 5.16931 8.55244 5.13799 8.52834 5.11427C7.9804 4.57481 7.32718 4.3505 6.5638 4.45657L6.54503 4.45744C6.5375 4.45767 6.52996 4.45775 6.52242 4.45759L6.50193 4.45697Z" fill="url(#paint1_linear_235_10575)"/>
<path d="M10.1424 6.17514L10.1555 6.20215C10.1817 6.25577 10.2093 6.31253 10.2388 6.37401C10.291 6.32557 10.3447 6.28003 10.3975 6.2352C10.4613 6.1811 10.5239 6.12795 10.5814 6.07166C10.6253 6.02887 10.6661 5.98435 10.7023 5.9363C11.0235 5.50817 11.0725 5.03105 10.8502 4.54341C10.5978 3.99068 10.0809 3.80979 9.53974 3.62889C9.54477 3.64782 9.55144 3.66627 9.55984 3.68393C10.0386 4.29939 10.1897 4.98198 9.98876 5.73892C9.97816 5.78163 9.98122 5.82662 9.99763 5.86752C10.0415 5.96692 10.0887 6.06467 10.1424 6.17514Z" fill="url(#paint2_linear_235_10575)"/>
<path d="M9.77253 7.81715C9.87782 7.66436 9.96952 7.52736 10.0668 7.39428C10.0825 7.37253 10.1021 7.35424 10.1245 7.34011C10.1382 7.33147 10.153 7.32441 10.1685 7.31907C10.9214 7.11085 11.4452 6.64739 11.7386 5.92303C11.7408 5.91966 11.7432 5.91644 11.7457 5.91338C11.7479 5.91079 11.7502 5.90827 11.7526 5.90584L11.758 5.90089C12.0257 6.40377 11.9006 7.23145 11.4967 7.63908C11.2948 7.84518 11.0326 7.98156 10.7479 8.02827C10.4633 8.07506 10.1711 8.02984 9.91401 7.8992C9.87138 7.87745 9.83063 7.85272 9.78902 7.82728L9.78431 7.82445L9.77253 7.81715Z" fill="url(#paint3_linear_235_10575)"/>
<path d="M7.30276 7.22587C7.27473 7.16816 7.24615 7.10928 7.2171 7.0482C6.69931 7.26811 6.37293 7.88271 6.47186 8.45671C6.58476 9.11277 7.1689 9.63943 7.88281 9.72783L7.88265 9.72414L7.88257 9.71943C7.88257 9.71661 7.88257 9.71386 7.88234 9.71127C7.8821 9.70773 7.88132 9.70452 7.87959 9.70208C7.3976 9.08262 7.24364 8.39642 7.44864 7.63265C7.45751 7.58962 7.4524 7.54487 7.43419 7.50483C7.39258 7.41155 7.34845 7.32017 7.30276 7.22587Z" fill="url(#paint4_linear_235_10575)"/>
<path d="M7.66093 5.56604L7.57088 5.69723C7.50171 5.79843 7.43623 5.89398 7.36871 5.98812C7.34728 6.02 7.31634 6.04418 7.28023 6.05729C6.50719 6.26307 5.98461 6.74388 5.66624 7.52453C5.63774 7.39593 5.60555 7.30949 5.60194 7.22187C5.59958 7.16879 5.59597 7.1154 5.59205 7.06186L5.58757 7.0018C5.57226 6.79916 5.5568 6.59573 5.59071 6.40141C5.74947 5.49333 6.8594 5.03466 7.62914 5.54272C7.64162 5.5508 7.65285 5.55999 7.66093 5.56604Z" fill="url(#paint5_linear_235_10575)"/>
<path d="M9.2286 7.0321C9.29612 6.93098 9.33208 6.81203 9.33192 6.69042C9.33239 6.6101 9.31692 6.53041 9.28646 6.45606C9.256 6.3817 9.21117 6.3141 9.15448 6.25718C9.12072 6.22319 9.08319 6.19343 9.0426 6.16839C9.01512 6.15143 8.98623 6.13659 8.95624 6.1241C8.88204 6.09325 8.80251 6.07739 8.72211 6.07739C8.60057 6.0766 8.48147 6.11193 8.37995 6.17898C8.27844 6.24596 8.19914 6.34158 8.15211 6.4537C8.10508 6.56582 8.09236 6.68947 8.11568 6.80881C8.13892 6.92815 8.19718 7.03791 8.28291 7.12412C8.36873 7.21033 8.47817 7.26913 8.59735 7.29308C8.67186 7.308 8.7481 7.30886 8.82221 7.29614C8.86673 7.28845 8.91046 7.27588 8.95262 7.25845C9.02776 7.22744 9.09552 7.18198 9.15244 7.12498C9.1807 7.09672 9.20622 7.06563 9.2286 7.0321Z" fill="url(#paint6_linear_235_10575)"/>
<path fill-rule="evenodd" clip-rule="evenodd" d="M6.78858 15.7652H10.6476C10.9925 15.6168 10.9863 15.3365 10.9801 15.0575C10.9793 15.0245 10.9786 14.9914 10.9784 14.9586C10.9783 14.9395 10.9784 14.9205 10.9788 14.9017C10.9793 14.8821 10.9801 14.8627 10.9813 14.8435C11.0556 14.8392 11.1289 14.8367 11.2015 14.8343C11.3596 14.829 11.5136 14.8238 11.6647 14.8001C12.2567 14.7077 12.7319 14.1866 12.7601 13.5897C12.7802 13.1636 12.7689 12.7363 12.7713 12.3098V12.1164H13.6416L13.7017 12.1166L13.8072 12.1174C13.9176 12.1182 14.0281 12.1191 14.1385 12.1164C14.4034 12.11 14.5883 11.9227 14.5971 11.6574V1.83048C14.5971 1.41641 14.4392 1.25883 14.0243 1.25883H12.7749C12.7749 1.21879 12.774 1.17985 12.773 1.14138L12.7728 1.13525C12.7721 1.10927 12.7715 1.08359 12.7711 1.05815C12.7704 1.00696 12.7709 0.956717 12.7749 0.906704C12.7979 0.627749 12.6921 0.430368 12.4288 0.324219H12.2178C11.952 0.427541 11.8483 0.626885 11.8676 0.90427C11.8741 1.01403 11.8676 1.12615 11.8676 1.24674H5.57101C5.57101 1.20835 5.57014 1.17004 5.5692 1.1318C5.56739 1.05564 5.56559 0.979878 5.57101 0.904663C5.59024 0.626885 5.48653 0.427934 5.22084 0.324219H5.01137C4.74772 0.430368 4.64236 0.627749 4.66528 0.906704C4.6729 1.02008 4.66528 1.13463 4.66528 1.25883H3.36692C3.01432 1.25923 2.83908 1.43329 2.83908 1.78502V11.5935C2.83908 11.938 3.01636 12.116 3.35766 12.116H4.66693C4.66693 12.5116 4.66128 12.8923 4.66693 13.2729C4.66332 13.4482 4.67761 13.6232 4.70949 13.7955C4.77716 14.0838 4.93835 14.3416 5.16792 14.5286C5.39749 14.7157 5.68257 14.8214 5.97856 14.8294C6.07718 14.8318 6.17595 14.8311 6.28155 14.8303L6.30102 14.8301L6.38086 14.8296L6.45451 14.8294C6.45451 14.8478 6.45474 14.866 6.45514 14.8841L6.45686 14.9433C6.45922 15.0167 6.46142 15.0882 6.45451 15.159C6.42679 15.4404 6.5269 15.6446 6.78858 15.7652ZM5.33335 8.95189C4.8863 8.28273 4.6477 7.49603 4.64762 6.69128C4.64723 4.447 6.48065 2.61632 8.72454 2.62032C9.5293 2.62166 10.3157 2.86143 10.9842 3.30943C11.6528 3.7575 12.1734 4.39361 12.4806 5.13751C12.7877 5.88134 12.8674 6.6996 12.7096 7.48873C12.5519 8.27794 12.1637 9.00261 11.5943 9.57128C11.0247 10.1399 10.2995 10.5269 9.51014 10.6836C8.7207 10.8401 7.9026 10.7592 7.15916 10.451C6.4158 10.1428 5.7804 9.62114 5.33335 8.95189ZM5.5798 12.1249H11.8665L11.8644 12.6864C11.8644 12.77 11.8649 12.8537 11.8654 12.9373C11.8662 13.1047 11.8671 13.2722 11.8644 13.4398C11.8592 13.7465 11.6783 13.9246 11.374 13.9274H10.9772V13.5351C10.9728 13.2412 10.7872 13.0527 10.4948 13.0527C9.30954 13.051 8.12408 13.051 6.93854 13.0527C6.64467 13.0527 6.45977 13.2395 6.45616 13.5322V13.9189C6.40049 13.9189 6.34569 13.9203 6.29159 13.9217C6.17202 13.9248 6.05566 13.9278 5.9408 13.9153C5.75386 13.8944 5.58946 13.7393 5.5842 13.558C5.57101 13.0828 5.5798 12.6073 5.5798 12.1249ZM4.10572 2.38832C4.13886 2.36743 4.17442 2.35102 4.2114 2.3394C4.2589 2.32449 4.30876 2.3175 4.35901 2.31883C4.38342 2.3197 4.40753 2.32252 4.43116 2.32715C4.45558 2.33202 4.47944 2.33885 4.50261 2.34757C4.52121 2.35448 4.53935 2.36264 4.55686 2.37199C4.59925 2.3946 4.6382 2.42396 4.67196 2.45929C4.75392 2.54511 4.79915 2.65966 4.79797 2.77837C4.79632 2.86779 4.76814 2.95471 4.71702 3.02812C4.70784 3.04131 4.69802 3.05395 4.68758 3.06604C4.67431 3.08127 4.66002 3.09564 4.64487 3.10898C4.62642 3.12524 4.60671 3.13992 4.58591 3.15295C4.5801 3.15664 4.57421 3.16017 4.56816 3.16355C4.55819 3.16912 4.54791 3.17431 4.53754 3.17917C4.52875 3.18326 4.51988 3.1871 4.51077 3.19064C4.46916 3.20681 4.42566 3.2167 4.3817 3.22016C4.33749 3.22361 4.29274 3.22055 4.24893 3.21089C4.16163 3.1915 4.08201 3.14667 4.02022 3.08197C3.98128 3.04123 3.95058 2.99388 3.92931 2.94238C3.91682 2.912 3.90756 2.8802 3.90183 2.84754C3.8928 2.7954 3.89296 2.74233 3.90222 2.69075C3.90858 2.65518 3.91918 2.62032 3.93402 2.58695C3.96095 2.52618 4.00091 2.4724 4.05077 2.42914C4.06796 2.41423 4.08633 2.40056 4.10572 2.38832ZM13.463 2.51637C13.4761 2.53537 13.4875 2.55531 13.4974 2.57588C13.5035 2.58844 13.5089 2.60124 13.5137 2.61428C13.5317 2.6628 13.5414 2.7143 13.5419 2.76667C13.5427 2.88616 13.4963 3.00111 13.4128 3.08661C13.3294 3.17211 13.2155 3.22126 13.0961 3.2233C13.057 3.22385 13.0182 3.21929 12.9806 3.20987C12.9324 3.19786 12.8862 3.17784 12.844 3.15044C12.769 3.10176 12.7102 3.03188 12.6749 2.94968C12.6397 2.86756 12.6295 2.7768 12.6459 2.68886C12.6623 2.60093 12.7044 2.5199 12.7668 2.45592C12.8293 2.39193 12.9093 2.34796 12.9968 2.32943C13.0843 2.31098 13.1753 2.31891 13.2583 2.35212C13.3412 2.38541 13.4125 2.44257 13.463 2.51637ZM4.78533 10.5017C4.79381 10.5354 4.79836 10.5702 4.79876 10.6054L4.79797 10.6046C4.79805 10.7232 4.75204 10.8373 4.66976 10.9228C4.5874 11.0083 4.47513 11.0585 4.35657 11.0629C4.26707 11.0647 4.17898 11.04 4.1036 10.9918C4.02815 10.9435 3.96872 10.874 3.93292 10.792C3.9107 10.7413 3.89822 10.6872 3.89562 10.6325C3.89405 10.5987 3.89625 10.5646 3.9023 10.5309C3.91816 10.4428 3.95985 10.3614 4.02211 10.2971C4.08429 10.2327 4.16429 10.1883 4.25176 10.1694C4.26691 10.1661 4.28214 10.1637 4.29745 10.162C4.31896 10.1597 4.34056 10.1588 4.36215 10.1595C4.39261 10.1606 4.42292 10.1647 4.45259 10.1718C4.47332 10.1768 4.49373 10.1832 4.51368 10.1911C4.5969 10.2242 4.66842 10.2812 4.71914 10.3549C4.75 10.3997 4.7723 10.4495 4.78533 10.5017ZM12.8443 10.2322C12.9195 10.1835 13.0074 10.1582 13.0969 10.1596L13.0961 10.1588C13.2149 10.162 13.3278 10.2112 13.411 10.2962C13.4942 10.3811 13.5411 10.495 13.5419 10.6138C13.5415 10.7034 13.5144 10.7907 13.4641 10.8649C13.4139 10.939 13.3427 10.9965 13.2597 11.0301C13.2119 11.0495 13.1613 11.0604 13.1103 11.0627C13.0728 11.0644 13.035 11.0614 12.9979 11.0537C12.9103 11.0354 12.83 10.9915 12.7673 10.9276C12.7581 10.9182 12.7494 10.9084 12.7411 10.8983C12.7231 10.8764 12.7072 10.8528 12.6937 10.8281C12.6709 10.7866 12.6547 10.7414 12.6459 10.6944C12.6372 10.6478 12.636 10.6005 12.6419 10.554L12.6439 10.5402C12.6477 10.5167 12.6533 10.4934 12.6608 10.4706C12.6649 10.458 12.6696 10.4455 12.6749 10.4332C12.7102 10.3509 12.7692 10.281 12.8443 10.2322Z" fill="url(#paint7_linear_235_10575)"/>
<path d="M15.7018 3.52518C15.9926 3.5379 16.2786 3.55038 16.4362 3.19315V2.95196C16.238 2.61867 15.9498 2.52304 15.5116 2.64364V3.5207C15.5744 3.5196 15.6382 3.52243 15.7018 3.52518Z" fill="url(#paint8_linear_235_10575)"/>
<path d="M16.4362 5.00208C16.2327 5.3612 16.1123 5.35437 15.5248 5.32076L15.5116 5.32006V4.45257C15.9498 4.33197 16.238 4.4276 16.4362 4.76089V5.00208Z" fill="url(#paint9_linear_235_10575)"/>
<path d="M15.5248 7.12969C16.1123 7.1633 16.2327 7.17013 16.4362 6.81101V6.56982C16.238 6.23653 15.9498 6.14091 15.5116 6.2615V7.12899L15.5248 7.12969Z" fill="url(#paint10_linear_235_10575)"/>
<path d="M16.4362 8.61994C16.2786 8.97717 15.9926 8.96469 15.7018 8.95197C15.6382 8.94922 15.5744 8.9464 15.5116 8.9475V8.07043C15.9498 7.94984 16.238 8.04547 16.4362 8.37875V8.61994Z" fill="url(#paint11_linear_235_10575)"/>
<path d="M15.7018 10.7609C15.9926 10.7736 16.2786 10.7861 16.4362 10.4289V10.1877C16.238 9.8544 15.9498 9.75877 15.5116 9.87936V10.7564C15.5744 10.7553 15.6382 10.7582 15.7018 10.7609Z" fill="url(#paint12_linear_235_10575)"/>
<path d="M1 2.95196C1.15773 2.5952 1.4436 2.60744 1.73464 2.61993C1.79808 2.62268 1.86183 2.62542 1.92456 2.62432V3.50147C1.48882 3.62206 1.19777 3.52557 1 3.19315V2.95196Z" fill="url(#paint13_linear_235_10575)"/>
<path d="M1.73464 4.42886C1.4436 4.41638 1.15773 4.40413 1 4.76089V5.00208C1.19777 5.3345 1.48882 5.43099 1.92456 5.3104V4.43326C1.86183 4.43436 1.79808 4.43161 1.73464 4.42886Z" fill="url(#paint14_linear_235_10575)"/>
<path d="M1.73464 6.23779C1.79808 6.24054 1.86183 6.24329 1.92456 6.24219V7.11933C1.48882 7.23993 1.19777 7.14343 1 6.81101V6.56982C1.15773 6.21306 1.4436 6.22531 1.73464 6.23779Z" fill="url(#paint15_linear_235_10575)"/>
<path d="M1.89685 8.05913C1.323 8.0267 1.20178 8.01987 1 8.37875V8.61994C1.19777 8.95236 1.48882 9.04886 1.92456 8.92826V8.06078L1.89685 8.05913Z" fill="url(#paint16_linear_235_10575)"/>
<path d="M1 10.1877C1.20178 9.8288 1.323 9.83563 1.89685 9.86806L1.92456 9.86971V10.7372C1.48882 10.8578 1.19777 10.7613 1 10.4289V10.1877Z" fill="url(#paint17_linear_235_10575)"/>
</g>
<defs>
<filter id="filter0_dd_235_10575" x="0.876549" y="0.208365" width="15.6832" height="15.9187" filterUnits="userSpaceOnUse" color-interpolation-filters="sRGB">
<feFlood flood-opacity="0" result="BackgroundImageFix"/>
<feColorMatrix in="SourceAlpha" type="matrix" values="0 0 0 0 0 0 0 0 0 0 0 0 0 0 0 0 0 0 127 0" result="hardAlpha"/>
<feOffset dy="0.00759697"/>
<feGaussianBlur stdDeviation="0.0617254"/>
<feComposite in2="hardAlpha" operator="out"/>
<feColorMatrix type="matrix" values="0 0 0 0 1 0 0 0 0 1 0 0 0 0 1 0 0 0 0.17 0"/>
<feBlend mode="normal" in2="BackgroundImageFix" result="effect1_dropShadow_235_10575"/>
<feColorMatrix in="SourceAlpha" type="matrix" values="0 0 0 0 0 0 0 0 0 0 0 0 0 0 0 0 0 0 127 0" result="hardAlpha"/>
<feOffset dy="0.361786"/>
<feComposite in2="hardAlpha" operator="out"/>
<feColorMatrix type="matrix" values="0 0 0 0 0.262745 0 0 0 0 0.192157 0 0 0 0 0.47451 0 0 0 1 0"/>
<feBlend mode="normal" in2="effect1_dropShadow_235_10575" result="effect2_dropShadow_235_10575"/>
<feBlend mode="normal" in="SourceGraphic" in2="effect2_dropShadow_235_10575" result="shape"/>
</filter>
<linearGradient id="paint0_linear_235_10575" x1="8.71811" y1="0.324219" x2="8.71811" y2="15.7652" gradientUnits="userSpaceOnUse">
<stop stop-color="white"/>
<stop offset="0.432292" stop-color="white"/>
<stop offset="0.515625" stop-color="#D6D6D4"/>
</linearGradient>
<linearGradient id="paint1_linear_235_10575" x1="8.71811" y1="0.324219" x2="8.71811" y2="15.7652" gradientUnits="userSpaceOnUse">
<stop stop-color="white"/>
<stop offset="0.432292" stop-color="white"/>
<stop offset="0.515625" stop-color="#D6D6D4"/>
</linearGradient>
<linearGradient id="paint2_linear_235_10575" x1="8.71811" y1="0.324219" x2="8.71811" y2="15.7652" gradientUnits="userSpaceOnUse">
<stop stop-color="white"/>
<stop offset="0.432292" stop-color="white"/>
<stop offset="0.515625" stop-color="#D6D6D4"/>
</linearGradient>
<linearGradient id="paint3_linear_235_10575" x1="8.71811" y1="0.324219" x2="8.71811" y2="15.7652" gradientUnits="userSpaceOnUse">
<stop stop-color="white"/>
<stop offset="0.432292" stop-color="white"/>
<stop offset="0.515625" stop-color="#D6D6D4"/>
</linearGradient>
<linearGradient id="paint4_linear_235_10575" x1="8.71811" y1="0.324219" x2="8.71811" y2="15.7652" gradientUnits="userSpaceOnUse">
<stop stop-color="white"/>
<stop offset="0.432292" stop-color="white"/>
<stop offset="0.515625" stop-color="#D6D6D4"/>
</linearGradient>
<linearGradient id="paint5_linear_235_10575" x1="8.71811" y1="0.324219" x2="8.71811" y2="15.7652" gradientUnits="userSpaceOnUse">
<stop stop-color="white"/>
<stop offset="0.432292" stop-color="white"/>
<stop offset="0.515625" stop-color="#D6D6D4"/>
</linearGradient>
<linearGradient id="paint6_linear_235_10575" x1="8.71811" y1="0.324219" x2="8.71811" y2="15.7652" gradientUnits="userSpaceOnUse">
<stop stop-color="white"/>
<stop offset="0.432292" stop-color="white"/>
<stop offset="0.515625" stop-color="#D6D6D4"/>
</linearGradient>
<linearGradient id="paint7_linear_235_10575" x1="8.71811" y1="0.324219" x2="8.71811" y2="15.7652" gradientUnits="userSpaceOnUse">
<stop stop-color="white"/>
<stop offset="0.432292" stop-color="white"/>
<stop offset="0.515625" stop-color="#D6D6D4"/>
</linearGradient>
<linearGradient id="paint8_linear_235_10575" x1="8.71811" y1="0.324219" x2="8.71811" y2="15.7652" gradientUnits="userSpaceOnUse">
<stop stop-color="white"/>
<stop offset="0.432292" stop-color="white"/>
<stop offset="0.515625" stop-color="#D6D6D4"/>
</linearGradient>
<linearGradient id="paint9_linear_235_10575" x1="8.71811" y1="0.324219" x2="8.71811" y2="15.7652" gradientUnits="userSpaceOnUse">
<stop stop-color="white"/>
<stop offset="0.432292" stop-color="white"/>
<stop offset="0.515625" stop-color="#D6D6D4"/>
</linearGradient>
<linearGradient id="paint10_linear_235_10575" x1="8.71811" y1="0.324219" x2="8.71811" y2="15.7652" gradientUnits="userSpaceOnUse">
<stop stop-color="white"/>
<stop offset="0.432292" stop-color="white"/>
<stop offset="0.515625" stop-color="#D6D6D4"/>
</linearGradient>
<linearGradient id="paint11_linear_235_10575" x1="8.71811" y1="0.324219" x2="8.71811" y2="15.7652" gradientUnits="userSpaceOnUse">
<stop stop-color="white"/>
<stop offset="0.432292" stop-color="white"/>
<stop offset="0.515625" stop-color="#D6D6D4"/>
</linearGradient>
<linearGradient id="paint12_linear_235_10575" x1="8.71811" y1="0.324219" x2="8.71811" y2="15.7652" gradientUnits="userSpaceOnUse">
<stop stop-color="white"/>
<stop offset="0.432292" stop-color="white"/>
<stop offset="0.515625" stop-color="#D6D6D4"/>
</linearGradient>
<linearGradient id="paint13_linear_235_10575" x1="8.71811" y1="0.324219" x2="8.71811" y2="15.7652" gradientUnits="userSpaceOnUse">
<stop stop-color="white"/>
<stop offset="0.432292" stop-color="white"/>
<stop offset="0.515625" stop-color="#D6D6D4"/>
</linearGradient>
<linearGradient id="paint14_linear_235_10575" x1="8.71811" y1="0.324219" x2="8.71811" y2="15.7652" gradientUnits="userSpaceOnUse">
<stop stop-color="white"/>
<stop offset="0.432292" stop-color="white"/>
<stop offset="0.515625" stop-color="#D6D6D4"/>
</linearGradient>
<linearGradient id="paint15_linear_235_10575" x1="8.71811" y1="0.324219" x2="8.71811" y2="15.7652" gradientUnits="userSpaceOnUse">
<stop stop-color="white"/>
<stop offset="0.432292" stop-color="white"/>
<stop offset="0.515625" stop-color="#D6D6D4"/>
</linearGradient>
<linearGradient id="paint16_linear_235_10575" x1="8.71811" y1="0.324219" x2="8.71811" y2="15.7652" gradientUnits="userSpaceOnUse">
<stop stop-color="white"/>
<stop offset="0.432292" stop-color="white"/>
<stop offset="0.515625" stop-color="#D6D6D4"/>
</linearGradient>
<linearGradient id="paint17_linear_235_10575" x1="8.71811" y1="0.324219" x2="8.71811" y2="15.7652" gradientUnits="userSpaceOnUse">
<stop stop-color="white"/>
<stop offset="0.432292" stop-color="white"/>
<stop offset="0.515625" stop-color="#D6D6D4"/>
</linearGradient>
</defs>
</svg>
