<svg width="19" height="19" viewBox="0 0 19 19" fill="none" xmlns="http://www.w3.org/2000/svg">
<g clip-path="url(#clip0_227_126)">
<g filter="url(#filter0_dd_227_126)">
<path d="M18.6565 9.44136V9.73284C18.5108 10.1341 18.2271 10.3119 17.804 10.2798C17.7015 10.2716 17.5985 10.2798 17.4955 10.2798H16.778C16.7474 10.84 16.7187 11.3734 16.6891 11.9189C17.0777 11.9189 17.4382 11.932 17.7996 11.9155C18.2217 11.8966 18.5103 12.0613 18.656 12.4615V12.789C18.486 13.1854 18.1839 13.3306 17.7588 13.3059C17.3488 13.2825 16.9368 13.301 16.5409 13.301C16.1139 15.2043 14.9669 16.3581 13.0592 16.7817C13.0592 17.2432 13.0626 17.7208 13.0592 18.1988C13.0553 18.5971 12.757 18.8964 12.3742 18.8978C12.2831 18.8979 12.1928 18.88 12.1086 18.8451C12.0245 18.8102 11.948 18.7591 11.8836 18.6946C11.8192 18.6301 11.7681 18.5536 11.7334 18.4693C11.6986 18.3851 11.6808 18.2948 11.681 18.2036C11.6737 17.9005 11.681 17.5974 11.681 17.2947V16.9294L10.056 17.0202C10.0518 17.0307 10.0484 17.0414 10.0458 17.0523C10.0458 17.4341 10.0458 17.8155 10.0405 18.1973C10.0351 18.5933 9.73589 18.8954 9.35454 18.8974C9.2634 18.8979 9.17305 18.8804 9.08872 18.8459C9.00439 18.8113 8.92775 18.7604 8.86323 18.696C8.79872 18.6316 8.74761 18.5551 8.71287 18.4708C8.67813 18.3866 8.66043 18.2962 8.66082 18.2051C8.65499 17.865 8.66082 17.525 8.66082 17.1849V17.0149C8.36497 16.9998 8.09876 16.9872 7.83497 16.9726C7.57118 16.9581 7.30691 16.942 7.0237 16.9241V17.1184C7.0237 17.4818 7.02904 17.8471 7.0237 18.209C7.02439 18.3782 6.9628 18.5418 6.85064 18.6686C6.73848 18.7954 6.58361 18.8765 6.41552 18.8964C6.24744 18.9163 6.0779 18.8737 5.93921 18.7767C5.80052 18.6797 5.70237 18.535 5.66347 18.3703C5.64649 18.2811 5.63996 18.1903 5.64404 18.0997C5.64404 17.6528 5.64404 17.2053 5.64404 16.7803C3.73486 16.3499 2.58353 15.2029 2.1638 13.2976C1.71979 13.2976 1.26557 13.2976 0.811839 13.2976C0.721456 13.3004 0.631103 13.2911 0.543193 13.2699C0.387133 13.2259 0.251833 13.1277 0.161496 12.9931C0.0711579 12.8584 0.0316741 12.696 0.0501104 12.5349C0.0688611 12.3671 0.148402 12.212 0.273708 12.0989C0.399014 11.9858 0.561409 11.9224 0.730223 11.9209C1.0936 11.9097 1.45892 11.9175 1.82083 11.917H2.01515L1.91265 10.2774H1.72853C1.38848 10.2774 1.04842 10.2837 0.708365 10.2774C0.58987 10.2753 0.473947 10.2425 0.371914 10.1822C0.269881 10.1219 0.185223 10.0362 0.126203 9.93343C0.0671822 9.83066 0.0358164 9.71434 0.0351666 9.59583C0.0345167 9.47732 0.0646065 9.36066 0.122496 9.25725C0.25949 9.01435 0.476155 8.8997 0.754029 8.89922C1.13926 8.89922 1.52498 8.89922 1.91265 8.89922C1.94277 8.34104 1.97143 7.80715 2.00106 7.25966C1.56385 7.25966 1.14461 7.26549 0.727795 7.25966C0.637269 7.25918 0.547724 7.24088 0.464272 7.20579C0.380821 7.17071 0.305098 7.11953 0.241425 7.05518C0.177752 6.99083 0.127376 6.91457 0.0931749 6.83075C0.0589742 6.74693 0.0416174 6.6572 0.0420959 6.56668C0.0425744 6.47615 0.0608773 6.3866 0.0959621 6.30315C0.131047 6.2197 0.182225 6.14398 0.246575 6.0803C0.310925 6.01663 0.387188 5.96625 0.471006 5.93205C0.554824 5.89785 0.644557 5.8805 0.735083 5.88097C1.21262 5.87757 1.69015 5.88097 2.14923 5.88097C2.57284 3.96889 3.73001 2.82533 5.62995 2.39831C5.62995 1.93875 5.62995 1.46656 5.62995 0.994852C5.62995 0.796162 5.68727 0.620305 5.83301 0.488169C5.92434 0.405584 6.03996 0.349717 6.14489 0.281706H6.47232C6.88233 0.431817 7.04458 0.733495 7.01398 1.15614C7.00523 1.28244 7.01398 1.41021 7.01398 1.537V2.24723L8.65499 2.15444C8.65499 1.80419 8.66859 1.46559 8.65159 1.12845C8.62973 0.703861 8.79733 0.419672 9.202 0.278305H9.49347C9.903 0.426958 10.0687 0.723779 10.0395 1.15274C10.0259 1.35143 10.0395 1.55157 10.0395 1.75124V2.15444L11.6791 2.24383C11.6791 1.87171 11.6932 1.51028 11.6752 1.14982C11.6538 0.722322 11.8127 0.425501 12.2232 0.275391H12.5146C12.9183 0.416757 13.083 0.702404 13.0655 1.1265C13.048 1.5506 13.0616 1.98344 13.0616 2.38957C14.9766 2.81561 16.1221 3.97472 16.5438 5.87126C16.9645 5.87126 17.3886 5.88583 17.8108 5.86737C18.2329 5.84891 18.5205 6.01311 18.6604 6.41972V6.7112C18.555 6.85402 18.4734 7.02891 18.3374 7.12995C18.2227 7.21545 18.0459 7.24314 17.8943 7.24897C17.4979 7.26452 17.1 7.25383 16.6925 7.25383C16.7236 7.81201 16.7532 8.34638 16.7833 8.89339C17.1321 8.89339 17.4707 8.90651 17.8078 8.88999C18.2276 8.86959 18.5127 9.03815 18.6565 9.44136ZM15.392 9.59731C15.3963 8.45794 15.3206 7.31969 15.1656 6.19091C15.0296 5.17463 14.4797 4.4678 13.5907 4.00192C13.1724 3.78283 12.7055 3.75611 12.2508 3.70413C10.1662 3.45929 8.05894 3.48067 5.97972 3.76777C4.77349 3.93731 3.82182 4.76413 3.58864 5.8664C3.52986 6.14379 3.49148 6.42749 3.46136 6.70974C3.22575 8.79866 3.2617 10.8788 3.52111 12.9643C3.68968 14.3187 4.79341 15.2145 5.65375 15.3496C6.3052 15.4516 6.962 15.5342 7.61976 15.577C9.40166 15.6921 11.1792 15.643 12.9489 15.3719C13.9647 15.216 14.9694 14.2357 15.1272 13.2184C15.3136 12.0199 15.4021 10.8082 15.392 9.59536V9.59731Z" fill="url(#paint0_linear_227_126)"/>
<path d="M4.31927 9.65463C4.31587 8.41342 4.38389 7.25335 4.57869 6.10347C4.67876 5.5142 5.2792 4.9157 5.86847 4.8166C7.43516 4.55184 9.01448 4.5086 10.5967 4.58876C11.2851 4.62374 11.9715 4.70827 12.657 4.78939C13.4342 4.8817 14.0303 5.48165 14.143 6.25795C14.453 8.39545 14.4393 10.5305 14.1848 12.6704C14.0988 13.3914 13.7962 13.952 13.1301 14.2454C12.8285 14.378 12.4753 14.4076 12.1411 14.4504C10.6579 14.6389 9.16799 14.6569 7.67854 14.5563C7.05721 14.514 6.43685 14.4339 5.82038 14.3416C5.22139 14.2512 4.65059 13.5901 4.55148 12.9269C4.38878 11.8439 4.31114 10.7498 4.31927 9.65463ZM13.0267 9.3408C13.0267 9.11637 13.031 8.89242 13.0267 8.66847C13.0223 8.49164 12.9144 8.38331 12.7614 8.38622C12.6084 8.38913 12.5098 8.49941 12.5054 8.6777C12.5015 8.82878 12.5054 8.98035 12.5054 9.13191C12.5054 9.38015 12.5122 9.62888 12.501 9.87664C12.4855 10.2133 12.3198 10.3687 11.9846 10.3833C11.5634 10.4018 11.3774 10.2332 11.3706 9.81154C11.3643 9.43019 11.3706 9.04836 11.3657 8.66652C11.3628 8.48386 11.2603 8.38136 11.1049 8.3799C10.9494 8.37845 10.8401 8.48969 10.8386 8.67915C10.8386 9.09742 10.8318 9.51521 10.8386 9.93299C10.8488 10.3998 11.1039 10.7239 11.5605 10.8021C11.8105 10.8439 12.0658 10.8429 12.3155 10.7992C12.7634 10.719 13.0019 10.4134 13.0223 9.95825C13.0344 9.75276 13.0267 9.5463 13.0267 9.3408ZM8.92218 9.95534H9.35939C9.49882 9.95534 9.63824 9.95533 9.77718 9.94999C10.1993 9.92667 10.5059 9.66434 10.551 9.2932C10.6113 8.79769 10.2984 8.41245 9.79078 8.38573C9.44052 8.36727 9.08881 8.37407 8.73758 8.37845C8.51363 8.38136 8.39752 8.50524 8.39752 8.73745C8.39461 9.31846 8.39461 9.89979 8.39752 10.4814C8.39752 10.6695 8.50342 10.7856 8.66082 10.7841C8.81822 10.7826 8.91635 10.6695 8.92024 10.4766C8.92509 10.3095 8.92218 10.1414 8.92218 9.95534ZM5.66347 9.5565C5.66736 9.64151 5.66833 9.70224 5.67367 9.76247C5.71739 10.2594 6.09485 10.6855 6.59668 10.8103C7.12814 10.94 7.68 10.7516 7.9365 10.3522C8.05163 10.173 8.03366 10.0078 7.89424 9.92327C7.75481 9.83874 7.63434 9.90093 7.50123 10.0646C7.40791 10.1873 7.28485 10.2841 7.14368 10.3459C7.0155 10.3976 6.87418 10.4072 6.7402 10.3732C6.60622 10.3392 6.48654 10.2635 6.39848 10.1569C6.15558 9.88732 6.13323 9.5667 6.2576 9.2383C6.36447 8.95606 6.58502 8.80886 6.8833 8.78894C7.00774 8.77606 7.13326 8.79932 7.24483 8.85592C7.3564 8.91252 7.4493 9.00008 7.5124 9.10811C7.53005 9.14017 7.55433 9.16808 7.58363 9.19C7.61293 9.21191 7.64658 9.22732 7.68231 9.23518C7.71804 9.24304 7.75505 9.24319 7.79084 9.2356C7.82663 9.22801 7.86039 9.21287 7.88986 9.19118C8.0118 9.10762 8.0356 8.96771 7.93844 8.8244C7.88261 8.73809 7.81379 8.66091 7.73441 8.5956C7.31129 8.26623 6.84201 8.23174 6.36641 8.44597C5.89082 8.66021 5.67416 9.06293 5.66347 9.5565Z" fill="url(#paint1_linear_227_126)"/>
<path d="M8.92315 9.4812C8.92315 9.29125 8.91683 9.11637 8.92801 8.94245C8.93473 8.91792 8.94765 8.89552 8.96551 8.8774C8.98337 8.85928 9.00559 8.84605 9.03003 8.83898C9.26515 8.83315 9.50173 8.83169 9.73637 8.84918C9.93652 8.86424 10.0312 8.97209 10.0356 9.14697C10.0391 9.18798 10.0343 9.22927 10.0214 9.26834C10.0085 9.30742 9.98776 9.34347 9.96051 9.37431C9.93326 9.40515 9.90003 9.43013 9.86284 9.44776C9.82565 9.46538 9.78527 9.47527 9.74414 9.47683C9.47987 9.49383 9.21463 9.4812 8.92315 9.4812Z" fill="url(#paint2_linear_227_126)"/>
</g>
</g>
<defs>
<filter id="filter0_dd_227_126" x="-3.03587" y="-2.60665" width="24.7673" height="24.7678" filterUnits="userSpaceOnUse" color-interpolation-filters="sRGB">
<feFlood flood-opacity="0" result="BackgroundImageFix"/>
<feColorMatrix in="SourceAlpha" type="matrix" values="0 0 0 0 0 0 0 0 0 0 0 0 0 0 0 0 0 0 127 0" result="hardAlpha"/>
<feOffset dy="0.188986"/>
<feGaussianBlur stdDeviation="1.53552"/>
<feComposite in2="hardAlpha" operator="out"/>
<feColorMatrix type="matrix" values="0 0 0 0 1 0 0 0 0 1 0 0 0 0 1 0 0 0 0.17 0"/>
<feBlend mode="normal" in2="BackgroundImageFix" result="effect1_dropShadow_227_126"/>
<feColorMatrix in="SourceAlpha" type="matrix" values="0 0 0 0 0 0 0 0 0 0 0 0 0 0 0 0 0 0 127 0" result="hardAlpha"/>
<feOffset dy="0.429184"/>
<feComposite in2="hardAlpha" operator="out"/>
<feColorMatrix type="matrix" values="0 0 0 0 0.262745 0 0 0 0 0.192157 0 0 0 0 0.47451 0 0 0 1 0"/>
<feBlend mode="normal" in2="effect1_dropShadow_227_126" result="effect2_dropShadow_227_126"/>
<feBlend mode="normal" in="SourceGraphic" in2="effect2_dropShadow_227_126" result="shape"/>
</filter>
<linearGradient id="paint0_linear_227_126" x1="9.34779" y1="0.275391" x2="9.34779" y2="18.9012" gradientUnits="userSpaceOnUse">
<stop stop-color="white"/>
<stop offset="0.432292" stop-color="white"/>
<stop offset="0.515625" stop-color="#D6D6D4"/>
</linearGradient>
<linearGradient id="paint1_linear_227_126" x1="9.34779" y1="0.275391" x2="9.34779" y2="18.9012" gradientUnits="userSpaceOnUse">
<stop stop-color="white"/>
<stop offset="0.432292" stop-color="white"/>
<stop offset="0.515625" stop-color="#D6D6D4"/>
</linearGradient>
<linearGradient id="paint2_linear_227_126" x1="9.34779" y1="0.275391" x2="9.34779" y2="18.9012" gradientUnits="userSpaceOnUse">
<stop stop-color="white"/>
<stop offset="0.432292" stop-color="white"/>
<stop offset="0.515625" stop-color="#D6D6D4"/>
</linearGradient>
<clipPath id="clip0_227_126">
<rect width="18.6545" height="18.6545" fill="white" transform="translate(0 0.275391)"/>
</clipPath>
</defs>
</svg>
