<svg width="14" height="19" viewBox="0 0 14 19" fill="none" xmlns="http://www.w3.org/2000/svg">
<g id="Union" filter="url(#filter0_dd_235_10583)">
<path d="M9.89134 7.88786C9.76285 7.87731 9.6324 7.88786 9.49383 7.88786L9.49337 9.41286C9.61803 9.41286 9.73085 9.41622 9.84357 9.41286C10.0052 9.4068 10.1249 9.34101 10.1885 9.22689C10.2201 9.16997 10.2377 9.10111 10.2396 9.0216C10.2436 8.871 10.2452 8.72039 10.2444 8.56979C10.2439 8.46985 10.2423 8.36991 10.2396 8.27007C10.2344 8.05078 10.1063 7.90932 9.89134 7.88786Z" fill="url(#paint0_linear_235_10583)"/>
<path fill-rule="evenodd" clip-rule="evenodd" d="M12.1602 16.0618V17.8071C13.1582 17.9614 13.6943 17.3074 13.6934 16.5444C13.6809 12.9753 13.6823 9.40652 13.6838 5.83769L13.6848 2.24218C13.6842 1.47393 13.2118 1 12.4474 1H1.92899C1.17176 1.00047 0.694003 1.47393 0.694003 2.22781V16.6013C0.690644 16.7146 0.700442 16.8279 0.723117 16.939C0.874563 17.5792 1.47699 17.9332 2.21565 17.8057V16.0776C2.21565 15.6462 2.32454 15.5354 2.75453 15.5354H11.6242C11.6591 15.5343 11.694 15.5344 11.7289 15.5356L11.7552 15.5366C11.7771 15.5376 11.799 15.5391 11.821 15.5411C11.8963 15.5454 11.9683 15.5745 12.0254 15.6238C12.0826 15.6731 12.1219 15.7399 12.1373 15.8139C12.155 15.8953 12.1627 15.9786 12.1602 16.0618ZM8.71794 9.76306C8.71458 9.3928 8.71794 9.02254 8.71794 8.65227L8.71747 7.56201C8.7199 7.26005 8.85744 7.12344 9.15558 7.12055C9.3827 7.11868 9.60963 7.11868 9.83638 7.12055C10.4604 7.12633 10.9409 7.54102 10.9945 8.1621C11.0241 8.51202 11.02 8.864 10.9821 9.21317C10.9247 9.74254 10.4651 10.1462 9.93529 10.1687C9.79393 10.1748 9.65228 10.1767 9.51063 10.1765C9.38363 10.1764 9.25663 10.1748 9.12973 10.173C8.86127 10.1692 8.7213 10.0315 8.71794 9.76306ZM4.41829 9.41538C4.573 9.41594 4.72837 9.41669 4.88485 9.41669L4.88532 9.03066H4.20124C3.67468 9.02776 3.3661 8.72347 3.36274 8.19793C3.3619 8.17713 3.36134 8.15632 3.36097 8.13551C3.36003 8.08428 3.3605 8.03305 3.36237 7.98192C3.3647 7.91669 3.36927 7.85156 3.37608 7.78661C3.3968 7.60344 3.48442 7.43445 3.62215 7.31212C3.70184 7.24139 3.79506 7.18913 3.89518 7.15787C3.96815 7.13511 4.04476 7.12344 4.1224 7.12391C4.49835 7.11868 4.87487 7.11962 5.25082 7.12391C5.49549 7.12727 5.65505 7.29066 5.65309 7.50948C5.65123 7.72829 5.49829 7.87834 5.25941 7.88263C5.12532 7.88431 4.99113 7.8845 4.85695 7.88422L4.70784 7.88375C4.58718 7.88319 4.46653 7.88263 4.34597 7.88263H4.14339V8.26764H4.84566C5.33779 8.27007 5.6488 8.57968 5.65505 9.07367V9.07703L5.65655 9.20207C5.6572 9.29053 5.65655 9.37918 5.65169 9.46736C5.64357 9.65146 5.56678 9.82577 5.43642 9.95594C5.30606 10.0862 5.13157 10.1627 4.94746 10.1706C4.6303 10.1805 4.31275 10.1798 3.9954 10.1763L3.74737 10.173C3.71705 10.1737 3.68691 10.1707 3.65742 10.1642C3.63876 10.1601 3.62037 10.1545 3.60246 10.1475C3.57652 10.1374 3.55188 10.1245 3.52902 10.109C3.51111 10.0968 3.49422 10.0831 3.47863 10.068C3.45922 10.0492 3.44196 10.0284 3.42712 10.0061C3.41481 9.98739 3.40408 9.96751 3.39521 9.9468C3.39101 9.93691 3.38719 9.92692 3.38383 9.91675C3.38028 9.90602 3.3773 9.89519 3.37478 9.88428C3.36862 9.85759 3.36535 9.83025 3.36517 9.80272C3.36395 9.75159 3.37319 9.70083 3.39223 9.65342C3.40109 9.63131 3.41201 9.61013 3.42479 9.59016C3.43179 9.57924 3.43935 9.56869 3.44747 9.55852C3.45633 9.54742 3.46585 9.53688 3.47593 9.5268C3.51213 9.49069 3.55524 9.46232 3.60274 9.44338C3.65014 9.42443 3.701 9.41538 3.75213 9.41669C3.88212 9.4152 4.01229 9.41473 4.14274 9.41482C4.23437 9.41482 4.32619 9.4151 4.41829 9.41538ZM7.01853 7.88403H6.81166L6.81259 8.27053H7.51496C8.0152 8.27342 8.33331 8.58779 8.33331 9.08562C8.33331 9.26384 8.33816 9.44683 8.2999 9.61834C8.26509 9.77445 8.17859 9.91423 8.05439 10.015C7.93029 10.1159 7.77567 10.1719 7.61573 10.1739C7.22251 10.184 6.82836 10.1816 6.43421 10.1763C6.20205 10.1735 6.04249 10.0115 6.04249 9.7989C6.04249 9.74785 6.05266 9.69728 6.07253 9.65016C6.09241 9.60313 6.12152 9.56048 6.1581 9.52484C6.19477 9.48919 6.23816 9.46129 6.28575 9.44272C6.33334 9.42415 6.3841 9.41529 6.43524 9.41669C6.67925 9.41417 6.9241 9.41501 7.17231 9.41585H7.17735L7.23847 9.41613C7.34457 9.41641 7.45132 9.41669 7.55891 9.41669V9.02926C7.35446 9.02926 7.14702 9.01629 6.94211 9.03159C6.32961 9.076 5.99228 8.62503 6.04006 8.13532C6.0492 8.04649 6.03959 7.95616 6.04249 7.86686C6.0465 7.67137 6.12609 7.48493 6.26448 7.34683C6.32074 7.29075 6.38485 7.24438 6.45427 7.20882C6.55589 7.15685 6.6688 7.12801 6.78497 7.12587C7.16718 7.11868 7.54939 7.12158 7.9316 7.12587C8.16282 7.1282 8.32761 7.28683 8.33284 7.49707C8.33862 7.71588 8.17374 7.87974 7.9316 7.88403C7.84677 7.88497 7.76195 7.88543 7.67713 7.88552C7.559 7.88571 7.44096 7.88524 7.32283 7.88478L7.1711 7.88431L7.01853 7.88403Z" fill="url(#paint1_linear_235_10583)"/>
<path d="M2.99387 16.3102V17.8166H8.7074V16.3102H2.99387Z" fill="url(#paint2_linear_235_10583)"/>
<path d="M9.48805 17.8171V16.3074H11.3776V17.8171H9.48805Z" fill="url(#paint3_linear_235_10583)"/>
</g>
<defs>
<filter id="filter0_dd_235_10583" x="0.572733" y="0.886797" width="13.2413" height="17.2981" filterUnits="userSpaceOnUse" color-interpolation-filters="sRGB">
<feFlood flood-opacity="0" result="BackgroundImageFix"/>
<feColorMatrix in="SourceAlpha" type="matrix" values="0 0 0 0 0 0 0 0 0 0 0 0 0 0 0 0 0 0 127 0" result="hardAlpha"/>
<feOffset dy="0.00742317"/>
<feGaussianBlur stdDeviation="0.0603133"/>
<feComposite in2="hardAlpha" operator="out"/>
<feColorMatrix type="matrix" values="0 0 0 0 1 0 0 0 0 1 0 0 0 0 1 0 0 0 0.17 0"/>
<feBlend mode="normal" in2="BackgroundImageFix" result="effect1_dropShadow_235_10583"/>
<feColorMatrix in="SourceAlpha" type="matrix" values="0 0 0 0 0 0 0 0 0 0 0 0 0 0 0 0 0 0 127 0" result="hardAlpha"/>
<feOffset dy="0.35351"/>
<feComposite in2="hardAlpha" operator="out"/>
<feColorMatrix type="matrix" values="0 0 0 0 0.262745 0 0 0 0 0.192157 0 0 0 0 0.47451 0 0 0 1 0"/>
<feBlend mode="normal" in2="effect1_dropShadow_235_10583" result="effect2_dropShadow_235_10583"/>
<feBlend mode="normal" in="SourceGraphic" in2="effect2_dropShadow_235_10583" result="shape"/>
</filter>
<linearGradient id="paint0_linear_235_10583" x1="7.19336" y1="1" x2="7.19336" y2="17.8315" gradientUnits="userSpaceOnUse">
<stop stop-color="white"/>
<stop offset="0.432292" stop-color="white"/>
<stop offset="0.515625" stop-color="#D6D6D4"/>
</linearGradient>
<linearGradient id="paint1_linear_235_10583" x1="7.19336" y1="1" x2="7.19336" y2="17.8315" gradientUnits="userSpaceOnUse">
<stop stop-color="white"/>
<stop offset="0.432292" stop-color="white"/>
<stop offset="0.515625" stop-color="#D6D6D4"/>
</linearGradient>
<linearGradient id="paint2_linear_235_10583" x1="7.19336" y1="1" x2="7.19336" y2="17.8315" gradientUnits="userSpaceOnUse">
<stop stop-color="white"/>
<stop offset="0.432292" stop-color="white"/>
<stop offset="0.515625" stop-color="#D6D6D4"/>
</linearGradient>
<linearGradient id="paint3_linear_235_10583" x1="7.19336" y1="1" x2="7.19336" y2="17.8315" gradientUnits="userSpaceOnUse">
<stop stop-color="white"/>
<stop offset="0.432292" stop-color="white"/>
<stop offset="0.515625" stop-color="#D6D6D4"/>
</linearGradient>
</defs>
</svg>
