<svg width="20" height="21" viewBox="0 0 20 21" fill="none" xmlns="http://www.w3.org/2000/svg">
<g id="ram" clip-path="url(#clip0_235_10586)">
<g id="Vector" filter="url(#filter0_dd_235_10586)">
<path d="M9.92909 12.6796C7.08588 12.6796 4.24266 12.6796 1.39945 12.6796C1.27772 12.683 1.15656 12.6619 1.04314 12.6175C0.863693 12.5395 0.798017 12.3626 0.859039 12.1413C1.06589 11.3883 1.26189 10.6323 1.50132 9.88965C1.61148 9.54937 1.597 9.26908 1.41083 8.96449C1.24896 8.70179 1.14036 8.40702 0.988323 8.13708C0.87575 7.93324 0.81902 7.70329 0.823874 7.47049C0.823874 6.88922 0.820255 6.30745 0.823874 5.72619C0.826977 5.37919 0.979015 5.23697 1.32808 5.23594C2.19429 5.23594 3.05997 5.23853 3.92617 5.23594C4.16575 5.23003 4.40412 5.27164 4.62753 5.35836C4.85094 5.44508 5.05496 5.57519 5.22781 5.74118C5.34039 5.84735 5.47302 5.92998 5.61794 5.98423C5.76286 6.03849 5.91715 6.06328 6.07177 6.05715C8.64401 6.05371 11.2161 6.05371 13.788 6.05715C14.0755 6.05715 14.3299 5.99251 14.5378 5.80272C15.0255 5.35695 15.5943 5.19922 16.2475 5.22301C17.0025 5.25042 17.7596 5.2287 18.5156 5.22974C18.8885 5.22974 19.0328 5.3735 19.0328 5.74687C19.0328 6.36071 19.0384 6.97455 19.0291 7.58839C19.0255 7.72275 18.9944 7.85493 18.9376 7.97676C18.7373 8.40323 18.5282 8.82538 18.3103 9.24323C18.2814 9.29582 18.264 9.3539 18.2591 9.4137C18.2542 9.47349 18.262 9.53364 18.2819 9.59023C18.5234 10.3995 18.7587 11.2115 18.995 12.0208C19.1217 12.4546 18.9531 12.6755 18.496 12.6755C15.6403 12.6789 12.7847 12.6803 9.92909 12.6796ZM13.2388 9.95171C13.2388 10.0872 13.2388 10.1896 13.2388 10.2925C13.2388 10.3954 13.2331 10.5128 13.2429 10.6214C13.2657 10.8619 13.4399 11.0237 13.6613 11.0201C13.8826 11.0165 14.0393 10.8603 14.0683 10.6292C14.072 10.5905 14.0733 10.5516 14.0724 10.5128C14.0724 9.74502 14.0724 8.97673 14.0724 8.20792C14.0734 8.16276 14.0704 8.1176 14.0636 8.07295C14.0305 7.8904 13.9266 7.76267 13.743 7.72802C13.5594 7.69337 13.3934 7.75336 13.2993 7.92712C13.1674 8.17069 13.0474 8.42098 12.9212 8.66766C12.8944 8.71937 12.8633 8.77108 12.8235 8.84038C12.6684 8.53475 12.5324 8.25757 12.3901 7.98349C12.2779 7.76732 12.1057 7.68096 11.9015 7.72802C11.7106 7.77249 11.5912 7.9297 11.5912 8.16293C11.5884 8.96346 11.5884 9.76416 11.5912 10.565C11.5906 10.642 11.6055 10.7184 11.6351 10.7895C11.6736 10.8721 11.7391 10.9392 11.8208 10.9796C11.9025 11.02 11.9955 11.0314 12.0845 11.0118C12.1769 10.992 12.2598 10.9411 12.3192 10.8676C12.3787 10.7941 12.4112 10.7025 12.4113 10.608C12.4176 10.3944 12.4113 10.1803 12.4113 9.93567C12.7144 10.2429 12.915 10.246 13.2357 9.95171H13.2388ZM7.55027 9.75002L7.69558 9.67142C8.1336 9.43716 8.35338 8.97846 8.24788 8.52079C8.19714 8.29176 8.06941 8.08706 7.88599 7.94081C7.70258 7.79457 7.47456 7.71563 7.23999 7.71716C6.90385 7.71096 6.56771 7.71199 6.23209 7.71716C5.96576 7.7213 5.79717 7.8723 5.79459 8.13087C5.7858 8.95157 5.78321 9.77226 5.79976 10.593C5.80668 10.6615 5.82722 10.7279 5.86016 10.7884C5.89311 10.8489 5.9378 10.9022 5.99162 10.9451C6.25329 11.1427 6.59925 10.9451 6.61994 10.5955C6.63183 10.3995 6.61994 10.2025 6.61994 9.95843C6.94522 10.2811 7.23068 10.5676 7.51872 10.851C7.72971 11.0579 7.97328 11.0754 8.15118 10.8981C8.32907 10.7207 8.31046 10.4688 8.1036 10.2651C7.93088 10.0955 7.74781 9.93567 7.55027 9.75002ZM10.7565 11.0273C11.0989 11.0232 11.2643 10.7533 11.1563 10.427C10.8956 9.63746 10.6321 8.84848 10.3656 8.06002C10.2849 7.82007 10.1587 7.71561 9.9565 7.71406C9.7543 7.71251 9.61933 7.81748 9.53555 8.07036C9.27733 8.84055 9.02049 9.61126 8.76502 10.3825C8.74049 10.4491 8.72451 10.5187 8.71744 10.5893C8.71031 10.6806 8.73479 10.7715 8.78677 10.8468C8.83875 10.9222 8.91507 10.9773 9.0029 11.003C9.17977 11.0604 9.41041 11.0005 9.46523 10.8241C9.54073 10.5811 9.70155 10.5976 9.88359 10.6054C9.98039 10.6105 10.0774 10.6105 10.1742 10.6054C10.2818 10.5986 10.3433 10.6209 10.3811 10.7434C10.404 10.8253 10.4532 10.8974 10.521 10.9486C10.5888 10.9999 10.6715 11.0276 10.7565 11.0273Z" fill="url(#paint0_linear_235_10586)"/>
<path d="M13.6385 14.3282H1.90314C1.32757 14.3282 1.23759 14.2388 1.24121 13.6684C1.24121 13.6234 1.24121 13.5784 1.24121 13.5189H13.6385V14.3282Z" fill="url(#paint1_linear_235_10586)"/>
<path d="M18.6004 13.5143C18.6058 13.5251 18.6098 13.5366 18.6123 13.5484C18.6454 14.1317 18.6066 14.3494 17.8832 14.3339C16.8318 14.3112 15.78 14.3282 14.7286 14.3282H14.4892V13.5143H18.6004Z" fill="url(#paint2_linear_235_10586)"/>
<path d="M6.63649 8.53941C6.84334 8.53941 7.03675 8.53941 7.22913 8.53941C7.35738 8.53941 7.43598 8.6087 7.44322 8.73799C7.45046 8.86727 7.36772 8.94484 7.24257 8.95053C7.04554 8.95932 6.84748 8.95053 6.63649 8.95053V8.53941Z" fill="url(#paint3_linear_235_10586)"/>
<path d="M9.83208 8.80196C9.86537 8.71186 9.99282 8.71186 10.0261 8.80196L10.2359 9.36976C10.2609 9.4373 10.2109 9.50904 10.1389 9.50904H9.71929C9.64729 9.50904 9.59732 9.4373 9.62228 9.36976L9.83208 8.80196Z" fill="url(#paint4_linear_235_10586)"/>
</g>
</g>
<defs>
<filter id="filter0_dd_235_10586" x="-2.4469" y="2.15272" width="24.7519" height="15.6523" filterUnits="userSpaceOnUse" color-interpolation-filters="sRGB">
<feFlood flood-opacity="0" result="BackgroundImageFix"/>
<feColorMatrix in="SourceAlpha" type="matrix" values="0 0 0 0 0 0 0 0 0 0 0 0 0 0 0 0 0 0 127 0" result="hardAlpha"/>
<feOffset dy="0.201179"/>
<feGaussianBlur stdDeviation="1.63458"/>
<feComposite in2="hardAlpha" operator="out"/>
<feColorMatrix type="matrix" values="0 0 0 0 1 0 0 0 0 1 0 0 0 0 1 0 0 0 0.17 0"/>
<feBlend mode="normal" in2="BackgroundImageFix" result="effect1_dropShadow_235_10586"/>
<feColorMatrix in="SourceAlpha" type="matrix" values="0 0 0 0 0 0 0 0 0 0 0 0 0 0 0 0 0 0 127 0" result="hardAlpha"/>
<feOffset dy="0.456874"/>
<feComposite in2="hardAlpha" operator="out"/>
<feColorMatrix type="matrix" values="0 0 0 0 0.262745 0 0 0 0 0.192157 0 0 0 0 0.47451 0 0 0 1 0"/>
<feBlend mode="normal" in2="effect1_dropShadow_235_10586" result="effect2_dropShadow_235_10586"/>
<feBlend mode="normal" in="SourceGraphic" in2="effect2_dropShadow_235_10586" result="shape"/>
</filter>
<linearGradient id="paint0_linear_235_10586" x1="9.92906" y1="5.2207" x2="9.92906" y2="14.3347" gradientUnits="userSpaceOnUse">
<stop stop-color="white"/>
<stop offset="0.432292" stop-color="white"/>
<stop offset="0.515625" stop-color="#D6D6D4"/>
</linearGradient>
<linearGradient id="paint1_linear_235_10586" x1="9.92906" y1="5.2207" x2="9.92906" y2="14.3347" gradientUnits="userSpaceOnUse">
<stop stop-color="white"/>
<stop offset="0.432292" stop-color="white"/>
<stop offset="0.515625" stop-color="#D6D6D4"/>
</linearGradient>
<linearGradient id="paint2_linear_235_10586" x1="9.92906" y1="5.2207" x2="9.92906" y2="14.3347" gradientUnits="userSpaceOnUse">
<stop stop-color="white"/>
<stop offset="0.432292" stop-color="white"/>
<stop offset="0.515625" stop-color="#D6D6D4"/>
</linearGradient>
<linearGradient id="paint3_linear_235_10586" x1="9.92906" y1="5.2207" x2="9.92906" y2="14.3347" gradientUnits="userSpaceOnUse">
<stop stop-color="white"/>
<stop offset="0.432292" stop-color="white"/>
<stop offset="0.515625" stop-color="#D6D6D4"/>
</linearGradient>
<linearGradient id="paint4_linear_235_10586" x1="9.92906" y1="5.2207" x2="9.92906" y2="14.3347" gradientUnits="userSpaceOnUse">
<stop stop-color="white"/>
<stop offset="0.432292" stop-color="white"/>
<stop offset="0.515625" stop-color="#D6D6D4"/>
</linearGradient>
<clipPath id="clip0_235_10586">
<rect width="19.858" height="19.858" fill="white" transform="translate(0 0.648438)"/>
</clipPath>
</defs>
</svg>
