<svg width="15" height="15" viewBox="0 0 15 15" fill="none" xmlns="http://www.w3.org/2000/svg">
<g id="Union" filter="url(#filter0_dd_235_10590)">
<path d="M4.78683 9.86022L3.7891 10.8573C6.09366 12.9735 9.3608 12.4599 10.8908 10.8551L9.90004 9.86235C8.52858 11.1035 6.282 11.2022 4.78683 9.86022Z" fill="url(#paint0_linear_235_10590)"/>
<path d="M3.45502 3.39619L4.45343 4.39638C3.82108 5.12534 3.47855 5.97726 3.47821 6.9535C3.4778 7.92982 3.81758 8.78345 4.44917 9.5096L3.45042 10.507C1.69814 8.77117 1.4582 5.50965 3.45502 3.39619Z" fill="url(#paint1_linear_235_10590)"/>
<path d="M9.89654 4.05564L10.8967 3.0551C8.77271 1.053 5.51119 1.32911 3.81017 3.04845L4.79732 4.05667C5.52628 3.42603 6.3712 3.08914 7.34923 3.08955C8.32726 3.08989 9.17815 3.43132 9.89654 4.05564Z" fill="url(#paint2_linear_235_10590)"/>
<path d="M10.2468 4.39775L11.241 3.4071C12.9898 5.14956 13.2396 8.37986 11.2522 10.5053L10.2531 9.50891C11.4933 8.12901 11.5909 5.92312 10.2468 4.39775Z" fill="url(#paint3_linear_235_10590)"/>
<path fill-rule="evenodd" clip-rule="evenodd" d="M4.77791 4.72978L4.76645 4.7199C3.65983 5.7264 3.65983 8.24874 4.74675 9.17901L4.75663 9.16913C4.81729 9.24111 4.88103 9.31069 4.94773 9.37772C5.42583 9.8583 6.03588 10.1862 6.70048 10.3199C7.36508 10.4536 8.05445 10.387 8.68118 10.1287C9.30797 9.87037 9.84399 9.43186 10.2214 8.86867C10.5987 8.30555 10.8005 7.64301 10.8012 6.9651C10.8003 6.05911 10.4413 5.19025 9.80234 4.54795C9.16333 3.90572 8.29625 3.5422 7.39033 3.53671C6.71242 3.5339 6.04885 3.73226 5.48381 4.10676C5.21951 4.28193 4.98231 4.49189 4.77791 4.72978ZM7.08246 8.24723L7.22072 7.66531C7.00547 7.66531 6.81843 7.66902 6.63695 7.66154C6.15699 7.65028 5.83978 7.24978 5.94861 6.78554C6.06333 6.29158 6.1856 5.79934 6.31528 5.30882C6.42355 4.90646 6.8034 4.67804 7.17447 4.77815C7.55611 4.88395 7.76826 5.25001 7.67501 5.65422C7.64283 5.79543 7.6086 5.93629 7.57072 6.09212L7.53051 6.25803H8.07298C8.61174 6.26551 8.91838 6.65723 8.79322 7.1835C8.68118 7.65406 8.56666 8.12393 8.44528 8.59264C8.33707 9.00995 7.95407 9.24777 7.57868 9.14512C7.18511 9.03877 6.98235 8.67147 7.08246 8.24723Z" fill="url(#paint4_linear_235_10590)"/>
<path fill-rule="evenodd" clip-rule="evenodd" d="M1.14024 13.6895H13.5543C13.5724 13.6809 13.5905 13.6721 13.6085 13.6633L13.613 13.661L13.6565 13.6399C13.913 13.5342 14.0469 13.3392 14.0781 13.069C14.0806 13.0384 14.0813 13.0077 14.0802 12.977V0.938417C14.0802 0.565017 13.8673 0.295911 13.5228 0.235805C13.4825 0.23059 13.4421 0.227228 13.4016 0.225787C13.3905 0.225375 13.3793 0.225101 13.3681 0.224964C13.3455 0.224758 13.3227 0.225101 13.3 0.225993C9.35648 0.230453 5.41279 0.228669 1.46904 0.22071C1.0531 0.21968 0.753804 0.342294 0.613281 0.751511V13.1625C0.651088 13.2868 0.718948 13.4 0.810891 13.4918C0.902766 13.5838 1.01591 13.6516 1.14024 13.6895ZM13.1254 6.94438C13.0846 10.1662 10.4976 12.7058 7.34326 12.6984C4.17375 12.6907 1.58994 10.1012 1.60469 6.94822C1.61979 3.77069 4.21554 1.18399 7.37874 1.19661C10.5419 1.20931 13.1647 3.80053 13.1254 6.94438ZM12.7085 0.878928C12.7602 0.87934 12.812 0.880095 12.8637 0.880095H12.9087L12.9655 0.879546C13.0366 0.87886 13.1076 0.878173 13.1781 0.881536C13.2077 0.881124 13.2372 0.88675 13.2647 0.897934C13.2921 0.909119 13.3171 0.925792 13.338 0.946788C13.359 0.967853 13.3755 0.992828 13.3866 1.02041C13.3977 1.04793 13.4031 1.07736 13.4026 1.10707C13.405 1.24018 13.3264 1.33117 13.1859 1.33508C13.104 1.3372 13.0221 1.33851 12.9403 1.33906C12.8074 1.33988 12.6746 1.33858 12.5419 1.33508C12.511 1.33618 12.4803 1.33069 12.4517 1.31909L12.4415 1.31463L12.434 1.31099C12.4297 1.30873 12.4254 1.30633 12.4212 1.30386C12.4046 1.29384 12.3894 1.2817 12.3759 1.26763C12.3719 1.26351 12.3682 1.25926 12.3645 1.2548C12.3595 1.24869 12.3549 1.24231 12.3505 1.23572C12.3412 1.22138 12.3335 1.20594 12.3278 1.18975C12.3174 1.16066 12.3132 1.12978 12.3156 1.09897C12.3177 1.03551 12.3424 0.981438 12.3839 0.942877C12.4242 0.905482 12.4804 0.882702 12.5475 0.880095C12.6012 0.878516 12.6548 0.878516 12.7085 0.878928ZM12.9786 13.0146L12.9208 13.0137C12.8997 13.0134 12.8785 13.0132 12.8573 13.0132C12.7523 13.0132 12.6473 13.0174 12.5426 13.0142C12.4003 13.0069 12.3118 12.9106 12.3164 12.7781C12.3167 12.7485 12.323 12.7192 12.3349 12.6921L12.338 12.6854L12.3403 12.6806C12.3437 12.674 12.3475 12.6674 12.3515 12.6611C12.3611 12.6461 12.3725 12.6323 12.3855 12.62C12.3949 12.6111 12.405 12.6031 12.4158 12.596C12.4297 12.5868 12.4445 12.5793 12.4602 12.5734C12.488 12.5631 12.5175 12.5583 12.5471 12.5596C12.7555 12.5551 12.9663 12.5547 13.1771 12.5596C13.2065 12.5602 13.2353 12.5664 13.2618 12.5777C13.2884 12.5889 13.3128 12.6053 13.3336 12.626C13.3562 12.6486 13.3736 12.6755 13.3848 12.7048C13.3943 12.7294 13.3995 12.7557 13.4 12.7825C13.4011 12.8413 13.3793 12.8982 13.3391 12.9413C13.2991 12.9843 13.2438 13.01 13.1851 13.0132C13.1515 13.0148 13.1178 13.0155 13.084 13.0155C13.0489 13.0157 13.0138 13.0151 12.9786 13.0146ZM1.94125 1.35957L1.89102 1.35896L1.83194 1.35861L1.79263 1.35875L1.72936 1.35944L1.7166 1.35964C1.65005 1.36053 1.58356 1.36143 1.51721 1.35964C1.44043 1.35628 1.37854 1.32547 1.33902 1.27641C1.30889 1.23902 1.29167 1.19106 1.29057 1.13658C1.28865 1.10693 1.29284 1.07716 1.30293 1.04916C1.31301 1.02123 1.32872 0.995641 1.34917 0.974028C1.36955 0.952346 1.39418 0.935192 1.42156 0.923528C1.44887 0.911795 1.4783 0.905894 1.50808 0.9061C1.72655 0.899101 1.94509 0.899101 2.16363 0.9061C2.17831 0.906168 2.19292 0.907746 2.20726 0.910765C2.22188 0.913922 2.23622 0.918587 2.24994 0.924763C2.27718 0.936839 2.30161 0.954404 2.32164 0.976361C2.32981 0.985281 2.33722 0.994818 2.34374 1.0049C2.35328 1.01973 2.36103 1.03564 2.36672 1.05239C2.37235 1.06885 2.37592 1.08587 2.37743 1.10309C2.37853 1.11537 2.37859 1.12772 2.37757 1.14007C2.37654 1.19757 2.35328 1.25253 2.31272 1.29329C2.2721 1.33398 2.21728 1.35745 2.15971 1.35861C2.08712 1.36163 2.01418 1.3606 1.94125 1.35957ZM1.93912 13.0142C1.90399 13.0137 1.86886 13.0132 1.83373 13.0132C1.75029 13.0132 1.66686 13.0158 1.58438 13.0148C1.56297 13.0146 1.54164 13.0141 1.52036 13.0132C1.37772 13.0058 1.28886 12.9106 1.29202 12.7789C1.29195 12.7492 1.29785 12.7198 1.30944 12.6925C1.32104 12.6651 1.33799 12.6404 1.35933 12.6198C1.38073 12.5992 1.40598 12.5831 1.4337 12.5725C1.46149 12.562 1.49107 12.5571 1.52071 12.5582C1.72964 12.554 1.93946 12.554 2.15025 12.5582C2.17989 12.5573 2.20939 12.5623 2.23704 12.573C2.24884 12.5775 2.26017 12.583 2.27094 12.5895C2.27602 12.5926 2.28096 12.5958 2.28576 12.5992L2.29331 12.6049C2.29955 12.6097 2.30552 12.6149 2.31128 12.6204C2.33262 12.641 2.34957 12.6657 2.36123 12.693C2.37283 12.7202 2.37887 12.7496 2.37894 12.7792C2.38209 12.9106 2.29255 13.0061 2.1499 13.0132C2.12493 13.0142 2.09995 13.0147 2.07498 13.0149L2.02393 13.015L1.98111 13.0146L1.94282 13.0142H1.93912Z" fill="url(#paint5_linear_235_10590)"/>
</g>
<defs>
<filter id="filter0_dd_235_10590" x="0.505394" y="0.119455" width="13.6833" height="13.8862" filterUnits="userSpaceOnUse" color-interpolation-filters="sRGB">
<feFlood flood-opacity="0" result="BackgroundImageFix"/>
<feColorMatrix in="SourceAlpha" type="matrix" values="0 0 0 0 0 0 0 0 0 0 0 0 0 0 0 0 0 0 127 0" result="hardAlpha"/>
<feOffset dy="0.00663921"/>
<feGaussianBlur stdDeviation="0.0539436"/>
<feComposite in2="hardAlpha" operator="out"/>
<feColorMatrix type="matrix" values="0 0 0 0 1 0 0 0 0 1 0 0 0 0 1 0 0 0 0.17 0"/>
<feBlend mode="normal" in2="BackgroundImageFix" result="effect1_dropShadow_235_10590"/>
<feColorMatrix in="SourceAlpha" type="matrix" values="0 0 0 0 0 0 0 0 0 0 0 0 0 0 0 0 0 0 127 0" result="hardAlpha"/>
<feOffset dy="0.316175"/>
<feComposite in2="hardAlpha" operator="out"/>
<feColorMatrix type="matrix" values="0 0 0 0 0.262745 0 0 0 0 0.192157 0 0 0 0 0.47451 0 0 0 1 0"/>
<feBlend mode="normal" in2="effect1_dropShadow_235_10590" result="effect2_dropShadow_235_10590"/>
<feBlend mode="normal" in="SourceGraphic" in2="effect2_dropShadow_235_10590" result="shape"/>
</filter>
<linearGradient id="paint0_linear_235_10590" x1="7.34701" y1="0.220703" x2="7.34701" y2="13.6895" gradientUnits="userSpaceOnUse">
<stop stop-color="white"/>
<stop offset="0.432292" stop-color="white"/>
<stop offset="0.515625" stop-color="#D6D6D4"/>
</linearGradient>
<linearGradient id="paint1_linear_235_10590" x1="7.34701" y1="0.220703" x2="7.34701" y2="13.6895" gradientUnits="userSpaceOnUse">
<stop stop-color="white"/>
<stop offset="0.432292" stop-color="white"/>
<stop offset="0.515625" stop-color="#D6D6D4"/>
</linearGradient>
<linearGradient id="paint2_linear_235_10590" x1="7.34701" y1="0.220703" x2="7.34701" y2="13.6895" gradientUnits="userSpaceOnUse">
<stop stop-color="white"/>
<stop offset="0.432292" stop-color="white"/>
<stop offset="0.515625" stop-color="#D6D6D4"/>
</linearGradient>
<linearGradient id="paint3_linear_235_10590" x1="7.34701" y1="0.220703" x2="7.34701" y2="13.6895" gradientUnits="userSpaceOnUse">
<stop stop-color="white"/>
<stop offset="0.432292" stop-color="white"/>
<stop offset="0.515625" stop-color="#D6D6D4"/>
</linearGradient>
<linearGradient id="paint4_linear_235_10590" x1="7.34701" y1="0.220703" x2="7.34701" y2="13.6895" gradientUnits="userSpaceOnUse">
<stop stop-color="white"/>
<stop offset="0.432292" stop-color="white"/>
<stop offset="0.515625" stop-color="#D6D6D4"/>
</linearGradient>
<linearGradient id="paint5_linear_235_10590" x1="7.34701" y1="0.220703" x2="7.34701" y2="13.6895" gradientUnits="userSpaceOnUse">
<stop stop-color="white"/>
<stop offset="0.432292" stop-color="white"/>
<stop offset="0.515625" stop-color="#D6D6D4"/>
</linearGradient>
</defs>
</svg>
