<svg width="1671" height="1671" viewBox="0 0 1671 1671" fill="none" xmlns="http://www.w3.org/2000/svg">
<g opacity="0.21">
<path d="M0 1431.7H1670.82" stroke="url(#paint0_linear_118_4930)" stroke-width="0.678368"/>
<path d="M0 1232.93H1670.82" stroke="url(#paint1_linear_118_4930)" stroke-width="0.678368"/>
<path d="M0 1034.17H1670.82" stroke="url(#paint2_linear_118_4930)" stroke-width="0.678368"/>
<path d="M0 835.411H1670.82" stroke="url(#paint3_linear_118_4930)" stroke-width="0.678368"/>
<path d="M0 636.648H1670.82" stroke="url(#paint4_linear_118_4930)" stroke-width="0.678368"/>
<path d="M0 437.887H1670.82" stroke="url(#paint5_linear_118_4930)" stroke-width="0.678368"/>
<path d="M0 239.125H1670.82" stroke="url(#paint6_linear_118_4930)" stroke-width="0.678368"/>
<path d="M239.125 0L239.125 1670.82" stroke="#CCCCCC" stroke-opacity="0.34" stroke-width="0.678368"/>
<path d="M437.891 0L437.891 1670.82" stroke="#CCCCCC" stroke-width="0.678368"/>
<path d="M636.648 0L636.648 1670.82" stroke="#CCCCCC" stroke-width="0.678368"/>
<path d="M835.406 0L835.406 1670.82" stroke="#CCCCCC" stroke-width="0.678368"/>
<path d="M1034.17 0L1034.17 1670.82" stroke="#CCCCCC" stroke-width="0.678368"/>
<path d="M1232.94 0L1232.94 1670.82" stroke="#CCCCCC" stroke-width="0.678368"/>
<path d="M1431.7 0L1431.7 1670.82" stroke="#CCCCCC" stroke-opacity="0.34" stroke-width="0.678368"/>
<rect width="6.78368" height="6.78368" transform="matrix(1 0 0 -1 236.07 242.517)" fill="#B7B7B7"/>
<rect width="6.78368" height="6.78368" transform="matrix(1 0 0 -1 434.836 242.517)" fill="#B7B7B7"/>
<rect width="6.78368" height="6.78368" transform="matrix(1 0 0 -1 633.594 242.517)" fill="#B7B7B7"/>
<rect width="6.78368" height="6.78368" transform="matrix(1 0 0 -1 832.359 242.517)" fill="#B7B7B7"/>
<rect width="6.78368" height="6.78368" transform="matrix(1 0 0 -1 1031.12 242.517)" fill="#B7B7B7"/>
<rect width="6.78368" height="6.78368" transform="matrix(1 0 0 -1 1229.88 242.517)" fill="#B7B7B7"/>
<rect width="6.78368" height="6.78368" transform="matrix(1 0 0 -1 1428.64 242.517)" fill="#B7B7B7"/>
<rect width="6.78368" height="6.78368" transform="matrix(1 0 0 -1 236.07 441.278)" fill="#B7B7B7"/>
<rect width="6.78368" height="6.78368" transform="matrix(1 0 0 -1 434.836 441.278)" fill="#B7B7B7"/>
<rect width="6.78368" height="6.78368" transform="matrix(1 0 0 -1 633.594 441.278)" fill="#B7B7B7"/>
<rect width="6.78368" height="6.78368" transform="matrix(1 0 0 -1 832.359 441.278)" fill="#B7B7B7"/>
<rect width="6.78368" height="6.78368" transform="matrix(1 0 0 -1 1031.12 441.278)" fill="#B7B7B7"/>
<rect width="6.78368" height="6.78368" transform="matrix(1 0 0 -1 1229.88 441.278)" fill="#B7B7B7"/>
<rect width="6.78368" height="6.78368" transform="matrix(1 0 0 -1 1428.64 441.278)" fill="#B7B7B7"/>
<rect width="6.78368" height="6.78368" transform="matrix(1 0 0 -1 236.07 640.041)" fill="#B7B7B7"/>
<rect width="6.78368" height="6.78368" transform="matrix(1 0 0 -1 434.836 640.041)" fill="#B7B7B7"/>
<rect width="6.78368" height="6.78368" transform="matrix(1 0 0 -1 633.594 640.041)" fill="#B7B7B7"/>
<rect width="6.78368" height="6.78368" transform="matrix(1 0 0 -1 832.359 640.041)" fill="#B7B7B7"/>
<rect width="6.78368" height="6.78368" transform="matrix(1 0 0 -1 1031.12 640.041)" fill="#B7B7B7"/>
<rect width="6.78368" height="6.78368" transform="matrix(1 0 0 -1 1229.88 640.041)" fill="#B7B7B7"/>
<rect width="6.78368" height="6.78368" transform="matrix(1 0 0 -1 1428.64 640.041)" fill="#B7B7B7"/>
<rect width="6.78368" height="6.78368" transform="matrix(1 0 0 -1 236.07 838.803)" fill="#B7B7B7"/>
<rect width="6.78368" height="6.78368" transform="matrix(1 0 0 -1 434.836 838.803)" fill="#B7B7B7"/>
<rect width="6.78368" height="6.78368" transform="matrix(1 0 0 -1 633.594 838.803)" fill="#B7B7B7"/>
<rect width="6.78368" height="6.78368" transform="matrix(1 0 0 -1 832.359 838.803)" fill="#B7B7B7"/>
<rect width="6.78368" height="6.78368" transform="matrix(1 0 0 -1 1031.12 838.803)" fill="#B7B7B7"/>
<rect width="6.78368" height="6.78368" transform="matrix(1 0 0 -1 1229.88 838.803)" fill="#B7B7B7"/>
<rect width="6.78368" height="6.78368" transform="matrix(1 0 0 -1 1428.64 838.803)" fill="#B7B7B7"/>
<rect width="6.78368" height="6.78368" transform="matrix(1 0 0 -1 236.07 1037.56)" fill="#B7B7B7"/>
<rect width="6.78368" height="6.78368" transform="matrix(1 0 0 -1 434.836 1037.56)" fill="#B7B7B7"/>
<rect width="6.78368" height="6.78368" transform="matrix(1 0 0 -1 633.594 1037.56)" fill="#B7B7B7"/>
<rect width="6.78368" height="6.78368" transform="matrix(1 0 0 -1 832.359 1037.56)" fill="#B7B7B7"/>
<rect width="6.78368" height="6.78368" transform="matrix(1 0 0 -1 1031.12 1037.56)" fill="#B7B7B7"/>
<rect width="6.78368" height="6.78368" transform="matrix(1 0 0 -1 1229.88 1037.56)" fill="#B7B7B7"/>
<rect width="6.78368" height="6.78368" transform="matrix(1 0 0 -1 1428.64 1037.56)" fill="#B7B7B7"/>
<rect width="6.78368" height="6.78368" transform="matrix(1 0 0 -1 236.07 1236.33)" fill="#B7B7B7"/>
<rect width="6.78368" height="6.78368" transform="matrix(1 0 0 -1 434.836 1236.33)" fill="#B7B7B7"/>
<rect width="6.78368" height="6.78368" transform="matrix(1 0 0 -1 633.594 1236.33)" fill="#B7B7B7"/>
<rect width="6.78368" height="6.78368" transform="matrix(1 0 0 -1 832.359 1236.33)" fill="#B7B7B7"/>
<rect width="6.78368" height="6.78368" transform="matrix(1 0 0 -1 1031.12 1236.33)" fill="#B7B7B7"/>
<rect width="6.78368" height="6.78368" transform="matrix(1 0 0 -1 1229.88 1236.33)" fill="#B7B7B7"/>
<rect width="6.78368" height="6.78368" transform="matrix(1 0 0 -1 1428.64 1236.33)" fill="#B7B7B7"/>
<rect width="6.78368" height="6.78368" transform="matrix(1 0 0 -1 236.07 1435.09)" fill="#B7B7B7"/>
<rect width="6.78368" height="6.78368" transform="matrix(1 0 0 -1 434.836 1435.09)" fill="#B7B7B7"/>
<rect width="6.78368" height="6.78368" transform="matrix(1 0 0 -1 633.594 1435.09)" fill="#B7B7B7"/>
<rect width="6.78368" height="6.78368" transform="matrix(1 0 0 -1 832.359 1435.09)" fill="#B7B7B7"/>
<rect width="6.78368" height="6.78368" transform="matrix(1 0 0 -1 1031.12 1435.09)" fill="#B7B7B7"/>
<rect width="6.78368" height="6.78368" transform="matrix(1 0 0 -1 1229.88 1435.09)" fill="#B7B7B7"/>
<rect width="6.78368" height="6.78368" transform="matrix(1 0 0 -1 1428.64 1435.09)" fill="#B7B7B7"/>
</g>
<defs>
<linearGradient id="paint0_linear_118_4930" x1="0" y1="1432.7" x2="1671" y2="1432.7" gradientUnits="userSpaceOnUse">
<stop stop-color="#CCCCCC" stop-opacity="0"/>
<stop offset="0.507655" stop-color="#CCCCCC"/>
<stop offset="1" stop-color="#CCCCCC" stop-opacity="0"/>
</linearGradient>
<linearGradient id="paint1_linear_118_4930" x1="0" y1="1233.93" x2="1671" y2="1233.93" gradientUnits="userSpaceOnUse">
<stop stop-color="#CCCCCC" stop-opacity="0"/>
<stop offset="0.507655" stop-color="#CCCCCC"/>
<stop offset="1" stop-color="#CCCCCC" stop-opacity="0"/>
</linearGradient>
<linearGradient id="paint2_linear_118_4930" x1="0" y1="1035.17" x2="1671" y2="1035.17" gradientUnits="userSpaceOnUse">
<stop stop-color="#CCCCCC" stop-opacity="0"/>
<stop offset="0.507655" stop-color="#CCCCCC"/>
<stop offset="1" stop-color="#CCCCCC" stop-opacity="0"/>
</linearGradient>
<linearGradient id="paint3_linear_118_4930" x1="0" y1="836.41" x2="1671" y2="836.41" gradientUnits="userSpaceOnUse">
<stop stop-color="#CCCCCC" stop-opacity="0"/>
<stop offset="0.507655" stop-color="#CCCCCC"/>
<stop offset="1" stop-color="#CCCCCC" stop-opacity="0"/>
</linearGradient>
<linearGradient id="paint4_linear_118_4930" x1="0" y1="637.647" x2="1671" y2="637.647" gradientUnits="userSpaceOnUse">
<stop stop-color="#CCCCCC" stop-opacity="0"/>
<stop offset="0.507655" stop-color="#CCCCCC"/>
<stop offset="1" stop-color="#CCCCCC" stop-opacity="0"/>
</linearGradient>
<linearGradient id="paint5_linear_118_4930" x1="0" y1="438.885" x2="1671" y2="438.885" gradientUnits="userSpaceOnUse">
<stop stop-color="#CCCCCC" stop-opacity="0"/>
<stop offset="0.507655" stop-color="#CCCCCC"/>
<stop offset="1" stop-color="#CCCCCC" stop-opacity="0"/>
</linearGradient>
<linearGradient id="paint6_linear_118_4930" x1="0" y1="240.123" x2="1671" y2="240.123" gradientUnits="userSpaceOnUse">
<stop stop-color="#CCCCCC" stop-opacity="0"/>
<stop offset="0.507655" stop-color="#CCCCCC"/>
<stop offset="1" stop-color="#CCCCCC" stop-opacity="0"/>
</linearGradient>
</defs>
</svg>
