<svg width="179" height="148" viewBox="0 0 179 148" fill="none" xmlns="http://www.w3.org/2000/svg">
<path d="M54.9109 121.391H60.0042L66.8523 106.411H62.0586L57.4575 117.068L52.8778 106.411H48.0627L54.9109 121.391ZM77.3105 106.411H72.1958L65.3262 121.391H70.0771L71.8962 117.304H77.5887L79.4077 121.391H84.2014L77.3105 106.411ZM76.3688 113.965H73.116L74.7424 110.306L76.3688 113.965ZM85.382 116.49H94.0491V112.917H85.382V116.49ZM97.7636 121.391H102.108V115.634H106.217C110.197 115.634 112.937 114.543 112.937 111.012C112.937 108.08 110.711 106.411 107.415 106.411H97.7636V121.391ZM107.201 109.813C108.014 109.813 108.485 110.263 108.485 111.012C108.485 111.782 107.993 112.21 107.201 112.21H102.108V109.813H107.201ZM131.112 109.792C129.764 107.631 127.003 106.068 123.172 106.068C117.672 106.068 113.991 108.915 113.991 113.922C113.991 118.93 117.672 121.776 123.172 121.776C127.046 121.776 129.828 120.171 131.176 117.988L127.345 115.891C126.66 117.239 125.205 118.031 123.172 118.031C120.412 118.031 118.464 116.597 118.464 113.922C118.464 111.226 120.412 109.813 123.172 109.813C125.184 109.813 126.618 110.562 127.281 111.911L131.112 109.792Z" fill="#F0EEF4"/>
<g opacity="0.56" filter="url(#filter0_f_1_253)">
<circle cx="89.4407" cy="58.6839" r="32.1868" fill="url(#paint0_linear_1_253)"/>
</g>
<ellipse cx="88.6766" cy="58.6833" rx="30.5399" ry="30.4297" fill="url(#paint1_linear_1_253)"/>
<path d="M118.114 58.6833C118.114 74.8765 104.938 88.0105 88.6766 88.0105C72.4151 88.0105 59.2392 74.8765 59.2392 58.6833C59.2392 42.4902 72.4151 29.3562 88.6766 29.3562C104.938 29.3562 118.114 42.4902 118.114 58.6833Z" fill="url(#paint2_linear_1_253)" stroke="#7047D6" stroke-width="2.20505"/>
<g filter="url(#filter1_d_1_253)">
<path d="M111.056 98.7664C111.051 97.808 111.039 96.2883 111.027 94.7885L111.023 94.2302C111.013 93.0023 111.004 91.838 110.999 91.0721H108.885H108.058V90.2452C108.058 89.8891 108.053 89.5299 108.047 89.1702C108.033 88.3745 108.02 87.5761 108.071 86.801L108.071 86.7999C108.277 83.7442 110.963 81.3131 114.117 81.089L114.127 81.0883C116.793 80.9319 119.384 80.1477 121.688 78.7999L111.056 98.7664ZM111.056 98.7664L100.326 98.7607C100.326 95.5754 100.326 92.3942 100.354 89.2135V89.2065C100.355 87.4129 100.567 85.6256 100.986 83.8816C101.714 80.9908 103.475 78.7056 105.669 76.5744C106.11 76.1468 107.006 75.5549 107.655 75.2556L108.401 74.9111L108.371 74.8449C108.437 74.8349 108.495 74.819 108.544 74.802L114.044 73.6039L114.892 73.4193L114.894 73.4238L115.57 73.2774C117.442 72.872 119.296 71.5461 120.686 69.8725C122.081 68.1939 123.102 66.0546 123.183 63.9091L123.215 63.0511H122.356H111.854H110.814C109.768 60.4649 108.724 57.8827 107.679 55.2996H108.151H131.16C131.161 55.3099 131.162 55.3203 131.163 55.3306C131.163 56.0588 131.166 56.7835 131.17 57.5057C131.18 59.4602 131.19 61.3968 131.128 63.3386C131.066 64.7868 130.899 66.2287 130.629 67.6529L130.627 67.6611C130.22 69.935 129.186 71.9404 127.677 73.7432C125.983 75.756 123.958 77.4657 121.69 78.7991L111.056 98.7664ZM70.9604 62.99C69.9144 60.4077 68.8682 57.8253 67.8218 55.2429H66.9559H66.9347H66.9136H66.8925H66.8714H66.8504H66.8293H66.8083H66.7874H66.7664H66.7455H66.7246H66.7038H66.683H66.6622H66.6414H66.6207H66.6H66.5793H66.5586H66.538H66.5174H66.4968H66.4763H66.4557H66.4352H66.4148H66.3943H66.3739H66.3535H66.3332H66.3128H66.2925H66.2722H66.252H66.2317H66.2115H66.1913H66.1712H66.151H66.1309H66.1108H66.0908H66.0708H66.0507H66.0308H66.0108H65.9909H65.9709H65.9511H65.9312H65.9114H65.8915H65.8717H65.852H65.8322H65.8125H65.7928H65.7731H65.7535H65.7338H65.7142H65.6946H65.6751H65.6555H65.636H65.6165H65.597H65.5776H65.5581H65.5387H65.5193H65.5H65.4806H65.4613H65.442H65.4227H65.4034H65.3842H65.3649H65.3457H65.3266H65.3074H65.2882H65.2691H65.25H65.2309H65.2119H65.1928H65.1738H65.1548H65.1358H65.1168H65.0979H65.079H65.06H65.0412H65.0223H65.0034H64.9846H64.9658H64.947H64.9282H64.9094H64.8907H64.8719H64.8532H64.8345H64.8158H64.7972H64.7785H64.7599H64.7413H64.7227H64.7041H64.6855H64.667H64.6485H64.6299H64.6114H64.593H64.5745H64.556H64.5376H64.5192H64.5008H64.4824H64.464H64.4457H64.4273H64.409H64.3907H64.3724H64.3541H64.3358H64.3175H64.2993H64.281H64.2628H64.2446H64.2264H64.2083H64.1901H64.1719H64.1538H64.1357H64.1176H64.0995H64.0814H64.0633H64.0452H64.0272H64.0091H63.9911H63.9731H63.9551H63.9371H63.9191H63.9011H63.8832H63.8652H63.8473H63.8294H63.8115H63.7936H63.7757H63.7578H63.7399H63.722H63.7042H63.6864H63.6685H63.6507H63.6329H63.6151H63.5973H63.5795H63.5617H63.544H63.5262H63.5085H63.4907H63.473H63.4553H63.4376H63.4199H63.4022H63.3845H63.3668H63.3491H63.3314H63.3138H63.2961H63.2785H63.2609H63.2432H63.2256H63.208H63.1904H63.1728H63.1552H63.1376H63.12H63.1024H63.0849H63.0673H63.0498H63.0322H63.0147H62.9971H62.9796H62.962H62.9445H62.927H62.9095H62.892H62.8745H62.857H62.8395H62.822H62.8045H62.787H62.7695H62.7521H62.7346H62.7171H62.6996H62.6822H62.6647H62.6473H62.6298H62.6124H62.5949H62.5775H62.56H62.5426H62.5252H62.5077H62.4903H62.4729H62.4555H62.438H62.4206H62.4032H62.3858H62.3683H62.3509H62.3335H62.3161H62.2987H62.2813H62.2639H62.2464H62.229H62.2116H62.1942H62.1768H62.1594H62.142H62.1246H62.1072H62.0897H62.0723H62.0549H62.0375H62.0201H62.0027H61.9852H61.9678H61.9504H61.933H61.9156H61.8981H61.8807H61.8633H61.8459H61.8284H61.811H61.7935H61.7761H61.7587H61.7412H61.7238H61.7063H61.6889H61.6714H61.6539H61.6365H61.619H61.6015H61.5841H61.5666H61.5491H61.5316H61.5141H61.4966H61.4791H61.4616H61.4441H61.4266H61.4091H61.3915H61.374H61.3565H61.3389H61.3214H61.3038H61.2863H61.2687H61.2512H61.2336H61.216H61.1984H61.1808H61.1632H61.1456H61.128H61.1104H61.0927H61.0751H61.0575H61.0398H61.0221H61.0045H60.9868H60.9691H60.9514H60.9337H60.916H60.8983H60.8806H60.8629H60.8451H60.8274H60.8096H60.7919H60.7741H60.7563H60.7385H60.7207H60.7029H60.6851H60.6672H60.6494H60.6315H60.6137H60.5958H60.5779H60.56H60.5421H60.5242H60.5063H60.4884H60.4704H60.4525H60.4345H60.4165H60.3985H60.3805H60.3625H60.3445H60.3264H60.3084H60.2903H60.2722H60.2541H60.236H60.2179H60.1998H60.1817H60.1635H60.1453H60.1272H60.109H60.0908H60.0725H60.0543H60.0361H60.0178H59.9995H59.9812H59.9629H59.9446H59.9263H59.9079H59.8896H59.8712H59.8528H59.8344H59.816H59.7975H59.7791H59.7606H59.7421H59.7236H59.7051H59.6866H59.6681H59.6495H59.6309H59.6123H59.5937H59.5751H59.5564H59.5378H59.5191H59.5004H59.4817H59.4629H59.4442H59.4254H59.4066H59.3878H59.369H59.3502H59.3313H59.3124H59.2935H59.2746H59.2557H59.2368H59.2178H59.1988H59.1798H59.1608H59.1417H59.1227H59.1036H59.0845H59.0653H59.0462H59.027H59.0079H58.9886H58.9694H58.9502H58.9309H58.9116H58.8923H58.873H58.8536H58.8343H58.8149H58.7955H58.776H58.7566H58.7371H58.7176H58.6981H58.6785H58.659H58.6394H58.6198H58.6001H58.5805H58.5608H58.5411H58.5214H58.5016H58.4819H58.4621H58.4422H58.4224H58.4025H58.3826H58.3627H58.3428H58.3228H58.3029H58.2828H58.2628H58.2427H58.2227H58.2026H58.1824H58.1623H58.1421H58.1219H58.1016H58.0814H58.0611H58.0408H58.0204H58.0001H57.9797H57.9593H57.9388H57.9184H57.8979H57.8773H57.8568H57.8362H57.8156H57.795H57.7743H57.7536H57.7329H57.7122H57.6914H57.6706H57.6498H57.6289H57.6081H57.5872H57.5662H57.5453H57.5243H57.5032H57.4822H57.4611H57.44H57.4189H57.3977H56.0951L56.6494 54.0641L57.0015 53.3152L57.0237 53.2681L57.0517 53.224C58.0169 51.7031 59.0747 50.6226 60.3191 49.8005C61.5531 48.9854 62.9359 48.4477 64.5107 47.9696L64.8346 47.8713L64.8329 47.8672L65.6968 47.6031L71.2363 45.9093L71.9602 45.688L72.2445 46.3895C73.0192 48.3011 73.7956 50.2174 74.5733 52.1373L72.3043 46.3044L72.0741 45.7127L72.5862 45.3376C79.42 40.3305 79.6854 32.9837 77.3934 28.0713C76.0878 25.2809 73.9153 22.9861 71.1991 21.5287C68.483 20.0713 65.3684 19.5291 62.3189 19.983C59.6835 20.3782 57.0371 21.7201 54.9399 23.5922C53.0364 25.2915 51.6398 27.3777 51.0886 29.5026L58.2827 32.2476C58.2899 32.2219 58.2972 32.1963 58.3045 32.1708M70.9604 62.99L52.4124 45.4795C49.6838 48.3261 47.888 51.936 47.2644 55.8282M70.9604 62.99H70.5869H47.8773M70.9604 62.99H47.8773M58.3045 32.1708L59.0993 32.3989L58.3044 32.1714C58.3044 32.1712 58.3045 32.171 58.3045 32.1708ZM58.3045 32.1708C58.6259 31.0485 59.2466 30.0347 60.1002 29.238C60.9539 28.4411 62.0083 27.8912 63.1506 27.6473C64.2929 27.4033 65.4801 27.4744 66.5851 27.8529C67.6901 28.2314 68.6714 28.9032 69.4238 29.7963C70.1762 30.6894 70.6713 31.7702 70.8562 32.923C71.0411 34.0759 70.9087 35.2573 70.4733 36.3407C70.0378 37.4241 69.3157 38.3686 68.3843 39.0733C67.453 39.7779 66.3474 40.2162 65.186 40.3411L65.1856 40.3411C64.344 40.4312 63.5127 40.5437 62.7008 40.705M62.7008 40.705C62.7016 40.7048 62.7024 40.7047 62.7032 40.7045L62.5375 39.8944L62.6988 40.7054C62.6994 40.7053 62.7001 40.7051 62.7008 40.705ZM62.7008 40.705C59.0016 41.4619 55.621 43.327 53.0093 46.0517C50.3975 48.7765 48.6785 52.2317 48.0812 55.957M48.0812 55.957C48.0813 55.9564 48.0814 55.9558 48.0815 55.9552L47.2644 55.8282M48.0812 55.957C47.7705 57.9569 47.8135 59.9583 47.8582 62.044C47.8649 62.3573 47.8717 62.6726 47.8773 62.99M48.0812 55.957C48.0811 55.9577 48.081 55.9583 48.0809 55.959L47.2644 55.8282M47.2644 55.8282L47.8773 62.99M93.8831 38.6496C93.8831 38.6496 93.8826 38.6505 93.8815 38.6522C93.8825 38.6504 93.8831 38.6495 93.8831 38.6496ZM81.5719 67.7779C81.7045 67.7216 81.8195 67.654 81.9191 67.5786C81.7375 68.0221 81.5555 68.4654 81.3731 68.9086C81.2523 68.6111 81.1315 68.3137 81.0107 68.0162L81.5719 67.7779ZM97.1801 49.6803L97.2749 49.4463L97.2889 49.4809L97.1801 49.6803ZM59.0587 32.5437C59.0164 32.6978 58.9752 32.8573 58.9286 33.0379C58.9037 33.1346 58.8772 33.2373 58.8481 33.3484L58.0709 33.0519L59.0587 32.5437ZM102.757 62.9332C102.757 62.9328 102.758 62.9337 102.759 62.9361C102.758 62.9345 102.757 62.9335 102.757 62.9332Z" fill="#7047D6" stroke="#433179" stroke-width="1.65379"/>
<path d="M94.7164 56.0202H100.857L97.4119 47.5076L97.1935 47.4967L84.5307 78.7248H78.2463C74.1601 68.6406 70.0636 58.531 65.957 48.3959L71.4966 46.7022C74.7316 54.6843 78.0016 62.7495 81.2716 70.8124L81.4901 70.8386C83.6286 65.6568 85.7103 60.4511 87.8247 55.254C89.9392 50.057 92.0624 44.8097 94.1922 39.5625H100.424C104.938 50.7118 109.453 61.8553 113.967 72.9929L108.312 74.3331C108.255 74.2087 108.155 74.0014 108.069 73.7918C106.632 70.2587 105.197 66.7256 103.764 63.1926C103.351 62.1689 103.454 62.278 102.405 62.2758C99.4172 62.2758 96.4275 62.2758 93.4364 62.2758H92.1694C93.0475 60.1149 93.8667 58.109 94.7164 56.0202Z" fill="#F5F5F5"/>
</g>
<defs>
<filter id="filter0_f_1_253" x="0.840813" y="-29.916" width="177.2" height="177.2" filterUnits="userSpaceOnUse" color-interpolation-filters="sRGB">
<feFlood flood-opacity="0" result="BackgroundImageFix"/>
<feBlend mode="normal" in="SourceGraphic" in2="BackgroundImageFix" result="shape"/>
<feGaussianBlur stdDeviation="28.2065" result="effect1_foregroundBlur_1_253"/>
</filter>
<filter id="filter1_d_1_253" x="45.1257" y="18.559" width="88.7527" height="84.3423" filterUnits="userSpaceOnUse" color-interpolation-filters="sRGB">
<feFlood flood-opacity="0" result="BackgroundImageFix"/>
<feColorMatrix in="SourceAlpha" type="matrix" values="0 0 0 0 0 0 0 0 0 0 0 0 0 0 0 0 0 0 127 0" result="hardAlpha"/>
<feOffset dy="1.43328"/>
<feGaussianBlur stdDeviation="0.937146"/>
<feComposite in2="hardAlpha" operator="out"/>
<feColorMatrix type="matrix" values="0 0 0 0 0 0 0 0 0 0 0 0 0 0 0 0 0 0 0.51 0"/>
<feBlend mode="normal" in2="BackgroundImageFix" result="effect1_dropShadow_1_253"/>
<feBlend mode="normal" in="SourceGraphic" in2="effect1_dropShadow_1_253" result="shape"/>
</filter>
<linearGradient id="paint0_linear_1_253" x1="89.4407" y1="26.4971" x2="89.4407" y2="90.8707" gradientUnits="userSpaceOnUse">
<stop stop-color="white"/>
<stop offset="1" stop-color="#E8E8E8"/>
</linearGradient>
<linearGradient id="paint1_linear_1_253" x1="88.6766" y1="28.2537" x2="88.6766" y2="89.113" gradientUnits="userSpaceOnUse">
<stop stop-color="white"/>
<stop offset="1" stop-color="#E8E8E8"/>
</linearGradient>
<linearGradient id="paint2_linear_1_253" x1="88.6766" y1="28.2537" x2="92.5" y2="91" gradientUnits="userSpaceOnUse">
<stop stop-color="white"/>
<stop offset="1" stop-color="#D1D1D1"/>
</linearGradient>
</defs>
</svg>
