<svg width="310" height="310" viewBox="0 0 310 310" fill="none" xmlns="http://www.w3.org/2000/svg">
<g opacity="0.56">
<path d="M155 205C182.614 205 205 182.614 205 155C205 127.386 182.614 105 155 105C127.386 105 105 127.386 105 155C105 182.614 127.386 205 155 205Z" fill="url(#paint0_linear_363_40)"/>
</g>
<path d="M155 211.5C186.149 211.5 211.4 186.338 211.4 155.3C211.4 124.261 186.149 99.0996 155 99.0996C123.851 99.0996 98.6001 124.261 98.6001 155.3C98.6001 186.338 123.851 211.5 155 211.5Z" fill="url(#paint1_linear_363_40)"/>
<path d="M209.3 155.3C209.3 185.2 185 209.5 154.9 209.5C124.8 209.5 100.5 185.2 100.5 155.3C100.5 125.4 124.8 101.1 154.9 101.1C185 101.1 209.3 125.4 209.3 155.3Z" fill="url(#paint2_linear_363_40)" stroke="#7047D6" stroke-width="4.0725"/>
<g filter="url(#filter0_d_363_40)">
<path d="M176.5 229.3C176.5 223.5 176.5 217.5 176.6 211.6C176.6 208.3 177 205 177.8 201.7C179 197 181.6 192.9 186.5 188.2C187.3 187.4 189 186.3 190.2 185.8L191.6 185.2L191.5 185.1C191.6 185.1 191.7 185.1 191.8 185L203.6 182.4L204.8 182.1C211.9 180.6 218.6 172.3 218.8 164.8L218.9 163.2H196C194.1 158.4 192.1 153.6 190.2 148.8H233.6V148.9C233.6 150.2 233.6 151.5 233.6 152.8C233.6 156.4 233.6 160 233.5 163.6C233.4 166.2 233.1 168.9 232.6 171.6C231.9 175.7 230.1 179.3 227.1 182.9C224 186.6 220.2 189.8 216 192.2C211.8 194.7 206.9 196.1 202 196.4C196.1 196.8 191.2 201.4 190.8 206.9C190.7 208.3 190.7 209.7 190.8 211.2C190.8 211.9 190.8 212.6 190.8 213.3V214.8H196.2C196.2 216.2 196.3 227.1 196.3 229.1L176.5 229.3ZM140.8 172.5L141.9 172C142.2 171.9 142.4 171.7 142.6 171.6C142.2 172.5 141.9 173.3 141.5 174.2C141.2 173.7 141 173.1 140.8 172.5ZM79.6 163.3C79.6 162.7 79.6 162.2 79.6 161.6C79.5 157.7 79.4 154 80 150.3C81.1 143.4 84.3 137.1 89.1 132C94 126.9 100.1 123.5 107 122.1C108.3 121.8 109.8 121.6 111.6 121.4C113.7 121.2 115.8 120.4 117.5 119.1C119.2 117.8 120.5 116.1 121.3 114.1C122.1 112.1 122.3 109.9 122 107.8C121.7 105.7 120.7 103.7 119.4 102C118 100.4 116.2 99.0996 114.2 98.3996C113 97.9996 111.7 97.7996 110.4 97.7996C109.6 97.7996 108.7 97.8996 107.9 98.0996C105.8 98.4996 103.9 99.5996 102.3 101C100.7 102.5 99.6 104.3 99 106.4C99 106.5 99 106.5 99 106.6L85.7 101.5C87.8 93.1996 97 85.2996 106.5 83.8996C107.8 83.6996 109.1 83.5996 110.4 83.5996C114.8 83.5996 119.1 84.6996 122.9 86.6996C127.9 89.3996 132 93.6996 134.4 98.7996C138.8 108.2 137.8 121.8 125.5 130.7L124.6 131.4L130.6 146.9C130.4 146.4 124.3 131.4 124.3 131.4L111.2 135.4L110.6 135.6C104.6 137.4 100.5 139.6 96.8 145.3L96.7 145.4L95 149H116.6C118.5 153.8 120.5 158.6 122.4 163.4H79.6V163.3ZM170.9 138.2L171 138.3L170.6 139.1L170.9 138.2Z" fill="#7047D6"/>
<path d="M110.2 85C114.3 85 118.4 86 122 88C126.7 90.5 130.5 94.6 132.8 99.4C136.6 107.6 136.7 120.4 124.4 129.5L123.9 129.9L122.3 130.4L112.1 133.5L109 134.5C103.3 136.3 99.0002 138.8 95.3002 144.5L95.2002 144.7L95.1002 144.9L94.4002 146.3L92.4002 150.6H97.1002H114.8H115.4C116.9 154.4 118.5 158.2 120 162H81.0002C81.0002 161.9 81.0002 161.8 81.0002 161.8C80.9002 158 80.8002 154.3 81.4002 150.8C82.5002 144.2 85.5002 138.1 90.1002 133.3C94.7002 128.5 100.7 125.2 107.2 123.9C108.5 123.6 109.9 123.4 111.7 123.2C114.1 122.9 116.4 122 118.3 120.6C120.2 119.1 121.7 117.2 122.6 114.9C123.5 112.7 123.8 110.2 123.4 107.8C123 105.4 122 103.2 120.4 101.3C118.8 99.4 116.8 98.1 114.5 97.3C113.1 96.8 111.6 96.6 110.2 96.6C109.3 96.6 108.3 96.7 107.4 96.9C105 97.4 102.8 98.5 101.1 100.2C99.7002 101.5 98.6002 103.1 97.8002 104.9L87.2002 100.9C89.8002 93.6 98.0002 86.9 106.3 85.7C107.7 85.1 109 85 110.2 85ZM232 150.5C232 151.4 232 152.2 232 153.1C232 156.6 232 160.3 231.9 163.8C231.8 166.4 231.5 169 231 171.6C230.3 175.4 228.6 178.8 225.9 182.1C222.9 185.7 219.3 188.7 215.2 191.1C211.2 193.5 206.6 194.9 201.9 195.1C195.2 195.6 189.8 200.7 189.4 207C189.3 208.5 189.3 209.9 189.3 211.4C189.3 212.1 189.3 212.7 189.3 213.4V216.4H192.3H194.7C194.7 217.7 194.7 219.2 194.7 220.8C194.7 223.2 194.7 225.7 194.8 227.7H177.9C177.9 222.4 177.9 216.9 178 211.5C178 208.3 178.4 205.1 179.1 202C180.2 197.6 182.7 193.7 187.3 189.2C188 188.5 189.5 187.5 190.6 187L192.4 186.2L202.1 184.1L202.5 184L205 183.5C205.2 183.5 205.3 183.4 205.5 183.4H205.6C213 181.4 219.9 172.8 220.2 164.9L220.3 161.8H217.2H197.8H196.9C195.4 158 193.8 154.2 192.3 150.4H232M110.2 82C108.8 82 107.5 82.1 106.1 82.3C95.7002 83.9 85.5002 92.8 83.8002 102.4L99.9002 108.5C100.1 107.8 100.2 107.3 100.4 106.7C100.9 104.9 101.9 103.3 103.3 102C104.7 100.7 106.4 99.8 108.2 99.4C108.9 99.2 109.6 99.2 110.4 99.2C111.5 99.2 112.7 99.4 113.8 99.8C115.6 100.4 117.2 101.5 118.4 102.9C119.6 104.3 120.4 106.1 120.7 107.9C121 109.8 120.8 111.7 120.1 113.4C119.4 115.1 118.2 116.7 116.7 117.8C115.2 118.9 113.4 119.6 111.6 119.8C110 120 108.4 120.2 106.9 120.5C99.8002 122 93.2002 125.6 88.2002 130.8C83.2002 136.1 79.8002 142.7 78.7002 149.9C78.0002 154.6 78.3002 159.4 78.3002 164.2C78.3002 164.3 78.3002 164.3 78.3002 164.6H121.8C126 174.8 130.1 185 134.2 195H149L161.4 164.7H180.5L189.4 184.4C188.1 185 186.3 186.2 185.3 187.1C181.2 191.1 177.7 195.6 176.2 201.3C175.4 204.6 175 208.1 175 211.5C174.9 217.4 174.9 223.4 174.9 229.3C174.9 229.7 174.9 230.1 175 230.6H197.8C197.8 228.3 197.7 214.9 197.7 213.3H192.3C192.3 211.1 192.2 209.1 192.3 207C192.6 202.2 196.9 198.2 202.1 197.9C207.3 197.6 212.3 196.1 216.7 193.5C221 190.9 224.9 187.7 228.2 183.8C231.1 180.3 233.2 176.4 234 171.9C234.5 169.2 234.8 166.5 234.9 163.7C235.1 158.7 235 153.8 235 148.8C235 148.3 234.9 147.8 234.8 147.3H190.9C190.6 146.7 190.4 146.3 190.2 145.8C186.5 136.7 182.7 127.6 179 118.4C178.3 116.8 178.4 116.8 176.6 116.8H165.2C165 116.8 164.8 116.8 164.7 116.8C163.3 116.8 163.4 116.9 162.7 118.5C155.9 135.3 149.1 152.1 142.2 168.9C142 169.4 142 170.1 141.2 170.4L126.1 131.6C139.4 121.8 139.9 107.4 135.5 97.8C132.9 92.3 128.7 87.9 123.4 85C119.3 83.1 114.8 82 110.2 82ZM141.7 177.7C145.7 168.1 149.5 158.5 153.4 148.9C157.3 139.3 161.2 129.6 165.2 119.9H176.7C185 140.5 193.2 160.7 201.5 181.3L191.2 183.5H191.1C191 183.5 190.9 183.4 190.8 183.1C188.1 176.6 185.5 170 182.8 163.5C182.2 161.9 182.2 161.8 181.1 161.8C180.9 161.8 180.6 161.8 180.3 161.8C174.8 161.8 169.3 161.8 163.7 161.8H161.4C163 157.8 164.5 154.1 166.1 150.2H177.4L171 134.5H170.6L147.2 192.2H135.6C128 173.5 120.5 154.8 112.9 136.2L123.1 133.1C129.1 147.8 135.1 162.7 141.2 177.6L141.7 177.7ZM97.2002 147.4L97.9002 146C101.3 140.7 105.1 138.7 110.8 136.9C112.1 140.2 113.5 144 114.9 147.3C108.2 147.4 103.9 147.4 97.2002 147.4ZM168.4 147.4C169.2 145.4 170 143.6 170.7 141.8L170.9 141.4L171.1 141.9C171.8 143.7 172.6 145.5 173.4 147.5H168.4V147.4ZM217.2 164.9C216.9 172 210.4 179.5 204.3 180.8C202.2 175.6 200 170.4 197.8 164.9H217.2Z" fill="#433179"/>
</g>
<g filter="url(#filter1_d_363_40)">
<path d="M166.1 150.4H177.4L171 134.7H170.6L147.2 192.4H135.6C128.1 173.8 120.5 155.1 112.9 136.4L123.1 133.3C129.1 148 135.1 162.9 141.2 177.8H141.6C145.5 168.2 149.4 158.6 153.3 149C157.2 139.4 161.1 129.7 165.1 120H176.6C184.9 140.6 193.3 161.2 201.6 181.7L191.2 184.2C191.1 184 190.9 183.6 190.8 183.2C188.1 176.7 185.5 170.1 182.8 163.6C182 161.7 182.2 161.9 180.3 161.9C174.8 161.9 169.3 161.9 163.7 161.9H161.4C163 157.9 164.6 154.2 166.1 150.4Z" fill="white"/>
</g>
<g filter="url(#filter2_dd_363_40)">
<path d="M86.7027 275L73.2729 245.622H82.7157L91.6969 266.522L100.72 245.622H110.121L96.6911 275H86.7027ZM130.63 245.622L144.144 275H134.743L131.176 266.984H120.012L116.445 275H107.128L120.6 245.622H130.63ZM128.784 260.437L125.594 253.261L122.404 260.437H128.784ZM146.459 265.389V258.381H163.456V265.389H146.459ZM170.741 275V245.622H189.668C196.131 245.622 200.496 248.896 200.496 254.645C200.496 261.57 195.124 263.711 187.318 263.711H179.26V275H170.741ZM189.248 252.295H179.26V256.996H189.248C190.801 256.996 191.767 256.156 191.767 254.645C191.767 253.177 190.843 252.295 189.248 252.295ZM236.139 252.253L228.627 256.408C227.326 253.764 224.514 252.295 220.569 252.295C215.155 252.295 211.336 255.065 211.336 260.353C211.336 265.599 215.155 268.411 220.569 268.411C224.556 268.411 227.41 266.858 228.753 264.214L236.265 268.327C233.621 272.608 228.165 275.755 220.569 275.755C209.783 275.755 202.565 270.174 202.565 260.353C202.565 250.533 209.783 244.951 220.569 244.951C228.081 244.951 233.495 248.015 236.139 252.253Z" fill="url(#paint3_linear_363_40)"/>
</g>
<defs>
<filter id="filter0_d_363_40" x="74.2363" y="80" width="164.789" height="156.6" filterUnits="userSpaceOnUse" color-interpolation-filters="sRGB">
<feFlood flood-opacity="0" result="BackgroundImageFix"/>
<feColorMatrix in="SourceAlpha" type="matrix" values="0 0 0 0 0 0 0 0 0 0 0 0 0 0 0 0 0 0 127 0" result="hardAlpha"/>
<feOffset dy="2"/>
<feGaussianBlur stdDeviation="2"/>
<feComposite in2="hardAlpha" operator="out"/>
<feColorMatrix type="matrix" values="0 0 0 0 0 0 0 0 0 0 0 0 0 0 0 0 0 0 0.53 0"/>
<feBlend mode="normal" in2="BackgroundImageFix" result="effect1_dropShadow_363_40"/>
<feBlend mode="normal" in="SourceGraphic" in2="effect1_dropShadow_363_40" result="shape"/>
</filter>
<filter id="filter1_d_363_40" x="104.9" y="117" width="104.7" height="88.4004" filterUnits="userSpaceOnUse" color-interpolation-filters="sRGB">
<feFlood flood-opacity="0" result="BackgroundImageFix"/>
<feColorMatrix in="SourceAlpha" type="matrix" values="0 0 0 0 0 0 0 0 0 0 0 0 0 0 0 0 0 0 127 0" result="hardAlpha"/>
<feOffset dy="5"/>
<feGaussianBlur stdDeviation="4"/>
<feComposite in2="hardAlpha" operator="out"/>
<feColorMatrix type="matrix" values="0 0 0 0 0 0 0 0 0 0 0 0 0 0 0 0 0 0 0.28 0"/>
<feBlend mode="normal" in2="BackgroundImageFix" result="effect1_dropShadow_363_40"/>
<feBlend mode="normal" in="SourceGraphic" in2="effect1_dropShadow_363_40" result="shape"/>
</filter>
<filter id="filter2_dd_363_40" x="59.219" y="231.762" width="191.1" height="58.9125" filterUnits="userSpaceOnUse" color-interpolation-filters="sRGB">
<feFlood flood-opacity="0" result="BackgroundImageFix"/>
<feColorMatrix in="SourceAlpha" type="matrix" values="0 0 0 0 0 0 0 0 0 0 0 0 0 0 0 0 0 0 127 0" result="hardAlpha"/>
<feOffset dy="0.864857"/>
<feGaussianBlur stdDeviation="7.02696"/>
<feComposite in2="hardAlpha" operator="out"/>
<feColorMatrix type="matrix" values="0 0 0 0 1 0 0 0 0 1 0 0 0 0 1 0 0 0 0.17 0"/>
<feBlend mode="normal" in2="BackgroundImageFix" result="effect1_dropShadow_363_40"/>
<feColorMatrix in="SourceAlpha" type="matrix" values="0 0 0 0 0 0 0 0 0 0 0 0 0 0 0 0 0 0 127 0" result="hardAlpha"/>
<feOffset dy="1.96407"/>
<feComposite in2="hardAlpha" operator="out"/>
<feColorMatrix type="matrix" values="0 0 0 0 0.262745 0 0 0 0 0.192157 0 0 0 0 0.47451 0 0 0 1 0"/>
<feBlend mode="normal" in2="effect1_dropShadow_363_40" result="effect2_dropShadow_363_40"/>
<feBlend mode="normal" in="SourceGraphic" in2="effect2_dropShadow_363_40" result="shape"/>
</filter>
<linearGradient id="paint0_linear_363_40" x1="155" y1="105" x2="155" y2="205" gradientUnits="userSpaceOnUse">
<stop stop-color="white"/>
<stop offset="1" stop-color="#E8E8E8"/>
</linearGradient>
<linearGradient id="paint1_linear_363_40" x1="154.973" y1="99.0914" x2="154.973" y2="211.494" gradientUnits="userSpaceOnUse">
<stop stop-color="white"/>
<stop offset="1" stop-color="#E8E8E8"/>
</linearGradient>
<linearGradient id="paint2_linear_363_40" x1="155.782" y1="130.073" x2="153.282" y2="208.073" gradientUnits="userSpaceOnUse">
<stop stop-color="white"/>
<stop offset="1" stop-color="#DDDDDD"/>
</linearGradient>
<linearGradient id="paint3_linear_363_40" x1="155" y1="244" x2="155" y2="286" gradientUnits="userSpaceOnUse">
<stop stop-color="white"/>
<stop offset="0.395833" stop-color="white"/>
<stop offset="0.463542" stop-color="#D6D6D4"/>
</linearGradient>
</defs>
</svg>
