<svg width="356" height="95" viewBox="0 0 356 95" fill="none" xmlns="http://www.w3.org/2000/svg">
<g clip-path="url(#clip0_1_1398)">
<path d="M104.451 44.6781L105.815 40.3004L101.303 40.4421C100.921 40.4421 98.1502 40.3634 95.4619 38.4088C95.6622 38.4286 95.8625 38.4561 96.0671 38.4561C98.8343 38.4561 101.511 36.7854 102.584 34.3973L104.526 30.0826C102.093 30.1141 99.8681 29.8068 99.8681 29.8068C99.8483 29.8027 98.0952 29.5783 96.0671 27.5014C94.6125 26.012 92.8125 25.2237 90.8627 25.2237C90.01 25.2237 89.2472 25.3774 88.5909 25.5863C88.6931 25.2357 88.7912 24.8809 88.8466 24.5144C89.4673 20.4754 86.8733 17.3939 86.8733 17.3981L83.4811 13.1856L81.3782 18.1348C81.3702 18.1506 80.8396 19.3093 79.8884 19.8765C79.6015 18.4225 78.898 16.7872 77.3925 15.2228C74.5544 12.2752 71.0995 11.8378 69.2913 11.8378C68.4539 11.8378 67.8567 11.9285 67.711 11.9521L63.6155 12.7601C63.8512 11.842 64.3544 10.2459 65.2741 8.80761L67.5344 5.277L61.8466 5.92719L60.0345 2.06928L56.5285 3.88201L53.2857 0.67041L50.0505 3.88201L46.5326 2.06928L44.7245 5.92719L39.0409 5.277L41.3047 8.80761C42.2246 10.2459 42.7278 11.8378 42.9598 12.756L39.0524 11.9837L38.9189 11.9601C38.7223 11.9285 38.1289 11.8378 37.2877 11.8378C35.4795 11.8378 32.0246 12.2791 29.1943 15.2228C27.6849 16.7834 26.9814 18.4225 26.6906 19.8765C25.7473 19.317 25.2204 18.1742 25.2204 18.1742L23.1136 13.1973L19.6666 17.4374C19.2458 17.985 17.1667 20.8815 17.7326 24.5224C17.7916 24.885 17.8859 25.2396 17.9882 25.5904C17.3357 25.3815 16.573 25.2278 15.7202 25.2278C13.7705 25.2278 11.9703 26.016 10.512 27.5056C8.49145 29.5743 6.74625 29.8068 6.76216 29.8068C6.76216 29.8068 4.91857 30.1376 2.06494 30.0863L3.99486 34.4014C5.06807 36.7934 7.74857 38.4602 10.512 38.4602C10.7204 38.4602 10.9207 38.4324 11.1252 38.4128C8.44445 40.3673 5.67328 40.4461 5.33908 40.45L0.740234 40.3004L2.13173 44.6742C2.83145 46.9284 5.17005 50.6639 9.65126 51.0657C9.16371 53.1149 8.08278 55.4083 5.70872 56.3973L2.28508 57.8119L4.15205 61.0708C5.20551 62.8283 7.67793 64.8851 11.1997 64.8851C11.9624 64.8812 12.6973 64.8063 13.405 64.6568C13.5858 65.4606 13.8137 66.2646 14.0811 67.0603C15.1304 70.1891 14.2265 72.3721 14.2146 72.3958L12.5244 75.9462L16.2979 76.9432C16.3452 76.9589 17.4849 77.2702 18.9119 77.2702C19.5605 77.2702 20.1774 77.2033 20.7593 77.0655C21.1994 76.9628 21.6202 76.825 22.0249 76.6594C22.5123 77.5381 23.1059 78.3382 23.7977 79.0551C26.2152 81.5418 29.6388 82.8026 33.9781 82.8026H33.9938L37.0913 82.7633L30.692 85.4271L35.5504 87.7797C37.3153 88.6427 39.4102 89.663 41.5407 90.4433L40.9354 92.1064L42.6099 92.8708C42.7591 92.9376 45.9784 94.3839 51.3322 94.6912C51.3322 94.6912 52.6253 94.7504 53.3366 94.7504C54.0481 94.7504 55.3255 94.6875 55.3255 94.6875C60.644 94.3721 63.8393 92.9417 63.9889 92.8708L65.6671 92.1025L65.054 90.4357C67.2474 89.6317 69.417 88.5715 71.1073 87.7442L75.8751 85.4232L69.4955 82.7556L72.6048 82.795C76.9484 82.795 80.3759 81.5339 82.7891 79.0436C83.477 78.3303 84.0708 77.5304 84.5621 76.6516C84.967 76.8172 85.3913 76.955 85.8315 77.0575C86.4093 77.1953 87.0266 77.2625 87.6751 77.2625C89.0782 77.2625 90.2301 76.9513 90.2614 76.9432L94.0507 75.9385L92.3997 72.455C92.3604 72.3643 91.4564 70.1851 92.5059 67.0525C92.7731 66.2526 92.9971 65.4488 93.1779 64.6487C93.8896 64.7985 94.6323 64.8773 95.399 64.8773C99.8836 64.8773 102.034 61.713 102.45 61.0274L104.298 57.8042L100.874 56.3934C98.4962 55.4042 97.4193 53.1069 96.9358 51.062C101.354 50.6835 103.728 46.948 104.451 44.6781ZM43.2582 14.2652L43.2114 14.2771L43.2506 14.2258L43.2582 14.2652Z" fill="white"/>
<path d="M53.2912 14.0728C49.667 14.0766 46.9511 15.2666 46.3574 16.6655L53.2912 19.4083L60.2249 16.6655C59.6353 15.2666 56.9192 14.0766 53.2912 14.0728Z" fill="white"/>
<path d="M53.3583 86.676H53.3503H53.2913H53.2244H53.2205C51.0232 86.6918 48.0006 86.2385 46.5423 85.813L44.7891 90.5691C45.9448 90.9831 49.8598 91.771 53.2913 91.771C56.7149 91.771 60.6338 90.9792 61.7855 90.5691L60.0362 85.813C58.5742 86.2424 55.5552 86.6918 53.3583 86.676Z" fill="white"/>
<path d="M66.6286 81.9482C65.3236 82.6891 62.4109 83.8002 60.7168 84.3165L62.1397 88.2451C64.7614 87.5278 66.9232 86.6887 68.7119 85.7902L65.7598 84.8049L66.6286 81.9482Z" fill="white"/>
<path d="M39.9583 81.9482L40.8308 84.8049L37.875 85.7902C39.6595 86.6887 41.8331 87.5278 44.4431 88.2451L45.866 84.3165C44.1797 83.8002 41.2631 82.685 39.9583 81.9482Z" fill="white"/>
<path d="M53.2898 9.52524C56.0216 9.52524 58.7023 10.1793 60.7619 11.3302C60.9507 10.6956 61.214 9.92717 61.5716 9.1233L60.7935 9.21789L59.9758 9.3047L59.6298 8.55992L58.5882 6.35329L56.6897 7.34607L55.9508 7.72443L55.3612 7.14135L53.2975 5.09229L51.2379 7.14135L50.6483 7.72443L49.9094 7.34607L47.999 6.35329L46.9692 8.55992L46.6156 9.3047L45.7978 9.21789L45.0195 9.1233C45.3774 9.93105 45.6368 10.6956 45.8293 11.3302C47.893 10.1793 50.5657 9.52524 53.2898 9.52524Z" fill="white"/>
<path d="M94.9996 35.0281C95.3536 35.1503 95.7149 35.2053 96.0728 35.2053C97.6174 35.2053 99.1112 34.2046 99.626 33.0578C99.626 33.0578 96.792 32.8845 93.7457 29.7832C92.7751 28.7783 91.749 28.479 90.8686 28.479C89.5006 28.479 88.4746 29.204 88.4746 29.204C92.1539 31.1664 92.9044 34.3188 94.9996 35.0281Z" fill="white"/>
<path d="M10.5104 35.2053C10.868 35.2053 11.2297 35.1503 11.5757 35.0281C13.6785 34.3188 14.4332 31.1664 18.1124 29.204C18.1124 29.204 17.0824 28.479 15.7225 28.479C14.838 28.479 13.8121 28.7783 12.8372 29.7832C9.79505 32.8845 6.96094 33.0578 6.96094 33.0578C7.46802 34.2046 8.9656 35.2053 10.5104 35.2053Z" fill="white"/>
<path d="M95.9974 47.8386C96.0604 47.8423 96.1154 47.8423 96.1822 47.8423C100.038 47.8423 101.347 43.7006 101.347 43.7006H101.272C100.565 43.7006 94.83 43.5354 90.7774 38.3692C88.1086 34.9728 85.9229 31.9857 81.603 30.8113L81.1787 30.7364L81.0843 30.3031C80.9664 29.641 81.4185 29.0224 82.4445 28.3525C88.4033 24.4397 84.3585 19.4508 84.3585 19.4508C84.3585 19.4508 82.6566 23.4427 78.8479 23.4427C78.7574 23.4427 78.6591 23.4386 78.5648 23.4386C78.1326 23.415 77.7158 23.3992 77.295 23.3088L76.5915 23.1706C76.5915 23.1706 77.6766 20.2114 75.0586 17.4925C73.0853 15.4395 70.6838 15.0928 69.2962 15.0928C68.5964 15.0928 68.1523 15.1832 68.1523 15.1832C69.4691 16.9091 70.4203 19.7701 68.8993 21.5354C67.5865 23.0524 64.3789 23.1273 64.3789 25.3891C64.3789 26.3468 65.2712 27.466 66.8749 28.4707C71.6979 31.5167 76.4854 35.5557 78.4743 40.9702C80.9625 47.7241 78.16 52.2047 74.1585 54.7739C74.1585 54.7739 75.4124 55.9322 77.2324 56.078C77.6018 56.1135 77.9635 56.1292 78.3016 56.1292C82.1418 56.1292 84.1268 54.3244 84.1268 54.3244C84.1268 54.3244 83.8004 56.8187 81.7996 59.1358C79.9563 61.2756 77.5349 62.5327 73.844 62.5878C73.844 62.5878 73.726 64.3057 75.3613 65.7914C76.4067 66.7293 78.8242 67.0366 78.8242 67.0366C78.8242 67.0366 74.2999 67.9547 73.8008 74.6537C73.5294 78.2827 72.6058 79.5437 72.6058 79.5437H72.6886C83.1872 79.5437 82.916 70.5162 82.916 70.5162C82.916 70.5162 83.6471 73.1877 86.5755 73.8852C86.9291 73.9799 87.3066 74.0154 87.6681 74.0154C88.6118 74.0154 89.4291 73.7947 89.4291 73.7947C89.4291 73.7947 87.8962 70.5517 89.4173 66.016C90.6791 62.2528 90.4747 59.463 90.4747 59.463C90.4747 59.463 91.8897 61.6066 95.3961 61.6264H95.4313C98.3519 61.6264 99.6253 59.4079 99.6253 59.4079C92.6249 56.4957 93.3167 47.0938 93.3167 47.0938C93.3167 47.0938 94.2248 47.7714 95.9974 47.8386ZM93.8904 57.658C91.0446 56.2515 89.2444 52.5159 88.8082 51.168C88.3363 58.5763 84.7281 63.7187 80.5104 68.6679C78.321 71.2332 77.5586 73.7274 77.5586 73.7274C77.5586 73.7274 77.9791 70.9023 79.8735 68.6011C83.8083 63.8604 87.5465 57.9616 87.8255 51.1406C88.018 46.3804 86.7956 42.5188 84.8893 39.3389C85.9544 42.6528 85.8052 46.7114 82.1849 50.4981C82.1849 50.4981 89.3899 41.8408 79.3155 32.9669C75.2826 29.59 70.8724 27.5054 68.6007 26.0277C76.8077 28.7111 80.8133 25.7557 80.8133 25.7557C78.1912 28.0332 74.7993 27.9938 72.6961 27.6669C73.2662 27.9467 73.8599 28.2382 74.5004 28.581C81.4185 32.3483 87.6369 38.5466 88.698 47.1332V47.066C90.3096 55.4947 93.8904 57.658 93.8904 57.658Z" fill="white"/>
<path d="M27.7572 67.0366C27.7572 67.0366 30.1746 66.7332 31.2203 65.7914C32.8513 64.3057 32.7376 62.5878 32.7376 62.5878C29.0427 62.5364 26.6253 61.2756 24.7701 59.1399C22.7849 56.8228 22.4548 54.3284 22.4548 54.3284C22.4548 54.3284 24.4396 56.1333 28.2761 56.1333C28.6221 56.1333 28.9798 56.1174 29.3491 56.082C31.1692 55.9361 32.4269 54.7776 32.4269 54.7776C28.4253 52.2084 25.6191 47.7241 28.1032 40.9702C30.0961 35.5596 34.8796 31.5167 39.7028 28.4707C41.3064 27.466 42.1986 26.3505 42.1986 25.3891C42.1986 23.1273 38.9951 23.0524 37.6821 21.5354C36.1612 19.7701 37.1163 16.9052 38.4291 15.1832C38.4291 15.1832 37.9927 15.0928 37.2891 15.0928C35.9056 15.0928 33.5038 15.4395 31.5307 17.4925C28.905 20.2114 29.9939 23.1706 29.9939 23.1706L29.2902 23.3088C28.8698 23.3992 28.449 23.415 28.0206 23.4386C27.9225 23.4386 27.8358 23.4427 27.7416 23.4427C23.9249 23.4427 22.2308 19.4547 22.2308 19.4547C22.2308 19.4547 18.186 24.4436 24.141 28.3564C25.167 29.0263 25.6152 29.6449 25.4973 30.307L25.4027 30.7405L24.9704 30.8154C20.6585 31.9896 18.4691 34.9765 15.8002 38.3732C11.7554 43.5315 6.02839 43.7006 5.31325 43.7006H5.23438C5.23438 43.7006 6.54343 47.8423 10.3994 47.8423C10.4623 47.8423 10.5173 47.8423 10.5841 47.8386C12.3568 47.7753 13.2687 47.0938 13.2687 47.0938C13.2687 47.0938 13.9527 56.4916 6.96007 59.4079C6.96007 59.4079 8.23367 61.6264 11.1541 61.6264H11.1895C14.6995 61.6066 16.1108 59.463 16.1108 59.463C16.1108 59.463 15.9063 62.2528 17.1642 66.016C18.6852 70.5517 17.1601 73.7947 17.1601 73.7947C17.1601 73.7947 17.9777 74.0154 18.9171 74.0154C19.2827 74.0154 19.6562 73.9799 20.006 73.8852C22.9302 73.1877 23.6654 70.5162 23.6654 70.5162C23.6654 70.5162 23.398 79.5437 33.8971 79.5437H33.9715C33.9715 79.5437 33.0519 78.2827 32.7846 74.6537C32.2816 67.9547 27.7572 67.0366 27.7572 67.0366ZM26.0712 68.6679C21.8535 63.7187 18.249 58.5763 17.7733 51.168C17.3371 52.512 15.5446 56.2515 12.6989 57.658C12.6989 57.658 16.2757 55.4947 17.8835 47.066V47.1332C18.9487 38.5507 25.1631 32.3483 32.0848 28.581C32.7178 28.2343 33.3191 27.9428 33.8852 27.6669C31.7823 27.9938 28.3901 28.0332 25.7683 25.7557C25.7683 25.7557 29.7736 28.7111 37.977 26.0277C35.7053 27.5054 31.2987 29.59 27.2658 32.9669C17.1876 41.8408 24.3965 50.4981 24.3965 50.4981C20.7725 46.7073 20.6272 42.6528 21.6922 39.3389C19.782 42.5227 18.5634 46.3804 18.7599 51.1406C19.035 57.9616 22.773 63.8604 26.6999 68.6011C28.5986 70.8984 29.027 73.7274 29.027 73.7274C29.027 73.7274 28.2563 71.2332 26.0712 68.6679Z" fill="white"/>
<path d="M45.5285 34.0319C45.7012 34.217 45.8702 34.4183 46.0317 34.619C46.0709 34.6664 46.1061 34.7097 46.1453 34.765C46.2949 34.9657 46.4482 35.1787 46.5937 35.3953C46.625 35.4386 46.6567 35.49 46.6918 35.541C46.8688 35.8091 47.034 36.085 47.1989 36.3689C48.7122 38.989 51.1376 40.5535 53.2875 40.5574C55.4416 40.5535 57.859 38.989 59.3802 36.3689C59.5493 36.077 59.7183 35.7934 59.8949 35.5294C59.9225 35.49 59.9503 35.4545 59.9736 35.4151C60.123 35.1905 60.2804 34.9698 60.4455 34.757C60.4807 34.7097 60.5121 34.6703 60.5436 34.6309C60.7126 34.422 60.8855 34.2172 61.0625 34.0278C61.0938 33.9965 61.1173 33.9688 61.1449 33.9453C61.9152 33.1533 62.8352 32.5502 64.0378 32.2154L63.5033 31.9042H63.472L61.3413 30.6629L59.1522 29.4058L53.3033 32.5976L53.2875 32.5857L53.2757 32.5976L47.4229 29.4058L45.2376 30.6588L43.1032 31.9001H43.0795L42.5371 32.2115C43.7438 32.5463 44.6596 33.1413 45.4341 33.9334C45.4692 33.9649 45.4929 34.0004 45.5285 34.0319ZM50.9212 33.7758H53.3975H55.8699V35.478C55.2885 34.765 54.1564 34.9108 54.1564 34.9108V37.3657C54.1564 37.3657 54.1995 38.5715 54.6199 39.0954H53.3975H52.1712C52.5996 38.5754 52.639 37.3657 52.639 37.3657V34.9108C52.639 34.9108 51.5108 34.765 50.9212 35.478V33.7758Z" fill="white"/>
<path d="M52.7833 30.4719V20.5065L46.455 18.3547L48.1254 28.0131L52.7833 30.4719ZM51.4233 22.9536V24.5533L51.1168 24.4114C51.101 24.3997 50.653 24.2972 49.8668 23.6745C48.5697 22.6659 48.5462 21.7358 48.5462 21.7358L51.4233 22.9536Z" fill="white"/>
<path d="M58.4606 28.0134L60.1233 18.355L53.7988 20.5068V30.4722L58.4606 28.0134ZM55.159 22.9538L58.0359 21.74C58.0359 21.74 58.0126 22.67 56.7115 23.6786C55.9293 24.3013 55.4772 24.4036 55.4615 24.4156L55.1547 24.5573V22.9538H55.159Z" fill="white"/>
<path d="M43.8339 53.5764C44.4511 53.8008 45.1979 53.8483 45.5791 53.8483C45.5951 53.8008 45.6145 53.7416 45.6343 53.6709C45.6695 53.5566 45.7011 53.4463 45.7248 53.3201C45.8309 52.7687 45.8702 52.1421 45.8779 51.7401C45.6184 51.5784 45.2529 51.2907 45.0487 50.8612C44.8129 50.3648 44.4787 50.1362 43.9872 50.1362C43.3505 50.1362 42.6666 50.5184 42.3756 50.6999C42.144 52.0749 43.1539 53.3242 43.8339 53.5764Z" fill="white"/>
<path d="M57.83 48.2876C56.6548 49.5683 54.3553 51.7987 54.2412 51.913L54.1037 52.0549L46.8359 51.9404C46.8319 52.6617 46.7139 53.2764 46.6001 53.7256C46.5805 53.8005 46.5608 53.8793 46.541 53.9581L55.1885 55.5147C56.0886 54.8842 58.565 53.0714 59.5241 52.3622C58.8243 51.3377 58.7575 50.1239 58.9147 49.269C58.4589 48.9734 58.109 48.6424 57.83 48.2876Z" fill="white"/>
<path d="M58.8175 39.5247C57.1427 41.1914 55.5353 41.8061 54.1007 41.948C53.8411 41.9756 53.5779 41.9911 53.3105 41.9911H53.2907H53.275C53.0078 41.9911 52.7405 41.9756 52.4809 41.948C52.2295 41.9243 51.9663 41.8849 51.703 41.8259C51.6084 42.2001 51.4905 42.9842 51.8285 43.7251C52.1312 44.399 52.7485 44.8994 53.6486 45.2306L53.9511 45.3486L53.9552 45.6757C53.9552 45.7741 54.0259 47.8942 56.3332 48.4813C56.7105 48.0912 57.0524 47.7406 57.3042 47.4487C56.8323 46.3376 57.0798 45.2028 57.7639 44.6471C57.7326 44.7653 57.4338 47.5475 59.6587 48.5797L60.0242 48.7533L59.914 49.1434C59.8784 49.2615 59.1357 51.953 61.8283 52.9538L62.3039 53.1351L62.0915 53.6002C62.0445 53.7025 60.9872 56.1458 63.4754 57.5327H68.872V53.2376C66.954 53.001 66.1402 51.4565 65.9319 50.3609C65.0398 50.2072 64.3479 49.8211 63.876 49.1906C62.7439 47.6971 63.7188 46.3298 63.7307 46.2549C63.7268 46.2669 63.7307 47.7247 64.6269 48.6232C65.071 49.0565 65.5979 49.3917 66.3956 49.4666L66.7887 49.502L66.8242 49.904C66.8318 49.9905 67.0482 51.9609 68.8759 52.2721L68.872 43.5005C68.872 42.1411 69.2691 40.7738 69.7447 39.5127H58.8175V39.5247Z" fill="white"/>
<path d="M44.2935 43.5427L44.1482 49.1305L44.7808 49.2252L46.3296 43.8659L45.5435 42.2188L44.2935 43.5427Z" fill="white"/>
<path d="M61.3694 69.1686C61.4166 69.1686 61.4716 69.1766 61.5227 69.1883C62.4858 69.4643 62.7296 72.9476 64.4197 73.2589C64.5848 73.2944 64.7381 73.3022 64.8718 73.3022C65.3592 73.3022 65.6501 73.0933 65.9644 72.723C65.9644 72.723 65.1154 71.3832 64.4787 70.481C63.6336 69.2987 62.9773 67.8681 61.405 67.8681C61.3694 67.8681 61.3224 67.8681 61.2832 67.8724C60.7642 67.8998 60.4458 68.1519 60.4458 68.1519C59.809 67.7501 59.2156 67.6121 58.6769 67.6121C57.6905 67.6121 56.924 68.0655 56.5425 68.0655H56.5269L53.0128 67.7187C52.4625 67.6674 52.0303 67.1117 51.8731 66.8951C51.8337 66.8358 51.814 66.8005 51.814 66.8005C51.814 66.7058 51.814 66.6074 51.8063 66.5206C51.6883 63.6402 49.4636 62.4067 48.6735 62.387C48.6735 62.387 48.7677 61.8393 48.5516 61.6306L47.7772 62.5722L45.2341 61.2915L47.0461 63.4156L45.5092 65.1453C45.3164 65.3426 45.3401 65.6106 45.4188 65.7207L46.0831 66.3079L46.9243 65.7956C46.9675 65.7642 47.0423 65.7562 47.1365 65.7562C47.3685 65.7562 47.7184 65.8152 48.0327 65.8152C48.3746 65.8152 48.6735 65.7403 48.7088 65.4171C48.6027 66.4851 47.6162 68.341 48.2647 69.7991L48.7444 70.8986L45.639 70.4492L44.1846 72.9121C43.7365 73.7318 43.6658 74.6183 44.0981 75.0991L44.6403 75.781C44.6403 75.781 45.4031 74.969 45.576 74.437L45.3283 74.1652C45.12 73.9366 45.1319 73.7318 45.2578 73.4837L46.1695 71.9663L49.8368 72.8334L50.0293 72.5023C50.2771 72.0886 50.6349 71.9623 51.028 71.9623C51.189 71.9623 51.3542 71.9821 51.5271 72.0098C52.2073 72.1438 53.3275 72.3249 54.4477 72.3249C55.6779 72.3249 56.8965 72.1044 57.5448 71.3755C58.8735 73.3496 61.566 73.6648 61.3537 74.6656L60.6463 78.0468C61.1141 78.027 61.566 77.9954 61.9944 77.9362L62.6667 74.4172C62.7415 74.035 62.812 73.5188 62.812 73.5188C62.5526 73.255 61.9237 72.6954 61.5701 72.0176C61.0943 71.1033 61.3537 70.6266 60.9096 69.4365C60.9253 69.4445 61.059 69.1686 61.3694 69.1686ZM47.6515 64.2272C47.4706 64.2233 47.3409 64.0696 47.3486 63.8885C47.3646 63.715 47.5099 63.5771 47.6867 63.5927C47.8676 63.6008 47.9973 63.7584 47.9896 63.9318C47.9736 64.1051 47.8244 64.2392 47.6515 64.2272Z" fill="white"/>
<path d="M42.6428 72.3681C42.6428 72.3681 43.8572 71.8677 43.9672 71.509L43.8062 71.1031C43.6921 70.8391 43.7078 70.5514 43.928 70.394L45.2407 69.4836L47.4342 69.9052C47.4342 69.9052 47.0371 69.4087 47.0765 68.7427L44.9854 68.2974L43.0121 69.5032C42.167 70.1376 42.104 71.1739 42.3832 71.7885L42.6428 72.3681Z" fill="white"/>
<path d="M58.1445 78.0977C58.5376 78.082 58.9698 78.0741 59.4456 78.0741C59.4456 78.0741 60.5738 74.768 60.6364 74.6618C60.0038 74.3819 58.6909 73.6841 58.1838 73.3652C58.5179 73.8656 59.3316 74.4409 59.1705 74.8823L58.1445 78.0977Z" fill="white"/>
<path d="M68.8832 58.4906H37.701V70.249C37.701 75.0565 41.1721 78.0673 46.2936 78.0673C50.5742 78.0673 51.702 78.2325 53.2942 79.8168C54.3909 78.7213 55.299 78.3113 57.1619 78.1576L57.2051 77.9765L58.1878 74.9305C58.1328 74.8635 56.5253 73.0313 56.5253 73.0313C55.8884 73.2441 55.354 73.2796 54.4538 73.2796C53.53 73.2796 52.4885 73.173 51.3603 72.9603C51.2462 72.9329 51.1402 72.9248 51.0339 72.9248C50.8963 72.9248 50.8847 72.9366 50.8493 73.0036L50.6527 73.3266L50.295 73.9178L49.623 73.7641L46.6316 73.0587L46.2227 73.7367L46.2856 73.8074L46.6513 74.2094L46.4902 74.7335C46.2699 75.4191 45.5545 76.219 45.3385 76.4399L44.5915 77.2437L43.9117 76.3807L43.4007 75.7384C42.862 75.1355 42.7365 74.2094 43.039 73.2402C43.031 73.2478 43.0191 73.2518 43.0077 73.2518L42.1626 73.6026L41.781 72.7749L41.5138 72.1881C41.0542 71.1555 41.2228 69.6463 42.4614 68.7359L44.8709 67.3725L47.1624 67.8259C47.2174 67.605 47.2998 66.8169 47.3666 66.6162C47.3235 66.6123 47.2803 66.6003 47.2368 66.6003L45.9163 67.0928L44.6426 66.2103C44.6426 66.2103 44.1435 65.7293 44.5954 65.2487L45.8296 63.3771L42.7048 59.4441L47.508 61.4226L47.8267 61.0245L48.475 60.2481L49.2102 60.9496C49.4184 61.1505 49.5364 61.3987 49.5952 61.647C50.9198 62.1632 53.2901 63.6883 53.4984 66.1667L52.7556 66.4662V66.486C52.9246 66.6869 53.0661 66.7698 53.1092 66.7775L56.5369 67.1166C56.6234 67.1007 56.7336 67.0613 56.8554 67.0258C57.2799 66.8802 57.9206 66.6713 58.6791 66.6713C59.2963 66.6713 59.8936 66.813 60.4675 67.0811C60.6798 67.0023 60.9394 66.9431 61.2382 66.9235L61.4029 66.9196C63.2387 66.9196 64.1505 68.2945 64.882 69.3904C65.0036 69.5791 65.1254 69.7606 65.2513 69.9378C65.8918 70.8443 66.729 72.1722 66.7646 72.2275L67.1419 72.8186L66.6779 73.3584C66.3204 73.7719 65.7858 74.2568 64.866 74.2568C64.6774 74.2568 64.4691 74.237 64.2451 74.1935C64.0487 74.1583 63.8717 74.0989 63.6988 74.0281C63.6712 74.2094 63.6358 74.4262 63.6003 74.6112L62.999 77.7558C66.5955 76.8693 68.8793 74.1463 68.8793 70.2531L68.8832 58.4906Z" fill="#FFDD2D"/>
<path d="M37.7005 57.5445H61.9489C60.7381 56.2915 60.7541 54.7035 61.0645 53.6709C60.7107 53.5014 60.4199 53.2964 60.1605 53.0759C59.2132 53.7772 56.3202 55.8895 55.5656 56.4173L55.4045 56.5278L45.8881 54.8019H45.6956C45.4677 54.8019 45.1336 54.7938 44.7679 54.7505C44.6657 55.1801 44.2964 55.4757 43.8717 55.4757C43.8245 55.4757 43.7695 55.4718 43.7184 55.4598C43.4707 55.4165 43.2548 55.2903 43.1093 55.0815C42.9599 54.8767 42.901 54.6323 42.9442 54.3803L42.9795 54.1752C41.9969 53.4818 41.0929 51.933 41.4937 50.3017L41.5329 50.1284L41.6707 50.0298C41.6903 50.0142 41.8552 49.9038 42.0991 49.7619L41.4072 49.6555C41.1478 49.6082 40.9749 49.3678 41.0144 49.1118C41.0575 48.8517 41.3011 48.6663 41.5566 48.7176L43.2035 48.9777L43.353 43.1614L45.8058 40.5607L47.3348 43.7882L45.7191 49.3836L47.1737 49.6122C47.429 49.6516 47.606 49.8919 47.5667 50.1559C47.5273 50.3883 47.3309 50.55 47.0989 50.55C47.0752 50.55 47.0478 50.55 47.0241 50.5461L45.8409 50.353C45.8569 50.3883 45.8802 50.4079 45.8961 50.4473C46.0218 50.7076 46.301 50.8968 46.4659 50.9755L53.7222 51.0898C54.0286 50.7903 54.7913 50.0416 55.5735 49.2496C53.789 48.5718 53.1403 47.0271 53.0302 46.0024C52.0319 45.5769 51.344 44.9387 50.9628 44.1071C50.4989 43.0789 50.664 42.0503 50.7858 41.5499C49.8189 41.1951 48.801 40.5491 47.7632 39.5166H36.8359C37.3038 40.7773 37.7005 42.145 37.7005 43.5044V57.5445Z" fill="#FFDD2D"/>
<path d="M47.6885 63.5929C47.5115 63.577 47.3623 63.7148 47.3505 63.8883C47.3386 64.0694 47.4723 64.2231 47.6532 64.227C47.8259 64.2429 47.9794 64.1088 47.9949 63.9316C47.9949 63.7581 47.8694 63.5968 47.6885 63.5929Z" fill="black"/>
<path d="M68.8406 84.9139L67.0442 84.2242L67.5395 82.3643L68.0858 80.335C68.0858 80.335 64.9019 82.0651 60.4171 83.3655C59.1435 83.7318 58.1805 83.8973 58.1805 83.8973V85.2763C58.1805 85.2763 55.7828 85.6942 53.3576 85.6942H53.3298H53.2947H53.2475H53.2199C50.7948 85.6942 48.397 85.2763 48.397 85.2763V83.8973C48.397 83.8973 47.4299 83.7318 46.1604 83.3655C41.6754 82.0651 38.4956 80.335 38.4956 80.335L39.0339 82.3643L39.541 84.2242L37.7408 84.9139L35.7441 85.6624C38.0357 86.7698 41.2076 88.3857 44.1127 89.1814L43.4286 91.0571C43.4286 91.0571 47.1116 92.7398 53.2475 92.7557V92.7596H53.2673H53.2947H53.3184H53.3339V92.7557C59.4777 92.7398 63.1566 91.0571 63.1566 91.0571L62.4687 89.1814C65.3734 88.3857 68.5536 86.7698 70.8333 85.6624L68.8406 84.9139ZM37.8744 85.7887L40.8303 84.8038L39.9577 81.9467C41.2587 82.6875 44.1795 83.7987 45.8694 84.3149L44.4428 88.2436C41.8326 87.5227 39.6589 86.6832 37.8744 85.7887ZM53.2947 91.7704C49.863 91.7704 45.9442 90.9783 44.7927 90.5687L46.5455 85.8124C47.9999 86.2381 51.0266 86.691 53.2237 86.6752H53.2278H53.2947H53.3535H53.3615C55.5588 86.691 58.5774 86.2381 60.0398 85.8124L61.7887 90.5687C60.6372 90.9823 56.7222 91.7704 53.2947 91.7704ZM62.1386 88.2436L60.7159 84.3149C62.4098 83.7987 65.3223 82.6875 66.6275 81.9467L65.7589 84.8038L68.7108 85.7887C66.9222 86.6832 64.7602 87.5227 62.1386 88.2436Z" fill="black"/>
<path d="M53.2907 10.6754C56.9463 10.6754 59.8704 11.8892 61.4861 13.1857C61.4861 13.1857 61.9656 10.2893 63.6048 7.73201L60.6606 8.06681L59.1199 4.78446L56.16 6.31344L53.2907 3.46826L50.4291 6.31344L47.4655 4.78446L45.9285 8.06681L42.9844 7.73201C44.6233 10.2893 45.103 13.1857 45.103 13.1857C46.7224 11.8892 49.6389 10.6754 53.2907 10.6754ZM45.7947 9.21743L46.6124 9.30424L46.9662 8.55946L47.9959 6.35281L49.9063 7.34171L50.6453 7.72007L51.235 7.13699L53.2946 5.08793L55.3582 7.13699L55.9479 7.72007L56.6867 7.34171L58.5855 6.35281L59.627 8.55946L59.9728 9.30424L60.7904 9.21743L61.5687 9.12284C61.211 9.93085 60.9475 10.6951 60.7587 11.3297C58.6991 10.1791 56.0184 9.52478 53.2868 9.52478C50.5668 9.52478 47.8898 10.1791 45.8223 11.3297C45.6299 10.6951 45.3704 9.9267 45.0125 9.12284L45.7947 9.21743Z" fill="black"/>
<path d="M96.1761 49.1076C100.905 49.1076 102.485 44.2847 102.552 44.0797L103.078 42.3811L101.306 42.4364H101.298C100.673 42.4364 95.4569 42.2984 91.7581 37.5856L91.4082 37.1483C88.991 34.0668 86.6994 31.1389 82.6035 29.803C82.7215 29.6968 82.8905 29.5627 83.1225 29.413C85.2961 27.9786 86.5616 26.2368 86.8801 24.2154C87.3438 21.1733 85.4101 18.7499 85.3237 18.6514L84.0068 17.0201L83.1854 18.9548C83.1304 19.0769 81.7465 22.1743 78.8379 22.1743H78.6217C78.4214 22.1623 78.2326 22.1545 78.0439 22.1386C78.1463 20.7557 77.8945 18.6159 75.9608 16.6101C73.6376 14.1946 70.784 13.832 69.2905 13.832C68.4924 13.832 67.9618 13.9305 67.9066 13.9386L65.918 14.3325L67.1443 15.9521C68.1073 17.2012 68.9798 19.5066 67.9459 20.7123C67.6158 21.0945 66.936 21.4058 66.2834 21.717C64.943 22.3356 63.1152 23.1947 63.1152 25.3858C63.1152 26.8044 64.212 28.286 66.2008 29.5468C72.0891 33.2589 75.7209 37.1324 77.2893 41.4078C79.7145 47.9848 76.5503 51.736 73.4765 53.7103L72.0967 54.6007L73.3036 55.7119C73.4647 55.854 74.9428 57.1581 77.1242 57.3475C77.5368 57.3749 77.9337 57.3984 78.3035 57.3984C79.7027 57.3984 80.8938 57.1779 81.8606 56.8822C81.5933 57.3512 81.2671 57.8281 80.8544 58.3089C79.0975 60.3498 76.9355 61.28 73.8264 61.3273L72.6706 61.3471L72.5803 62.5093C72.5684 62.7418 72.4822 64.8974 74.5181 66.7298C74.8287 67.0132 75.206 67.2461 75.5991 67.4391C74.2195 68.6843 72.816 70.8515 72.5451 74.5675C72.317 77.6686 71.578 78.8154 71.5702 78.8269L70.2928 80.7814L72.6001 80.8132C76.4129 80.8132 79.3332 79.7571 81.3574 77.6686C82.5524 76.4312 83.2365 75.0363 83.6414 73.7991C84.3056 74.3664 85.1626 74.8628 86.2786 75.1268C86.7033 75.2254 87.1672 75.2805 87.6663 75.2805C88.7434 75.2805 89.6435 75.052 89.7457 75.0284L91.2196 74.6343L90.5672 73.255C90.52 73.1449 89.2898 70.3785 90.6142 66.4301C91.1842 64.7239 91.475 63.1949 91.6165 62.005C92.5442 62.4895 93.7864 62.8915 95.3939 62.8955C99.0416 62.8955 100.649 60.1648 100.724 60.0505L101.443 58.7973L100.111 58.2457C95.7635 56.4371 94.8006 51.5782 94.6079 48.9461C95.0009 49.021 95.4491 49.092 95.956 49.1076H96.1761ZM99.6233 59.408C99.6233 59.408 98.3497 61.6267 95.4293 61.6267H95.3939C91.8877 61.6069 90.4727 59.4633 90.4727 59.4633C90.4727 59.4633 90.6771 62.2534 89.4116 66.0164C87.8903 70.552 89.4232 73.7952 89.4232 73.7952C89.4232 73.7952 88.6057 74.0157 87.6624 74.0157C87.3007 74.0157 86.9234 73.9802 86.5696 73.8856C83.6414 73.1882 82.9103 70.5165 82.9103 70.5165C82.9103 70.5165 83.1813 79.5443 72.6825 79.5443H72.6001C72.6001 79.5443 73.5237 78.2832 73.7988 74.6539C74.2979 67.9552 78.8224 67.0371 78.8224 67.0371C78.8224 67.0371 76.4086 66.7337 75.3632 65.7919C73.7279 64.3063 73.842 62.5881 73.842 62.5881C77.5368 62.537 79.9543 61.2761 81.7976 59.1364C83.7947 56.8193 84.1248 54.325 84.1248 54.325C84.1248 54.325 82.1396 56.1297 78.2996 56.1297C77.9615 56.1297 77.5998 56.1139 77.2303 56.0784C75.4143 55.9328 74.1565 54.774 74.1565 54.774C78.1539 52.2048 80.9605 47.7206 78.4725 40.9664C76.4795 35.5562 71.692 31.5133 66.8731 28.4673C65.2692 27.4624 64.3769 26.3473 64.3769 25.3858C64.3769 23.1239 67.5845 23.053 68.9014 21.5318C70.4183 19.7665 69.4671 16.9019 68.1505 15.1799C68.1505 15.1799 68.5946 15.0892 69.2942 15.0892C70.6818 15.0892 73.0835 15.4398 75.0566 17.4889C77.6785 20.2078 76.5895 23.1672 76.5895 23.1672L77.2932 23.3052C77.7138 23.3958 78.1306 23.4116 78.5628 23.4312C78.6571 23.4312 78.7515 23.4352 78.8457 23.4352C82.6546 23.4352 84.3567 19.4433 84.3567 19.4433C84.3567 19.4433 88.4054 24.4361 82.4464 28.345C81.4203 29.0149 80.9683 29.6335 81.0864 30.2956L81.1808 30.7291L81.6051 30.804C85.925 31.9782 88.1105 34.9653 90.7793 38.3617C94.8319 43.5279 100.567 43.6935 101.274 43.6935H101.349C101.349 43.6935 100.04 47.8348 96.1841 47.8348C96.1211 47.8348 96.0661 47.8348 95.9993 47.8311C94.2267 47.7678 93.3186 47.0863 93.3186 47.0863C93.3186 47.0863 92.6229 56.4921 99.6233 59.408Z" fill="black"/>
<path d="M87.8728 30.3232C89.6375 31.2648 90.6635 32.5259 91.5636 33.6448C92.448 34.7364 93.2892 35.7885 94.6018 36.226C95.0696 36.3877 95.5648 36.4625 96.068 36.4625C98.0412 36.4625 100.022 35.2526 100.773 33.578L101.528 31.8993L99.7001 31.7889C99.6135 31.785 97.2631 31.5721 94.6453 28.8887C93.5682 27.7895 92.2671 27.21 90.8638 27.21C89.1502 27.21 87.8804 28.069 87.7389 28.1559L86.0566 29.3421L87.8728 30.3232ZM90.8679 28.4791C91.7482 28.4791 92.7742 28.7784 93.7452 29.7832C96.7911 32.8846 99.6253 33.0578 99.6253 33.0578C99.1105 34.2005 97.6168 35.2054 96.0719 35.2054C95.7144 35.2054 95.3566 35.1503 94.9989 35.0282C92.9039 34.3189 92.153 31.1664 88.47 29.2039C88.47 29.2039 89.5001 28.4791 90.8679 28.4791Z" fill="black"/>
<path d="M88.6972 47.0667V47.13C87.636 38.5475 81.4176 32.349 74.4996 28.578C73.859 28.235 73.2694 27.9435 72.6955 27.6636C74.8023 27.9908 78.1945 28.0302 80.8122 25.7524C80.8122 25.7524 76.8069 28.7079 68.5996 26.0245C70.8717 27.5021 75.2858 29.5868 79.3147 32.9637C89.3892 41.8376 82.1802 50.4949 82.1802 50.4949C85.8004 46.7084 85.9496 42.6496 84.8846 39.3356C86.7909 42.5155 88.0094 46.3771 87.8206 51.1374C87.5418 57.9584 83.8036 63.8574 79.8688 68.5978C77.9782 70.8991 77.5539 73.7244 77.5539 73.7244C77.5539 73.7244 78.3163 71.2301 80.5056 68.6647C84.7233 63.7157 88.3276 58.573 88.7994 51.1648C89.2357 52.5088 91.0321 56.2483 93.8818 57.655C93.8896 57.6589 90.3087 55.4956 88.6972 47.0667Z" fill="black"/>
<path d="M35.0082 78.8225C35.0043 78.8108 34.2732 77.664 34.0375 74.5627C33.7624 70.8469 32.3628 68.6795 30.9793 67.4343C31.3803 67.2452 31.7497 67.0127 32.0603 66.7252C34.0925 64.8926 34.0059 62.7374 33.994 62.5049L33.9155 61.3425L32.752 61.3227C29.6508 61.2713 27.4848 60.3415 25.7279 58.3041C25.3191 57.8235 24.989 57.3466 24.7217 56.8778C25.6884 57.1732 26.8716 57.394 28.2749 57.394C28.6524 57.394 29.0416 57.3701 29.4542 57.3427C31.6356 57.1536 33.1137 55.8531 33.2787 55.7075L34.4854 54.5963L33.1058 53.7055C30.0202 51.7275 26.8677 47.976 29.2891 41.4034C30.8573 37.1278 34.4854 33.2543 40.3815 29.5422C42.3705 28.2812 43.4591 26.7998 43.4591 25.3812C43.4591 23.1903 41.6354 22.3273 40.295 21.7124C39.6424 21.4012 38.9626 21.0899 38.6325 20.7077C37.5947 19.5058 38.4711 17.1968 39.4302 15.9475L40.6645 14.328L38.6677 13.9339C38.6088 13.9261 38.086 13.8276 37.2842 13.8276C35.7904 13.8276 32.9447 14.1902 30.6176 16.6057C28.6798 18.6154 28.4245 20.755 28.5226 22.134C28.334 22.1499 28.1453 22.158 27.9487 22.1695H27.7366C24.82 22.1695 23.4404 19.0725 23.3854 18.9502L22.5636 17.0154L21.2351 18.6467C21.1605 18.7455 19.2188 21.1727 19.6904 24.2109C20.0049 26.2322 21.2705 27.9739 23.4441 29.4084C23.68 29.5581 23.8451 29.692 23.963 29.7986C19.8713 31.1342 17.5836 34.0661 15.1661 37.1474L14.8162 37.5849C11.1216 42.2977 5.89365 42.4359 5.26869 42.4359L3.48828 42.3806L4.03054 44.0788C4.09347 44.2838 5.66967 49.107 10.4021 49.107L10.6302 49.0993C11.1293 49.0835 11.5775 49.0164 11.9785 48.9376C11.7818 51.5658 10.8187 56.4246 6.46751 58.2372L5.13894 58.789L5.85847 60.042C5.92911 60.1563 7.54074 62.8871 11.1961 62.8871C12.792 62.883 14.034 62.481 14.9657 61.9965C15.1073 63.1864 15.3981 64.7154 15.9681 66.4216C17.2928 70.37 16.0585 73.1364 16.0112 73.2467L15.3588 74.626L16.8368 75.0199C16.9349 75.0435 17.843 75.272 18.916 75.272C19.4192 75.272 19.8831 75.2169 20.2998 75.1183C21.4201 74.8543 22.2846 74.358 22.9409 73.7904C23.3419 75.0276 24.0299 76.4227 25.221 77.6601C27.2489 79.7484 30.1655 80.8045 33.9783 80.8045L36.2897 80.7731L35.0082 78.8225ZM33.8918 79.5436C23.393 79.5436 23.6605 70.5159 23.6605 70.5159C23.6605 70.5159 22.9294 73.1875 20.001 73.8851C19.6511 73.9796 19.2776 74.0152 18.9121 74.0152C17.9689 74.0152 17.1551 73.7943 17.1551 73.7943C17.1551 73.7943 18.6801 70.5513 17.1589 66.0159C15.9013 62.2525 16.1058 59.4628 16.1058 59.4628C16.1058 59.4628 14.6945 61.6065 11.1845 61.6261H11.1491C8.22866 61.6261 6.95506 59.4076 6.95506 59.4076C13.9516 56.4956 13.2637 47.0935 13.2637 47.0935C13.2637 47.0935 12.3559 47.7712 10.5791 47.8383C10.5161 47.8422 10.4573 47.8422 10.3944 47.8422C6.5343 47.8422 5.22938 43.7007 5.22938 43.7007H5.30797C6.01953 43.7007 11.7466 43.5351 15.799 38.3691C18.468 34.9724 20.6573 31.9893 24.9692 30.8113L25.4015 30.7365L25.4961 30.3029C25.614 29.6408 25.1658 29.0223 24.14 28.3523C18.181 24.4394 22.2296 19.4506 22.2296 19.4506C22.2296 19.4506 23.9238 23.4386 27.7405 23.4386C27.8347 23.4386 27.9213 23.4345 28.0194 23.4345C28.4478 23.4108 28.8725 23.3951 29.2891 23.3046L29.9928 23.1666C29.9928 23.1666 28.9038 20.2073 31.5296 17.4883C33.5029 15.4354 35.9044 15.0886 37.2879 15.0886C37.9916 15.0886 38.4279 15.1791 38.4279 15.1791C37.1152 16.905 36.164 19.766 37.6809 21.5313C38.9939 23.0484 42.1974 23.1233 42.1974 25.3851C42.1974 26.3425 41.3053 27.4619 39.7017 28.4666C34.8784 31.5126 30.0911 35.5555 28.102 40.9659C25.6179 47.7201 28.4204 52.2002 32.4258 54.7735C32.4258 54.7735 31.168 55.9319 29.3481 56.0779C28.9786 56.1134 28.6209 56.1291 28.2749 56.1291C24.4386 56.1291 22.4536 54.3241 22.4536 54.3241C22.4536 54.3241 22.7837 56.8188 24.7689 59.1357C26.6241 61.2752 29.0416 62.5363 32.7364 62.5877C32.7364 62.5877 32.8544 64.3058 31.2191 65.7911C30.1698 66.7289 27.756 67.0363 27.756 67.0363C27.756 67.0363 32.2843 67.9545 32.7796 74.6534C33.0508 78.2825 33.9666 79.5436 33.9666 79.5436H33.8918Z" fill="black"/>
<path d="M10.5086 36.4667C11.0156 36.4667 11.5109 36.3916 11.9784 36.2299C13.2993 35.7927 14.1364 34.7405 15.0208 33.649C15.925 32.5299 16.943 31.269 18.7078 30.3272L20.5239 29.35L18.8375 28.1638C18.696 28.0732 17.4303 27.2183 15.7206 27.2183C14.3134 27.2183 13.0085 27.7935 11.9353 28.8966C9.31743 31.5763 6.97087 31.7929 6.8843 31.797L5.05664 31.9032L5.80748 33.5859C6.56192 35.2527 8.5391 36.4667 10.5086 36.4667ZM12.8353 29.7874C13.8102 28.7823 14.8361 28.483 15.7206 28.483C17.0805 28.483 18.1103 29.2079 18.1103 29.2079C14.4313 31.1743 13.6766 34.3231 11.5736 35.0322C11.2278 35.1543 10.8661 35.2096 10.5086 35.2096C8.9637 35.2096 7.46998 34.2086 6.95906 33.062C6.95906 33.0581 9.78905 32.8844 12.8353 29.7874Z" fill="black"/>
<path d="M18.7604 51.1408C18.5639 46.3806 19.7825 42.5188 21.6927 39.3389C20.6274 42.6528 20.7729 46.7116 24.3971 50.4985C24.3971 50.4985 17.1881 41.8412 27.2663 32.9671C31.2994 29.59 35.7096 27.5054 37.9776 26.0277C29.7742 28.7111 25.7687 25.7559 25.7687 25.7559C28.3865 28.0336 31.7789 27.9942 33.8859 27.6633C33.3158 27.9428 32.7182 28.2345 32.0852 28.5773C25.1596 32.3483 18.9451 38.5468 17.8798 47.1293V47.0624C16.2723 55.4912 12.6953 57.6545 12.6953 57.6545C15.5412 56.2476 17.3337 52.512 17.7699 51.1645C18.2456 58.5727 21.8499 63.715 26.0675 68.6644C28.2569 71.2294 29.0274 73.7239 29.0274 73.7239C29.0274 73.7239 28.599 70.8984 26.7005 68.5971C22.7737 63.8647 19.0355 57.9618 18.7604 51.1408Z" fill="black"/>
<path d="M50.9199 33.7756V35.4778C51.5057 34.7646 52.6378 34.9106 52.6378 34.9106V37.3655C52.6378 37.3655 52.5983 38.5713 52.1699 39.0952H53.3962H54.6187C54.1982 38.5752 54.1547 37.3655 54.1547 37.3655V34.9106C54.1547 34.9106 55.2868 34.7646 55.8687 35.4778V33.7756H53.3962H50.9199Z" fill="black"/>
<path d="M49.8655 23.6798C50.6476 24.3027 51.0997 24.405 51.1155 24.417L51.4221 24.5587V22.9548L48.5449 21.7412C48.5449 21.7451 48.5723 22.671 49.8655 23.6798Z" fill="black"/>
<path d="M56.7088 23.6798C58.0099 22.671 58.0334 21.7412 58.0334 21.7412L55.1562 22.9548V24.5587L55.4587 24.417C55.4786 24.405 55.9266 24.3027 56.7088 23.6798Z" fill="black"/>
<path d="M61.8944 17.1495C61.8944 14.7182 57.8104 12.5312 53.3019 12.5312H53.298H53.2863H53.2745C48.7659 12.5312 44.6819 14.7182 44.6819 17.1495L44.7725 17.7484L46.5725 28.108L44.7647 29.1602L40.0869 31.8989H40.1029C40.1029 31.8989 39.0495 32.4387 38.5618 32.7736C36.7814 34.0151 36.4041 35.8236 37.4377 36.5723C37.6934 35.0986 38.8567 33.5539 41.0343 33.5539C42.6027 33.5539 43.7975 34.3655 44.7647 35.5833C45.0122 35.8906 45.2481 36.2177 45.4682 36.5723C45.7392 37.0174 46.0104 37.4078 46.2818 37.7861H34.2344C35.1187 39.5711 35.9598 41.4627 35.9598 43.5156V70.248C35.9598 76.7184 40.9243 79.8077 46.2935 79.8077C50.4443 79.8077 51.0027 79.6186 53.2943 81.904C55.574 79.6147 56.1322 79.8077 60.2869 79.8077C65.66 79.8077 70.6167 76.7184 70.6167 70.248V43.5156C70.6167 41.4627 71.4579 39.5711 72.3462 37.7861H60.2947C60.562 37.4116 60.8332 37.0174 61.1042 36.5723C61.3284 36.2177 61.5602 35.8906 61.804 35.5833C62.7788 34.3618 63.9697 33.5539 65.5382 33.5539C67.7157 33.5539 68.8753 35.0947 69.1347 36.5723C70.1687 35.8236 69.7951 34.0151 68.0026 32.7736C67.5231 32.4387 66.4696 31.8989 66.4696 31.8989H66.4855L61.8079 29.1602L60.0077 28.108L61.8079 17.7484L61.8944 17.1495ZM46.4546 18.3553L52.7831 20.5068V30.4724L48.1254 28.0096L46.4546 18.3553ZM47.7636 39.5237C48.8015 40.5599 49.8195 41.2024 50.7863 41.557C50.6604 42.0576 50.4956 43.0901 50.9633 44.1183C51.3445 44.9458 52.0363 45.5844 53.0306 46.0099C53.1408 47.0346 53.7854 48.5751 55.574 49.257C54.7918 50.0489 54.0291 50.7937 53.7186 51.0971L46.4664 50.9828C46.3015 50.8999 46.0223 50.7149 45.8968 50.4509C45.8808 50.4154 45.8573 50.3956 45.8457 50.3562L47.0285 50.5493C47.0562 50.5532 47.0796 50.5532 47.1033 50.5532C47.3314 50.5532 47.5317 50.3956 47.5711 50.1592C47.6103 49.8952 47.4335 49.6547 47.1781 49.6153L45.7237 49.3868L47.3391 43.7951L45.8101 40.568L43.3575 43.1689L43.2079 48.9848L41.5612 48.7249C41.3055 48.6735 41.0619 48.8629 41.0187 49.1188C40.9793 49.3752 41.1522 49.6153 41.4116 49.6627L42.1034 49.769C41.8559 49.9111 41.6948 50.0212 41.675 50.0369L41.5334 50.1355L41.4941 50.3092C41.0933 51.9405 42.0012 53.4891 42.9802 54.1825L42.9446 54.3873C42.9054 54.6398 42.9604 54.8838 43.1098 55.0888C43.2512 55.2977 43.4713 55.4238 43.715 55.4671C43.7663 55.4749 43.8211 55.4788 43.8685 55.4788C44.2928 55.4788 44.6625 55.1833 44.7686 54.754C45.134 54.7972 45.4682 54.805 45.6961 54.805H45.8888L55.405 56.5271L55.566 56.4208C56.3245 55.8887 59.2137 53.7768 60.161 53.079C60.4204 53.3038 60.7112 53.5089 61.065 53.678C60.7584 54.7103 60.7388 56.2985 61.9534 57.5517H37.7012V43.5195C37.7012 42.1601 37.3042 40.7928 36.8364 39.5317H47.7636V39.5237ZM59.5241 52.3621C58.5613 53.0714 56.0849 54.8838 55.1887 55.5143L46.5412 53.9579C46.561 53.8791 46.5805 53.8042 46.6003 53.7254C46.7141 53.276 46.8282 52.6614 46.8361 51.9405L54.1038 52.0587L54.2414 51.9165C54.3516 51.8064 56.655 49.5759 57.8302 48.2913C58.1092 48.642 58.4589 48.9771 58.9149 49.2725C58.7577 50.1237 58.8245 51.3374 59.5241 52.3621ZM45.0476 50.8605C45.2519 51.2901 45.6213 51.5779 45.877 51.7394C45.869 52.1412 45.8297 52.7678 45.7237 53.3195C45.7 53.4416 45.6687 53.5559 45.6331 53.6702C45.6137 53.7413 45.5939 53.8003 45.5781 53.8475C45.197 53.8475 44.4461 53.8003 43.8329 53.5757C43.1531 53.3234 42.139 52.0743 42.3746 50.6992C42.6695 50.5177 43.3495 50.1355 43.9864 50.1355C44.4777 50.1316 44.8117 50.364 45.0476 50.8605ZM44.1475 49.1308L44.2928 43.547L45.5428 42.2191L46.329 43.8662L44.7802 49.2253L44.1475 49.1308ZM59.4456 78.0778C58.9739 78.0778 58.5376 78.0857 58.1445 78.1016L59.1744 74.8899C59.3357 74.4446 58.5218 73.8733 58.1877 73.3729C58.6947 73.6922 60.0077 74.3895 60.6407 74.6694C60.5738 74.7717 59.4456 78.0778 59.4456 78.0778ZM62.6766 74.4289L62.0045 77.944C61.5761 78.003 61.1202 78.0343 60.6523 78.0541L61.3599 74.6733C61.5721 73.6682 58.8797 73.357 57.5512 71.3829C56.9025 72.1157 55.6801 72.3327 54.4538 72.3327C53.3335 72.3327 52.2133 72.1512 51.5331 72.0173C51.3602 71.9899 51.1951 71.9701 51.034 71.9701C50.641 71.9701 50.2831 72.0922 50.0356 72.5099L49.839 72.8409L46.1719 71.974L45.2599 73.4871C45.1301 73.7315 45.1222 73.9405 45.3306 74.1686L45.5781 74.4409C45.4091 74.9767 44.6468 75.7844 44.6468 75.7844L44.1004 75.1026C43.6678 74.618 43.7387 73.7355 44.1908 72.9158L45.645 70.4529L48.7504 70.9021L48.2668 69.7988C47.6183 68.3408 48.6049 66.4848 48.711 65.4168C48.6756 65.74 48.3807 65.811 48.0348 65.811C47.7205 65.811 47.3706 65.7518 47.1386 65.7518C47.0483 65.7518 46.9696 65.7596 46.9265 65.7912L46.0852 66.3035L45.421 65.7163C45.3423 65.6021 45.3149 65.338 45.5113 65.1411L47.0483 63.4151L45.2325 61.2912L47.7755 62.5719L48.5497 61.6301C48.7622 61.839 48.6717 62.3867 48.6717 62.3867C49.4657 62.4063 51.6903 63.6399 51.8084 66.5164C51.8162 66.6028 51.8162 66.7016 51.8162 66.7959C51.8162 66.7959 51.836 66.8316 51.8752 66.8906C52.0324 67.1075 52.4647 67.663 53.0149 67.7141L56.5291 68.0611H56.5446C56.9301 68.0611 57.6965 67.6079 58.679 67.6079C59.2137 67.6079 59.8111 67.7457 60.448 68.1477C60.448 68.1477 60.7662 67.8954 61.2851 67.8678C61.3244 67.8639 61.3679 67.8639 61.4071 67.8639C62.9833 67.8639 63.6357 69.2906 64.4809 70.4766C65.1177 71.379 65.9667 72.7188 65.9667 72.7188C65.6522 73.093 65.3612 73.298 64.8739 73.298C64.7404 73.298 64.587 73.286 64.4218 73.2547C62.7316 72.9432 62.4881 69.4599 61.5251 69.184C61.474 69.1683 61.419 69.1643 61.3718 69.1643C61.0611 69.1643 60.9237 69.4403 60.9237 69.4403C61.3636 70.6261 61.1083 71.1071 61.58 72.0213C61.9336 72.699 62.5625 73.2586 62.8221 73.5226C62.8221 73.5304 62.7514 74.0428 62.6766 74.4289ZM43.8055 71.103L43.9666 71.5091C43.8605 71.8637 42.6421 72.368 42.6421 72.368L42.3785 71.7925C42.0995 71.1779 42.1584 70.1416 43.0076 69.5072L44.9807 68.3014L47.072 68.7465C47.0325 69.4125 47.4295 69.9092 47.4295 69.9092L45.2362 69.4876L43.9234 70.3978C43.7033 70.5514 43.6876 70.8392 43.8055 71.103ZM63.0069 77.7509L63.6083 74.6061C63.6396 74.4211 63.6789 74.2043 63.7065 74.023C63.8755 74.0941 64.0564 74.1531 64.2528 74.1886C64.4768 74.2319 64.6851 74.2515 64.8739 74.2515C65.7938 74.2515 66.3283 73.7668 66.686 73.3531L67.1499 72.8133L66.7724 72.2223C66.7371 72.1632 65.9038 70.8392 65.2592 69.9327C65.1333 69.7555 65.0113 69.5781 64.8896 69.385C64.1586 68.2894 63.2427 66.9145 61.4071 66.9145L61.242 66.9184C60.9393 66.938 60.6799 66.997 60.4717 67.0758C59.8937 66.8039 59.3001 66.6661 58.6829 66.6661C57.9244 66.6661 57.2837 66.8751 56.8592 67.0207C56.7374 67.0562 56.6274 67.0956 56.5409 67.1114L53.1093 66.7724C53.0662 66.7647 52.9246 66.682 52.7555 66.477V66.4611L53.4985 66.1616C53.2902 63.6832 50.9161 62.1581 49.5914 61.6419C49.5326 61.3935 49.4146 61.1452 49.2064 60.9445L48.4673 60.243L47.8186 61.0233L47.5004 61.4214L42.6971 59.4429L45.822 63.3757L44.5877 65.2475C44.1356 65.7283 44.6349 66.2091 44.6349 66.2091L45.9082 67.0877L47.2292 66.5952C47.2762 66.5952 47.3156 66.6071 47.3587 66.6109C47.296 66.8118 47.2134 67.5999 47.1582 67.8206L44.8667 67.3674L42.4572 68.731C41.219 69.6412 41.05 71.1504 41.5101 72.1829L41.7772 72.7698L42.1584 73.5975L42.9996 73.2466C43.0115 73.2427 43.0233 73.2388 43.0309 73.2312C42.7284 74.2004 42.8504 75.1224 43.3927 75.7294L43.9036 76.3756L44.5838 77.2386L45.3306 76.4346C45.5508 76.2139 46.2622 75.4142 46.4823 74.7284L46.6434 74.2041L46.278 73.8023L46.2189 73.7315L46.6279 73.0536L49.6188 73.759L50.2911 73.9126L50.6487 73.3215L50.8453 72.9983C50.8807 72.9315 50.8924 72.9195 51.0301 72.9195C51.1362 72.9195 51.2423 72.9315 51.3563 72.9552C52.4843 73.1678 53.5259 73.2745 54.4497 73.2745C55.3459 73.2745 55.8804 73.2388 56.5211 73.0261C56.5211 73.0261 58.1288 74.8544 58.1838 74.9254L57.2013 77.9675L57.158 78.1527C55.2948 78.3023 54.3869 78.7123 53.2902 79.8117C51.6982 78.2274 50.57 78.0622 46.2898 78.0622C41.1679 78.0622 37.6973 75.0516 37.6973 70.2441V58.4896H68.8754L68.8833 70.2441C68.887 74.1451 66.6034 76.864 63.0069 77.7509ZM69.7479 39.5237C69.2725 40.7847 68.8754 42.1522 68.8754 43.5117L68.8794 52.2833C67.0514 51.9759 66.8354 50.0014 66.8274 49.915L66.7921 49.513L66.399 49.4775C65.605 49.4027 65.0783 49.0636 64.6342 48.6304C63.7379 47.7319 63.7339 46.2739 63.7379 46.2619C63.7263 46.3368 62.7514 47.7041 63.8835 49.1976C64.3589 49.8282 65.0468 50.2145 65.9392 50.3681C66.1474 51.4636 66.9611 53.0081 68.8794 53.2446V57.5398H63.4863C60.9982 56.1529 62.0516 53.7096 62.1027 53.6072L62.315 53.1421L61.8394 52.9608C59.1468 51.9601 59.8859 49.2647 59.9251 49.1504L60.0351 48.7562L59.6697 48.583C57.4447 47.5505 57.7476 44.7647 57.7752 44.6504C57.0911 45.2059 56.8434 46.3407 57.3151 47.4521C57.0597 47.7437 56.7179 48.0983 56.3443 48.4844C54.0409 47.8976 53.9704 45.7735 53.9704 45.6751L53.9661 45.3478L53.6636 45.2296C52.7635 44.8947 52.1463 44.3943 51.8436 43.7202C51.5018 42.9758 51.6234 42.1955 51.7181 41.821C51.9813 41.8802 52.2446 41.9237 52.4962 41.9433C52.7555 41.9707 53.0229 41.9866 53.2902 41.9866H53.3059H53.3256C53.5929 41.9866 53.8563 41.9707 54.1157 41.9433C55.5503 41.8014 57.158 41.1828 58.8325 39.5197H69.7479V39.5237ZM61.3442 30.6574L63.4745 31.8989H63.506L64.0406 32.2101C62.8378 32.5451 61.9181 33.148 61.1478 33.94C61.1202 33.9637 61.0928 33.9953 61.065 34.0227C60.8882 34.2119 60.7112 34.4169 60.5463 34.6258C60.5148 34.6652 60.4833 34.7085 60.448 34.7519C60.2828 34.9645 60.1297 35.1815 59.9801 35.4098C59.9566 35.4494 59.929 35.4888 59.9016 35.5241C59.7246 35.7881 59.5558 36.0719 59.3868 36.3634C57.8694 38.9839 55.4481 40.5484 53.2943 40.5523C51.1441 40.5484 48.7228 38.9839 47.2055 36.3634C47.0403 36.0796 46.8754 35.804 46.6984 35.5358C46.663 35.4847 46.6315 35.4335 46.6003 35.39C46.4509 35.1734 46.3015 34.9606 46.1482 34.7599C46.1089 34.7046 46.0734 34.6611 46.0341 34.6139C45.869 34.4128 45.7 34.2119 45.5309 34.0266C45.4958 33.9992 45.4721 33.9637 45.4367 33.9322C44.6625 33.1401 43.7464 32.5412 42.5398 32.2101L43.0822 31.8989H43.1057L45.2362 30.6574L47.4256 29.4007L53.2745 32.5923L53.2863 32.5806L53.3019 32.5923L59.1507 29.4007L61.3442 30.6574ZM58.4589 28.0134L53.7973 30.4763V20.5068L60.1218 18.3553L58.4589 28.0134ZM53.2902 19.4113L46.3564 16.6649C46.9461 15.266 49.666 14.0758 53.2902 14.0719C56.9182 14.0758 59.6382 15.266 60.2239 16.6649L53.2902 19.4113Z" fill="black"/>
<path d="M139.153 61.1157V45.3373H148.385V39.5957H123.199V45.3373H132.431V61.1157H139.153ZM157.573 52.1189V39.5957H151.075V61.1157H156.811L168.015 48.5925V61.1157H174.513V39.5957H168.777L157.573 52.1189ZM196.374 53.1136V61.1157H202.873V39.5957H196.374V47.4621H185.932V39.5957H179.434V61.1157H185.932V53.1136H196.374ZM220.968 61.1157C222.447 61.1157 223.791 60.9803 225.046 60.6185C228.409 59.6692 230.603 56.9111 230.603 53.1587C230.603 49.5872 228.722 47.1007 225.72 45.9702C224.283 45.4279 222.583 45.3826 220.968 45.3826H214.291V39.5957H207.794V61.1157H220.968ZM219.847 50.4463C220.745 50.4463 221.596 50.4462 222.357 50.7175C223.434 51.0791 224.061 51.9833 224.061 53.0683C224.061 54.1987 223.434 55.1481 222.402 55.6001C221.685 55.9166 220.968 55.9166 219.847 55.9166H214.291V50.4463H219.847ZM242.254 52.978L250.008 61.1157H258.655L247.857 49.9035L258.253 39.5957H250.097L242.254 47.6883H240.463V39.5957H233.966V61.1157H240.463V52.978H242.254ZM272.026 39.0081C263.287 39.0081 258.045 43.981 258.045 50.4008C258.045 56.821 263.287 61.7941 272.026 61.7941C280.722 61.7941 285.965 56.821 285.965 50.4008C285.965 43.981 280.722 39.0081 272.026 39.0081ZM272.026 56.5497C267.68 56.5497 264.903 53.9274 264.903 50.4008C264.903 46.8747 267.68 44.2975 272.026 44.2975C276.329 44.2975 279.152 46.8747 279.152 50.4008C279.152 53.9274 276.329 56.5497 272.026 56.5497ZM307.607 38.375H301.108V40.5449C292.952 40.7258 288.066 44.207 288.066 50.3557C288.066 56.5042 292.952 59.7143 301.108 59.8952V62.0653H307.607V59.8952C315.805 59.7143 320.692 56.5042 320.692 50.3557C320.692 44.207 315.805 40.7258 307.607 40.5449V38.375ZM301.108 55.2837C296.626 55.1028 294.654 53.2492 294.654 50.3557C294.654 47.4621 296.626 45.3826 301.108 45.2019V55.2837ZM307.607 45.2019C312.133 45.3826 314.059 47.4621 314.059 50.3557C314.059 53.2492 312.133 55.1028 307.607 55.2837V45.2019ZM342.309 38.375H335.811V40.5449C327.655 40.7258 322.772 44.207 322.772 50.3557C322.772 56.5042 327.655 59.7143 335.811 59.8952V62.0653H342.309V59.8952C350.512 59.7143 355.396 56.5042 355.396 50.3557C355.396 44.207 350.512 40.7258 342.309 40.5449V38.375ZM335.811 55.2837C331.33 55.1028 329.358 53.2492 329.358 50.3557C329.358 47.4621 331.33 45.3826 335.811 45.2019V55.2837ZM342.309 45.2019C346.836 45.3826 348.763 47.4621 348.763 50.3557C348.763 53.2492 346.836 55.1028 342.309 55.2837V45.2019Z" fill="white"/>
</g>
<defs>
<clipPath id="clip0_1_1398">
<rect width="354.76" height="94.08" fill="white" transform="translate(0.740234 0.67041)"/>
</clipPath>
</defs>
</svg>
